<svg id="instagram" xmlns="http://www.w3.org/2000/svg" width="22.593" height="22.594" viewBox="0 0 22.593 22.594">
  <path id="Path_51" data-name="Path 51" d="M214.971,212.986A1.986,1.986,0,1,1,212.986,211,1.986,1.986,0,0,1,214.971,212.986Zm0,0" transform="translate(-201.689 -201.689)" fill="#fff"/>
  <path id="Path_52" data-name="Path 52" d="M129.355,120h-6.707A2.651,2.651,0,0,0,120,122.648v6.707A2.651,2.651,0,0,0,122.648,132h6.707A2.651,2.651,0,0,0,132,129.355v-6.707A2.651,2.651,0,0,0,129.355,120ZM126,129.311a3.31,3.31,0,1,1,3.31-3.31A3.313,3.313,0,0,1,126,129.311Zm3.795-6.443a.662.662,0,1,1,.662-.662A.662.662,0,0,1,129.8,122.868Zm0,0" transform="translate(-114.705 -114.705)" fill="#fff"/>
  <path id="Path_53" data-name="Path 53" d="M16.636,0H5.957A5.964,5.964,0,0,0,0,5.957V16.636a5.964,5.964,0,0,0,5.957,5.957H16.636a5.964,5.964,0,0,0,5.957-5.957V5.957A5.964,5.964,0,0,0,16.636,0Zm1.986,14.65a3.976,3.976,0,0,1-3.972,3.972H7.943A3.976,3.976,0,0,1,3.972,14.65V7.943A3.976,3.976,0,0,1,7.943,3.972H14.65a3.976,3.976,0,0,1,3.972,3.972Zm0,0" fill="#fff"/>
</svg>
