<svg id="linkedin" xmlns="http://www.w3.org/2000/svg" width="22.593" height="22.594" viewBox="0 0 22.593 22.594">
  <path id="Path_54" data-name="Path 54" d="M23.085,23.037h.006V14.75c0-4.054-.873-7.176-5.612-7.176a4.92,4.92,0,0,0-4.431,2.435h-.066V7.952H8.489V23.036h4.679V15.567c0-1.967.373-3.868,2.808-3.868,2.4,0,2.435,2.244,2.435,3.994v7.344Z" transform="translate(-0.498 -0.444)" fill="#fff"/>
  <path id="Path_55" data-name="Path 55" d="M.4,7.977H5.08V23.061H.4Z" transform="translate(-0.023 -0.468)" fill="#fff"/>
  <path id="Path_56" data-name="Path 56" d="M2.713,0A2.726,2.726,0,1,0,5.426,2.713,2.714,2.714,0,0,0,2.713,0Z" fill="#fff"/>
</svg>
