<svg id="twitter" xmlns="http://www.w3.org/2000/svg" width="27.807" height="22.594" viewBox="0 0 27.807 22.594">
  <g id="Group_22" data-name="Group 22" transform="translate(0 0)">
    <path id="Path_58" data-name="Path 58" d="M27.807,50.675a11.885,11.885,0,0,1-3.285.9,5.669,5.669,0,0,0,2.508-3.151,11.393,11.393,0,0,1-3.615,1.38,5.7,5.7,0,0,0-9.861,3.9,5.87,5.87,0,0,0,.132,1.3,16.136,16.136,0,0,1-11.75-5.963,5.7,5.7,0,0,0,1.752,7.619,5.63,5.63,0,0,1-2.576-.7v.063a5.727,5.727,0,0,0,4.567,5.6,5.69,5.69,0,0,1-1.495.188,5.04,5.04,0,0,1-1.079-.1,5.755,5.755,0,0,0,5.327,3.971,11.455,11.455,0,0,1-7.068,2.431A10.679,10.679,0,0,1,0,68.035a16.049,16.049,0,0,0,8.745,2.558c10.49,0,16.226-8.69,16.226-16.222,0-.252-.009-.5-.021-.737A11.373,11.373,0,0,0,27.807,50.675Z" transform="translate(0 -48)" fill="#fff"/>
  </g>
</svg>
