<svg width="21" height="12" viewBox="0 0 21 12" fill="none" xmlns="http://www.w3.org/2000/svg">
<path fill-rule="evenodd" clip-rule="evenodd" d="M10.6618 10.7871C10.5052 10.873 10.2772 10.8389 10.1526 10.711L1.22566 1.54271C1.10106 1.41475 1.127 1.24139 1.2836 1.15551C1.44019 1.06962 1.66814 1.10373 1.79274 1.2317L10.7197 10.3999C10.8443 10.5279 10.8184 10.7013 10.6618 10.7871Z" fill="#7B5B3E" stroke="#7B5B3E" stroke-width="2"/>
<path fill-rule="evenodd" clip-rule="evenodd" d="M19.7165 1.15522C19.8731 1.24111 19.8991 1.41447 19.7745 1.54243L10.8475 10.7107C10.7229 10.8386 10.4949 10.8727 10.3383 10.7869C10.1818 10.701 10.1558 10.5276 10.2804 10.3997L19.2074 1.23141C19.332 1.10345 19.5599 1.06934 19.7165 1.15522Z" fill="#7B5B3E" stroke="#7B5B3E" stroke-width="2"/>
</svg>
