<svg width="43" height="43" viewBox="0 0 43 43" fill="none" xmlns="http://www.w3.org/2000/svg">
<g clip-path="url(#clip0_405_1184)">
<g clip-path="url(#clip1_405_1184)">
<path fill-rule="evenodd" clip-rule="evenodd" d="M41.3934 21.5392C41.3934 10.3995 32.3619 1.36792 21.2232 1.36792C10.0823 1.36792 1.05078 10.3995 1.05078 21.5392C1.05078 31.6072 8.42789 39.9512 18.0706 41.4654V27.3691H12.9499V21.5392H18.0706V17.0947C18.0706 12.0402 21.083 9.24672 25.6894 9.24672C27.8969 9.24672 30.2058 9.64123 30.2058 9.64123V14.6057H27.6608C25.1558 14.6057 24.3748 16.1598 24.3748 17.7549V21.5392H29.9686L29.0747 27.3691H24.3748V41.4654C34.0175 39.9512 41.3934 31.6072 41.3934 21.5392Z" fill="#C6AA76"/>
<path fill-rule="evenodd" clip-rule="evenodd" d="M29.0745 27.3692L29.9684 21.5394H24.3745V17.755C24.3745 16.1599 25.1556 14.6058 27.6606 14.6058H30.2055V9.64134C30.2055 9.64134 27.8966 9.24683 25.6892 9.24683C21.0828 9.24683 18.0704 12.0403 18.0704 17.0948V21.5394H12.9497V27.3692H18.0704V41.4655C19.0977 41.6263 20.1501 41.7095 21.223 41.7095C22.2948 41.7095 23.3472 41.6263 24.3745 41.4655V27.3692H29.0745Z" fill="#FFFFFE"/>
</g>
</g>
<defs>
<clipPath id="clip0_405_1184">
<rect width="42.1875" height="42.1875" fill="white" transform="translate(0.4375 0.4375)"/>
</clipPath>
<clipPath id="clip1_405_1184">
<rect width="41.0473" height="42.1875" fill="white" transform="translate(0.4375 0.4375)"/>
</clipPath>
</defs>
</svg>
