<svg width="43" height="43" viewBox="0 0 43 43" fill="none" xmlns="http://www.w3.org/2000/svg">
<g clip-path="url(#clip0_405_1168)">
<g clip-path="url(#clip1_405_1168)">
<path fill-rule="evenodd" clip-rule="evenodd" d="M42.6562 21.6355C42.6562 33.0847 33.3737 42.3671 21.9257 42.3671C10.4753 42.3671 1.19287 33.0847 1.19287 21.6355C1.19287 10.1851 10.4753 0.903809 21.9257 0.903809C33.3737 0.903809 42.6562 10.1851 42.6562 21.6355Z" fill="#C6AA76"/>
<path fill-rule="evenodd" clip-rule="evenodd" d="M28.3605 13.792C27.573 13.792 26.9355 14.4307 26.9355 15.217C26.9355 16.0045 27.573 16.642 28.3605 16.642C29.148 16.642 29.7855 16.0045 29.7855 15.217C29.7855 14.4307 29.148 13.792 28.3605 13.792Z" fill="#FFFFFE"/>
<path fill-rule="evenodd" clip-rule="evenodd" d="M22.0252 25.4404C19.91 25.4404 18.1896 23.7201 18.1896 21.6061C18.1896 19.492 19.91 17.7717 22.0252 17.7717C24.1393 17.7717 25.8584 19.492 25.8584 21.6061C25.8584 23.7201 24.1393 25.4404 22.0252 25.4404ZM22.0252 15.6201C18.724 15.6201 16.0381 18.3049 16.0381 21.6061C16.0381 24.9072 18.724 27.592 22.0252 27.592C25.3252 27.592 28.0111 24.9072 28.0111 21.6061C28.0111 18.3049 25.3252 15.6201 22.0252 15.6201Z" fill="#FFFFFE"/>
<path fill-rule="evenodd" clip-rule="evenodd" d="M17.0718 11.739C14.3073 11.739 12.0585 13.9878 12.0585 16.7534V26.4589C12.0585 29.2233 14.3073 31.4733 17.0718 31.4733H26.7772C29.5429 31.4733 31.7929 29.2233 31.7929 26.4589V16.7534C31.7929 13.9878 29.5429 11.739 26.7772 11.739H17.0718ZM26.7772 33.7597H17.0718C13.0464 33.7597 9.771 30.4843 9.771 26.4589V16.7534C9.771 12.728 13.0464 9.45264 17.0718 9.45264H26.7772C30.8026 9.45264 34.0792 12.728 34.0792 16.7534V26.4589C34.0792 30.4843 30.8026 33.7597 26.7772 33.7597Z" fill="#FFFFFE"/>
</g>
</g>
<defs>
<clipPath id="clip0_405_1168">
<rect width="42.1875" height="42.1875" fill="white" transform="translate(0.5625 0.4375)"/>
</clipPath>
<clipPath id="clip1_405_1168">
<rect width="42.1875" height="42.1875" fill="white" transform="translate(0.5625 0.4375)"/>
</clipPath>
</defs>
</svg>
