<svg width="18" height="19" viewBox="0 0 18 19" fill="none" xmlns="http://www.w3.org/2000/svg">
<path d="M8.9925 2.18677C4.8525 2.18677 1.5 5.54677 1.5 9.68677C1.5 13.8268 4.8525 17.1868 8.9925 17.1868C13.14 17.1868 16.5 13.8268 16.5 9.68677C16.5 5.54677 13.14 2.18677 8.9925 2.18677ZM14.19 6.68677H11.9775C11.7375 5.74927 11.3925 4.84927 10.9425 4.01677C12.3225 4.48927 13.47 5.44927 14.19 6.68677ZM9 3.71677C9.6225 4.61677 10.11 5.61427 10.4325 6.68677H7.5675C7.89 5.61427 8.3775 4.61677 9 3.71677ZM3.195 11.1868C3.075 10.7068 3 10.2043 3 9.68677C3 9.16927 3.075 8.66677 3.195 8.18677H5.73C5.67 8.68177 5.625 9.17677 5.625 9.68677C5.625 10.1968 5.67 10.6918 5.73 11.1868H3.195ZM3.81 12.6868H6.0225C6.2625 13.6243 6.6075 14.5243 7.0575 15.3568C5.6775 14.8843 4.53 13.9318 3.81 12.6868ZM6.0225 6.68677H3.81C4.53 5.44177 5.6775 4.48927 7.0575 4.01677C6.6075 4.84927 6.2625 5.74927 6.0225 6.68677ZM9 15.6568C8.3775 14.7568 7.89 13.7593 7.5675 12.6868H10.4325C10.11 13.7593 9.6225 14.7568 9 15.6568ZM10.755 11.1868H7.245C7.1775 10.6918 7.125 10.1968 7.125 9.68677C7.125 9.17677 7.1775 8.67427 7.245 8.18677H10.755C10.8225 8.67427 10.875 9.17677 10.875 9.68677C10.875 10.1968 10.8225 10.6918 10.755 11.1868ZM10.9425 15.3568C11.3925 14.5243 11.7375 13.6243 11.9775 12.6868H14.19C13.47 13.9243 12.3225 14.8843 10.9425 15.3568ZM12.27 11.1868C12.33 10.6918 12.375 10.1968 12.375 9.68677C12.375 9.17677 12.33 8.68177 12.27 8.18677H14.805C14.925 8.66677 15 9.16927 15 9.68677C15 10.2043 14.925 10.7068 14.805 11.1868H12.27Z" fill="#C6AA76"/>
</svg>
