<svg width="25" height="26" viewBox="0 0 25 26" fill="none" xmlns="http://www.w3.org/2000/svg">
<path d="M19.1581 0C19.5088 0 19.7982 0.264137 19.8376 0.60435L19.8422 0.684073V2.05264H21.8948C23.3605 2.05264 24.5572 3.20475 24.6282 4.65278L24.6317 4.78932V22.5791C24.6317 24.4186 23.1795 25.9191 21.3589 25.9968L21.2107 26H3.42093C1.58138 26 0.0808548 24.5478 0.00320722 22.7272L0 22.579V4.78928C0 3.32359 1.15211 2.12703 2.60014 2.05584L2.7369 2.05263H4.78952V0.684061C4.78952 0.306298 5.09581 1.1857e-05 5.47357 1.1857e-05C5.82453 1.1857e-05 6.11364 0.264149 6.15328 0.604361L6.15786 0.684085V2.05265H18.4736V0.684085C18.4736 0.306321 18.7799 3.53474e-05 19.1579 3.53474e-05L19.1581 0ZM23.2633 8.89429H1.36835V22.5788C1.36835 23.6314 2.16078 24.499 3.18157 24.6175L3.30047 24.6278L3.42097 24.6314H21.2107C22.3037 24.6314 23.1974 23.777 23.2597 22.6993L23.2634 22.5788L23.2633 8.89429ZM5.13168 19.8418C5.69844 19.8418 6.15799 20.3013 6.15799 20.8681C6.15799 21.4349 5.69844 21.8944 5.13168 21.8944C4.56492 21.8944 4.10537 21.4349 4.10537 20.8681C4.10537 20.3013 4.56492 19.8418 5.13168 19.8418ZM9.9212 19.8418C10.488 19.8418 10.9475 20.3013 10.9475 20.8681C10.9475 21.4349 10.488 21.8944 9.9212 21.8944C9.35421 21.8944 8.89489 21.4349 8.89489 20.8681C8.89489 20.3013 9.35421 19.8418 9.9212 19.8418ZM14.7105 19.8418C15.2775 19.8418 15.7368 20.3013 15.7368 20.8681C15.7368 21.4349 15.2775 21.8944 14.7105 21.8944C14.1437 21.8944 13.6842 21.4349 13.6842 20.8681C13.6842 20.3013 14.1437 19.8418 14.7105 19.8418ZM19.5 19.8418C20.0668 19.8418 20.5263 20.3013 20.5263 20.8681C20.5263 21.4349 20.0668 21.8944 19.5 21.8944C18.9332 21.8944 18.4737 21.4349 18.4737 20.8681C18.4737 20.3013 18.9332 19.8418 19.5 19.8418ZM5.13168 15.7365C5.69844 15.7365 6.15799 16.1961 6.15799 16.7629C6.15799 17.3296 5.69844 17.7892 5.13168 17.7892C4.56492 17.7892 4.10537 17.3296 4.10537 16.7629C4.10537 16.1961 4.56492 15.7365 5.13168 15.7365ZM9.9212 15.7365C10.488 15.7365 10.9475 16.1961 10.9475 16.7629C10.9475 17.3296 10.488 17.7892 9.9212 17.7892C9.35421 17.7892 8.89489 17.3296 8.89489 16.7629C8.89489 16.1961 9.35421 15.7365 9.9212 15.7365ZM14.7105 15.7365C15.2775 15.7365 15.7368 16.1961 15.7368 16.7629C15.7368 17.3296 15.2775 17.7892 14.7105 17.7892C14.1437 17.7892 13.6842 17.3296 13.6842 16.7629C13.6842 16.1961 14.1437 15.7365 14.7105 15.7365ZM19.5 15.7365C20.0668 15.7365 20.5263 16.1961 20.5263 16.7629C20.5263 17.3296 20.0668 17.7892 19.5 17.7892C18.9332 17.7892 18.4737 17.3296 18.4737 16.7629C18.4737 16.1961 18.9332 15.7365 19.5 15.7365ZM9.92132 11.6313C10.4881 11.6313 10.9476 12.0909 10.9476 12.6576C10.9476 13.2244 10.4881 13.6839 9.92132 13.6839C9.35433 13.6839 8.89501 13.2244 8.89501 12.6576C8.89501 12.0909 9.35433 11.6313 9.92132 11.6313ZM14.7106 11.6313C15.2776 11.6313 15.7369 12.0909 15.7369 12.6576C15.7369 13.2244 15.2776 13.6839 14.7106 13.6839C14.1438 13.6839 13.6843 13.2244 13.6843 12.6576C13.6843 12.0909 14.1438 11.6313 14.7106 11.6313ZM19.5001 11.6313C20.0669 11.6313 20.5264 12.0909 20.5264 12.6576C20.5264 13.2244 20.0669 13.6839 19.5001 13.6839C18.9334 13.6839 18.4738 13.2244 18.4738 12.6576C18.4738 12.0909 18.9334 11.6313 19.5001 11.6313ZM4.78989 3.42084H2.73727C2.01586 3.42084 1.42483 3.97912 1.37257 4.68724L1.36868 4.78919V7.52609H23.2637V4.78919C23.2637 4.10396 22.7597 3.53633 22.1024 3.43645L21.9973 3.42454L21.8951 3.42088H19.8425V4.78921C19.8425 5.1672 19.5362 5.47349 19.1584 5.47349C18.8075 5.47349 18.5184 5.20936 18.4787 4.86914L18.4741 4.78919V3.42086H6.15841V4.78919C6.15841 5.16718 5.85212 5.47348 5.47413 5.47348C5.1234 5.47348 4.83407 5.20934 4.79465 4.86913L4.79007 4.78917L4.78989 3.42084Z" fill="#3C3935"/>
</svg>
