<svg width="26" height="26" viewBox="0 0 26 26" fill="none" xmlns="http://www.w3.org/2000/svg">
<path d="M13 0C5.83192 0 0 5.83192 0 13C0 20.1681 5.83192 26 13 26C20.1681 26 26 20.1681 26 13C26 5.83192 20.1681 0 13 0ZM13 24.6316C6.5865 24.6316 1.36842 19.4135 1.36842 13C1.36842 6.5865 6.5865 1.36842 13 1.36842C19.4135 1.36842 24.6316 6.5865 24.6316 13C24.6316 19.4135 19.4135 24.6316 13 24.6316Z" fill="#3C3935"/>
<path d="M13.6839 12.7163V5.24525C13.6839 4.86725 13.3776 4.56104 12.9996 4.56104C12.6216 4.56104 12.3154 4.86725 12.3154 5.24525V12.9993C12.3154 13.1809 12.3874 13.3548 12.5159 13.4831L16.6211 17.5883C16.7546 17.722 16.9298 17.7888 17.1049 17.7888C17.28 17.7888 17.4552 17.722 17.5887 17.5883C17.8559 17.3211 17.8559 16.8881 17.5887 16.6208L13.6839 12.7163Z" fill="#3C3935"/>
</svg>
