<svg width="14" height="14" viewBox="0 0 14 14" fill="none" xmlns="http://www.w3.org/2000/svg">
<path d="M5.355 1.762V0.2C4.86378 0.329395 4.39025 0.51847 3.945 0.763L5.07 1.883C5.17 1.846 5.258 1.801 5.355 1.763V1.762ZM12.855 6C12.8548 5.21285 12.6982 4.43359 12.3943 3.70745C12.0905 2.98131 11.6454 2.32275 11.085 1.77L12.855 0H8.355V4.5L10.04 2.82C10.8823 3.66392 11.3553 4.80765 11.355 6C11.353 6.61507 11.2229 7.22299 10.973 7.785L12.098 8.91C12.5957 8.02096 12.8564 7.01886 12.855 6ZM1.057 0L0 1.057L1.77 2.827C1.04843 3.97341 0.739855 5.33181 0.895331 6.67745C1.05081 8.0231 1.66102 9.27534 2.625 10.227L0.855 12H5.355V7.5L3.675 9.18C2.99711 8.5044 2.5529 7.62982 2.40718 6.68392C2.26146 5.73801 2.42187 4.7703 2.865 3.922L8.925 9.982C8.73997 10.0777 8.54967 10.1628 8.355 10.237V11.805C8.94489 11.6491 9.50837 11.4064 10.027 11.085L11.962 13.02L13.019 11.963L1.057 0Z" fill="#7B5B3E"/>
</svg>
