<svg width="25" height="24" viewBox="0 0 25 24" fill="none" xmlns="http://www.w3.org/2000/svg">
<path d="M9.80497 19.5955C11.9975 19.5976 14.1268 18.8601 15.8485 17.5028L22.3465 24.0007L24.0081 22.3391L17.5101 15.8412C19.3464 13.4975 20.0178 10.4463 19.334 7.54868C18.6506 4.65089 16.6867 2.22108 13.9966 0.945259C11.3065 -0.330565 8.18237 -0.314189 5.50601 0.990093C2.82965 2.2944 0.891347 4.74464 0.238528 7.64929C-0.414298 10.5542 0.289103 13.5983 2.14995 15.9222C4.01085 18.2462 6.82774 19.5978 9.8049 19.5956L9.80497 19.5955ZM9.80497 2.35119C11.7799 2.35119 13.6741 3.13579 15.0705 4.5322C16.4669 5.9286 17.2515 7.8226 17.2515 9.79744C17.2515 11.7723 16.4669 13.6666 15.0705 15.063C13.6741 16.4594 11.7798 17.244 9.80497 17.244C7.83014 17.244 5.93614 16.4594 4.53973 15.063C3.14332 13.6666 2.35872 11.7723 2.35872 9.79744C2.35872 7.8226 3.14332 5.9286 4.53973 4.5322C5.93614 3.13579 7.83014 2.35119 9.80497 2.35119Z" fill="#7B5B3E"/>
</svg>
