<svg width="50" height="50" viewBox="0 0 50 50" fill="none" xmlns="http://www.w3.org/2000/svg">
<path fill-rule="evenodd" clip-rule="evenodd" d="M50 25L40.1856 34.814L36.1836 38.8178L35.0996 39.8999L24.9991 50L17.1399 42.1392L21.1438 38.1373L24.9991 41.9925L30.705 36.2849L32.1797 34.814L36.1836 30.8085L41.9941 25L38.6688 21.6767L24.9991 8.00748L8.00595 25L10.4967 27.487L6.49096 31.4926L0 25L24.9991 0L50 25Z" fill="#C6AA76"/>
<path d="M20.7402 29.76C20.7402 29.6533 20.7735 29.56 20.8402 29.48L25.7402 23.24C26.0468 22.8533 26.2802 22.4733 26.4402 22.1C26.6135 21.7133 26.7002 21.3067 26.7002 20.88C26.7002 20.2667 26.5068 19.76 26.1202 19.36C25.7468 18.9467 25.2268 18.74 24.5602 18.74C23.9068 18.74 23.4002 18.92 23.0402 19.28C22.6802 19.64 22.4468 20.1267 22.3402 20.74C22.3135 20.8733 22.2402 20.9267 22.1202 20.9L20.9002 20.64C20.7802 20.6 20.7268 20.52 20.7402 20.4C20.7802 20 20.8935 19.6067 21.0802 19.22C21.2668 18.8333 21.5202 18.4933 21.8402 18.2C22.1602 17.8933 22.5468 17.6467 23.0002 17.46C23.4668 17.2733 24.0002 17.18 24.6002 17.18C25.2002 17.18 25.7335 17.2733 26.2002 17.46C26.6668 17.6467 27.0668 17.9067 27.4002 18.24C27.7335 18.5733 27.9868 18.9667 28.1602 19.42C28.3335 19.8733 28.4202 20.36 28.4202 20.88C28.4202 21.4933 28.3002 22.06 28.0602 22.58C27.8335 23.1 27.5135 23.62 27.1002 24.14L22.9002 29.42V29.44H28.2202C28.3535 29.44 28.4202 29.5067 28.4202 29.64V30.8C28.4202 30.9333 28.3535 31 28.2202 31H20.9402C20.8068 31 20.7402 30.9333 20.7402 30.8V29.76Z" fill="#C6AA76"/>
</svg>
