<svg width="50" height="50" viewBox="0 0 50 50" fill="none" xmlns="http://www.w3.org/2000/svg">
<path fill-rule="evenodd" clip-rule="evenodd" d="M50 25L40.1856 34.814L36.1836 38.8178L35.0996 39.8999L24.9991 50L17.1399 42.1392L21.1438 38.1373L24.9991 41.9925L30.705 36.2849L32.1797 34.814L36.1836 30.8085L41.9941 25L38.6688 21.6767L24.9991 8.00748L8.00595 25L10.4967 27.487L6.49096 31.4926L0 25L24.9991 0L50 25Z" fill="#C6AA76"/>
<path d="M24.0402 19.52H24.0002L21.7402 21.1C21.5935 21.1933 21.5202 21.1533 21.5202 20.98V19.5C21.5202 19.3933 21.5668 19.3 21.6602 19.22L24.0002 17.52C24.0935 17.44 24.2002 17.4 24.3202 17.4H25.5202C25.6535 17.4 25.7202 17.4667 25.7202 17.6V30.8C25.7202 30.9333 25.6535 31 25.5202 31H24.2402C24.1068 31 24.0402 30.9333 24.0402 30.8V19.52Z" fill="#C6AA76"/>
</svg>
