<svg width="42" height="43" viewBox="0 0 42 43" fill="none" xmlns="http://www.w3.org/2000/svg">
<g clip-path="url(#clip0_405_1177)">
<path fill-rule="evenodd" clip-rule="evenodd" d="M41.4559 21.7263C41.4559 32.866 32.4244 41.8976 21.2857 41.8976C10.1448 41.8976 1.11328 32.866 1.11328 21.7263C1.11328 10.5853 10.1448 1.55493 21.2857 1.55493C32.4244 1.55493 41.4559 10.5853 41.4559 21.7263Z" fill="#C6AA76"/>
<path fill-rule="evenodd" clip-rule="evenodd" d="M32.4299 14.8144C31.731 15.1302 30.9579 15.3218 30.2054 15.4484C30.5634 15.3891 31.089 14.7414 31.2988 14.4792C31.6204 14.079 31.8872 13.624 32.0377 13.1326C32.0559 13.0938 32.0708 13.046 32.0331 13.0163C31.9841 12.9969 31.9522 13.0072 31.9146 13.0266C31.0731 13.4769 30.2031 13.8042 29.2773 14.0356C29.1997 14.055 29.1427 14.0356 29.0937 13.9878C29.0184 13.9011 28.9466 13.819 28.8634 13.7517C28.4757 13.4199 28.0573 13.1611 27.5863 12.9684C26.9672 12.7164 26.2922 12.6104 25.6263 12.6537C24.9787 12.6959 24.3425 12.8783 23.7678 13.1782C23.1909 13.4792 22.6778 13.8977 22.2673 14.4039C21.8443 14.9261 21.5319 15.543 21.3711 16.1975C21.2172 16.8291 21.2297 17.454 21.3244 18.0914C21.3392 18.1974 21.3289 18.2122 21.2331 18.1974C17.6096 17.6581 14.6063 16.3628 12.1697 13.5841C12.0636 13.4633 12.0055 13.4633 11.9188 13.5933C10.8516 15.193 11.3704 17.7618 12.7033 19.024C12.8812 19.1928 13.0636 19.3604 13.2597 19.5143C13.1879 19.5291 12.3008 19.4322 11.5118 19.024C11.4046 18.9568 11.3521 18.9955 11.3419 19.1153C11.3328 19.2886 11.3476 19.4471 11.3715 19.6352C11.5756 21.2554 12.6987 22.7548 14.2357 23.3397C14.4181 23.4172 14.62 23.4845 14.8172 23.5176C14.466 23.594 14.1057 23.6498 13.1012 23.57C12.9769 23.5461 12.929 23.6088 12.9769 23.7285C13.7317 25.7866 15.3611 26.3989 16.5811 26.7466C16.743 26.7763 16.9072 26.7763 17.0714 26.8139C17.0611 26.8287 17.052 26.8287 17.0418 26.8424C16.6381 27.4604 15.2345 27.9199 14.5812 28.1479C13.392 28.563 12.0978 28.75 10.8425 28.6257C10.6418 28.5972 10.5996 28.5983 10.5449 28.6257C10.489 28.6599 10.538 28.7089 10.603 28.7602C10.8573 28.929 11.1161 29.0772 11.3806 29.222C12.1788 29.645 13.01 29.9814 13.88 30.222C18.3701 31.4625 23.4292 30.5503 26.8019 27.2004C29.4494 24.5688 30.3764 20.9407 30.3764 17.308C30.3764 17.1666 30.5452 17.088 30.6455 17.0127C31.3342 16.4951 31.8906 15.8759 32.4037 15.1838C32.5189 15.0288 32.52 14.8908 32.52 14.8338C32.52 14.8235 32.52 14.8144 32.52 14.8144C32.52 14.7563 32.5189 14.7745 32.4299 14.8144Z" fill="#FFFFFE"/>
</g>
<defs>
<clipPath id="clip0_405_1177">
<rect width="41.0473" height="42.1875" fill="white" transform="translate(0.5 0.4375)"/>
</clipPath>
</defs>
</svg>
