<svg width="29" height="26" viewBox="0 0 29 26" fill="none" xmlns="http://www.w3.org/2000/svg">
<path d="M14.4889 0C28.0303 0 34.0075 16.8103 24.0148 25.4953L23.6412 25.7754L23.4544 25.3085C22.3337 22.6935 20.1857 20.7323 17.3843 19.8919L16.6372 19.6118L17.3843 19.2382C22.2407 16.3431 20.186 8.77833 14.4892 8.77833C8.79237 8.77833 6.83108 16.343 11.6874 19.2382L12.3412 19.6118L11.5941 19.8919C8.88586 20.7325 6.6443 22.6937 5.52398 25.3085L5.33718 25.7754L4.96356 25.4953C-5.02909 16.7164 1.04111 0 14.4895 0H14.4889ZM14.4889 0.747032C1.88142 0.747032 -3.90888 16.1562 5.05642 24.5614C6.27041 22.2265 8.23161 20.3588 10.6599 19.4251C5.89689 15.8763 8.41853 8.12484 14.4888 8.12484C20.6524 8.12484 23.0808 15.8764 18.3178 19.4251C20.7459 20.359 22.8005 22.2269 23.9212 24.5614C32.9799 16.1562 27.0964 0.747032 14.4887 0.747032H14.4889Z" fill="#3C3935"/>
</svg>
