<svg width="195" height="60" viewBox="0 0 195 60" fill="none" xmlns="http://www.w3.org/2000/svg">
<path fill-rule="evenodd" clip-rule="evenodd" d="M5.30039 43.2656L2.61499 38.4201H2.53201V43.2656H0.699219V35.5691H2.74672L5.43108 40.3598H5.51406V35.5691H7.34789V43.2656H5.30039Z" fill="#3C3935"/>
<path fill-rule="evenodd" clip-rule="evenodd" d="M10.9688 40.4461H12.8441L11.9563 37.6468H11.8785L10.9688 40.4461ZM8.03137 43.2661L10.9273 35.5437L12.9541 35.5685L15.8137 43.2661H13.7517L13.3067 41.8975L10.5529 41.8716L10.0249 43.292L8.03137 43.2661Z" fill="#3C3935"/>
<path fill-rule="evenodd" clip-rule="evenodd" d="M17.3157 43.2656V37.2336H14.9902V35.5691H21.5953V37.2336H19.2688V43.2656H17.3157Z" fill="#3C3935"/>
<path fill-rule="evenodd" clip-rule="evenodd" d="M22.568 43.2644H24.5211V35.5679H22.568V43.2644Z" fill="#3C3935"/>
<path fill-rule="evenodd" clip-rule="evenodd" d="M29.5154 37.0698C29.197 37.0698 28.9159 37.136 28.6773 37.2642C28.4398 37.3946 28.2437 37.5735 28.0965 37.7949C27.9492 38.0153 27.8403 38.2687 27.7687 38.548C27.7002 38.8242 27.665 39.117 27.665 39.417C27.665 39.716 27.7002 40.0087 27.7687 40.287C27.8403 40.5663 27.9492 40.8198 28.0965 41.0391C28.2437 41.2615 28.4398 41.4384 28.6773 41.5687C28.9148 41.698 29.1959 41.7642 29.5154 41.7642C29.8349 41.7642 30.1159 41.698 30.3535 41.5677C30.59 41.4384 30.786 41.2615 30.9333 41.0391C31.0806 40.8187 31.1916 40.5653 31.2611 40.287C31.3316 40.0077 31.3658 39.7149 31.3658 39.417C31.3658 39.118 31.3316 38.8253 31.2611 38.548C31.1916 38.2687 31.0816 38.0163 30.9343 37.7949C30.786 37.5725 30.59 37.3946 30.3535 37.2642C30.1149 37.136 29.8328 37.0698 29.5154 37.0698ZM29.5154 43.4287C28.9262 43.4287 28.3879 43.3263 27.9149 43.1225C27.443 42.9187 27.0374 42.6301 26.7117 42.266C26.384 41.9008 26.133 41.4704 25.966 40.9884C25.7969 40.5042 25.7108 39.9756 25.7108 39.417C25.7108 38.8573 25.7969 38.3287 25.966 37.8456C26.134 37.3615 26.385 36.9311 26.7117 36.568C27.0364 36.2039 27.4409 35.9163 27.9149 35.7125C28.3879 35.5087 28.9262 35.4053 29.5154 35.4053C30.1035 35.4053 30.6429 35.5087 31.1158 35.7125C31.5888 35.9163 31.9944 36.2039 32.319 36.568C32.6458 36.9322 32.8968 37.3615 33.0658 37.8456C33.2339 38.3287 33.3189 38.8584 33.3189 39.417C33.3189 39.9756 33.2339 40.5042 33.0658 40.9884C32.8978 41.4704 32.6468 41.9008 32.319 42.266C31.9933 42.6301 31.5878 42.9187 31.1158 43.1225C30.6429 43.3263 30.1035 43.4287 29.5154 43.4287Z" fill="#3C3935"/>
<path fill-rule="evenodd" clip-rule="evenodd" d="M39.0794 43.2656L36.394 38.4201H36.311V43.2656H34.4772V35.5691H36.5247L39.209 40.3598H39.293V35.5691H41.1269V43.2656H39.0794Z" fill="#3C3935"/>
<path fill-rule="evenodd" clip-rule="evenodd" d="M44.7467 40.4461H46.622L45.7352 37.6468H45.6564L44.7467 40.4461ZM41.8103 43.2661L44.7052 35.5437L46.733 35.5685L49.5916 43.2661H47.5296L47.0857 41.8975L44.3308 41.8716L43.8028 43.292L41.8103 43.2661Z" fill="#3C3935"/>
<path fill-rule="evenodd" clip-rule="evenodd" d="M50.2753 43.2656V35.5691H52.2284V41.6001H55.8649V43.2656H50.2753Z" fill="#3C3935"/>
<path fill-rule="evenodd" clip-rule="evenodd" d="M61.6523 41.6002H62.6512C63.4302 41.5857 63.9965 41.4067 64.3325 41.0664C64.6707 40.726 64.8408 40.1571 64.8408 39.3729C64.8408 38.6695 64.651 38.1305 64.2776 37.7726C63.9042 37.4157 63.3575 37.2336 62.6512 37.2336H61.6523V41.6002ZM59.6992 43.2657V35.5681H63.0121C64.1894 35.5681 65.124 35.9095 65.7899 36.5798C66.4568 37.2533 66.7939 38.1947 66.7939 39.3843C66.7939 40.6309 66.4589 41.6002 65.795 42.2654C65.1323 42.9295 64.1967 43.2657 63.0121 43.2657H59.6992Z" fill="#3C3935"/>
<path fill-rule="evenodd" clip-rule="evenodd" d="M67.9852 43.2656V35.5691H74.1194V37.1136H69.9383V38.5525H73.7595V40.0422H69.9383V41.6001H74.2283V43.2656H67.9852Z" fill="#3C3935"/>
<path fill-rule="evenodd" clip-rule="evenodd" d="M77.0631 43.2656L74.6588 35.569H76.7239L78.2228 41.3497H78.2746L79.8408 35.54L81.8686 35.569L79.371 43.2656H77.0631Z" fill="#3C3935"/>
<path fill-rule="evenodd" clip-rule="evenodd" d="M82.538 43.2656V35.5691H88.6732V37.1136H84.4911V38.5525H88.3122V40.0422H84.4911V41.6001H88.7821V43.2656H82.538Z" fill="#3C3935"/>
<path fill-rule="evenodd" clip-rule="evenodd" d="M90.0162 43.2656V35.5691H91.9693V41.6001H95.6059V43.2656H90.0162Z" fill="#3C3935"/>
<path fill-rule="evenodd" clip-rule="evenodd" d="M100.196 37.0698C99.8778 37.0698 99.5978 37.136 99.3592 37.2642C99.1217 37.3946 98.9256 37.5735 98.7773 37.7949C98.63 38.0153 98.5201 38.2687 98.4506 38.548C98.3811 38.8242 98.3448 39.117 98.3448 39.417C98.3448 39.716 98.3811 40.0087 98.4506 40.287C98.5211 40.5663 98.63 40.8198 98.7773 41.0391C98.9256 41.2615 99.1217 41.4384 99.3592 41.5687C99.5957 41.698 99.8768 41.7642 100.196 41.7642C100.517 41.7642 100.798 41.698 101.035 41.5677C101.272 41.4384 101.468 41.2615 101.615 41.0391C101.762 40.8187 101.872 40.5653 101.943 40.287C102.012 40.0077 102.048 39.7149 102.048 39.417C102.048 39.118 102.012 38.8253 101.943 38.548C101.872 38.2687 101.763 38.0163 101.616 37.7949C101.468 37.5725 101.272 37.3946 101.034 37.2642C100.797 37.136 100.515 37.0698 100.196 37.0698ZM100.196 43.4287C99.6081 43.4287 99.0698 43.3263 98.5968 43.1225C98.1249 42.9187 97.7183 42.6301 97.3936 42.266C97.0659 41.9008 96.8138 41.4704 96.6468 40.9884C96.4778 40.5042 96.3927 39.9756 96.3927 39.417C96.3927 38.8573 96.4778 38.3287 96.6468 37.8456C96.8149 37.3615 97.0669 36.9311 97.3936 36.568C97.7162 36.2039 98.1228 35.9163 98.5968 35.7125C99.0698 35.5087 99.6081 35.4053 100.196 35.4053C100.784 35.4053 101.325 35.5087 101.798 35.7125C102.27 35.9163 102.676 36.2039 103.001 36.568C103.327 36.9322 103.579 37.3615 103.747 37.8456C103.916 38.3287 104.001 38.8584 104.001 39.417C104.001 39.9756 103.916 40.5042 103.747 40.9884C103.579 41.4704 103.328 41.9008 103.001 42.266C102.675 42.6301 102.269 42.9187 101.798 43.1225C101.325 43.3263 100.784 43.4287 100.196 43.4287Z" fill="#3C3935"/>
<path fill-rule="evenodd" clip-rule="evenodd" d="M107.134 39.1836H108.537C108.88 39.1836 109.155 39.1029 109.358 38.9467C109.564 38.7864 109.668 38.5278 109.668 38.175C109.668 37.8171 109.563 37.5471 109.355 37.3733C109.146 37.2005 108.872 37.1136 108.537 37.1136H107.134V39.1836ZM105.181 43.2657V35.5681H108.843C109.219 35.5681 109.575 35.6136 109.908 35.7026C110.24 35.7926 110.537 35.9364 110.789 36.1319C111.043 36.3274 111.246 36.586 111.395 36.9016C111.545 37.2192 111.621 37.5998 111.621 38.0343C111.621 38.9467 111.378 39.6233 110.898 40.0412C110.417 40.4612 109.725 40.6743 108.843 40.6743H107.134V43.2657H105.181Z" fill="#3C3935"/>
<path fill-rule="evenodd" clip-rule="evenodd" d="M116.201 43.2656L114.594 37.3638H114.504V43.2656H112.67V35.569H115.622L116.935 40.7518H116.988L118.367 35.54L121.283 35.569V43.2656H119.45V37.3638H119.382L119.352 37.3918L117.715 43.2935L116.201 43.2656Z" fill="#3C3935"/>
<path fill-rule="evenodd" clip-rule="evenodd" d="M122.769 43.2656V35.5691H128.903V37.1136H124.722V38.5525H128.544V40.0422H124.722V41.6001H129.012V43.2656H122.769Z" fill="#3C3935"/>
<path fill-rule="evenodd" clip-rule="evenodd" d="M134.827 43.2656L132.142 38.4201H132.059V43.2656H130.226V35.5691H132.272L134.957 40.3598H135.04V35.5691H136.875V43.2656H134.827Z" fill="#3C3935"/>
<path fill-rule="evenodd" clip-rule="evenodd" d="M140.16 43.2656V37.2336H137.835V35.5691H144.44V37.2336H142.113V43.2656H140.16Z" fill="#3C3935"/>
<path fill-rule="evenodd" clip-rule="evenodd" d="M114.494 57.8408V50.1443H120.16V51.6898H116.447V53.3564H119.657V54.847H116.447V57.8408H114.494Z" fill="#3C3935"/>
<path fill-rule="evenodd" clip-rule="evenodd" d="M124.467 58.0043C123.319 58.0043 122.462 57.7281 121.924 57.1829C121.383 56.6377 121.11 55.7905 121.11 54.6681V50.1443H123.062V54.786C123.062 55.3095 123.173 55.7026 123.389 55.956C123.607 56.2095 123.97 56.3388 124.467 56.3388C124.964 56.3388 125.327 56.2095 125.544 55.956C125.76 55.7026 125.87 55.3095 125.87 54.786V50.1443H127.823V54.6681C127.823 55.7905 127.55 56.6367 127.01 57.1829C126.47 57.7281 125.614 58.0043 124.467 58.0043Z" fill="#3C3935"/>
<path fill-rule="evenodd" clip-rule="evenodd" d="M133.833 57.8408L131.149 52.9964H131.065V57.8408H129.232V50.1443H131.279L133.964 54.935H134.046V50.1443H135.881V57.8408H133.833Z" fill="#3C3935"/>
<path fill-rule="evenodd" clip-rule="evenodd" d="M139.297 56.1759H140.297C141.075 56.1614 141.641 55.9824 141.978 55.641C142.315 55.3017 142.486 54.7317 142.486 53.9486C142.486 53.2452 142.297 52.7062 141.923 52.3472C141.549 51.9893 141.003 51.8093 140.297 51.8093H139.297V56.1759ZM137.344 57.8403V50.1438H140.657C141.834 50.1438 142.769 50.4841 143.435 51.1555C144.102 51.8279 144.439 52.7703 144.439 53.96C144.439 55.2066 144.104 56.1759 143.44 56.841C142.778 57.5041 141.841 57.8403 140.657 57.8403H137.344Z" fill="#3C3935"/>
<path fill-rule="evenodd" clip-rule="evenodd" d="M142.483 26.9217H144.44V18.4741H142.483V26.9217Z" fill="#3C3935"/>
<path fill-rule="evenodd" clip-rule="evenodd" d="M75.1962 18.1162L74.0978 19.2117L75.1962 20.3052L76.0716 19.4331L76.945 20.3052L78.0424 19.2117L76.945 18.1162L76.0716 18.9883L75.1962 18.1162Z" fill="#3C3935"/>
<path fill-rule="evenodd" clip-rule="evenodd" d="M91.1032 29.98L92.2016 28.8845L91.1032 27.791L90.2288 28.6631L89.3554 27.791L88.2581 28.8845L89.3554 29.98L90.2288 29.1079L91.1032 29.98Z" fill="#3C3935"/>
<path fill-rule="evenodd" clip-rule="evenodd" d="M130.6 19.2254L131.475 20.0975L132.572 19.002L131.475 17.9075L130.6 18.7795L129.726 17.9075L128.628 19.002L129.726 20.0975L130.6 19.2254Z" fill="#3C3935"/>
<path fill-rule="evenodd" clip-rule="evenodd" d="M119.011 20.0972L120.11 19.0017L119.011 17.9072L117.913 19.0017L119.011 20.0972Z" fill="#3C3935"/>
<path fill-rule="evenodd" clip-rule="evenodd" d="M104.513 25.0834H106.033V22.8252H104.513V25.0834ZM138.456 18.4741V20.359H139.183V25.0834H138.456H137.648H133.602H133.245H133.107H132.799H131.635V21.0841H129.711V25.0834H128.434H128.094H127.987H127.632H121.137H120.635H119.942V20.9869H117.984V25.0834H117.127H116.68H116.624H116.324H109.041H108.572H107.797V20.9869H102.817V25.0834H101.975H95.1931H95.1537H94.8363H92.7525H92.2505H91.3294V20.9869H89.34V25.0834H88.2416H87.7063H81.3637H79.9281H79.8534H79.5724H79.1263H78.5289H76.8299H76.276H75.3104V22.8252H76.8299V24.6014H78.5289V20.9869H73.5481V26.9217H79.1263H79.5724H79.8534H79.9281H87.7063H88.2416H92.2505H92.7525H94.8363H95.1537H95.1931H101.975H108.572H109.041H116.324H116.624H116.68H117.127H120.635H121.137H127.632H127.987H128.094H128.434H132.799H133.107H133.245H133.602H137.648H138.456H141.157V18.4741H139.183H138.456Z" fill="#3C3935"/>
<path fill-rule="evenodd" clip-rule="evenodd" d="M39.7185 18.4744H37.7955V24.6006H39.7185V23.7606H47.8494V25.0826H41.5886H39.7185H37.7955H37.2115H36.5H31.9154H31.5586H29.4737H28.9717H28.2768V20.9871H26.3205V25.0826H25.4638H24.9607H22.8769H22.5201H16.9688H16.0789H15.3829V20.9871H10.3388V25.0826H2.59071V22.8709H3.31781V20.9871H2.59071H0.699829V26.9219H12.2474V22.9547H13.492V26.9219H16.0789H16.9688H22.5201H22.8769H24.9607H25.4638H28.9717H29.4737H31.5586H31.9154H36.5H37.2115H49.7091V21.8251H39.7185V18.4744Z" fill="#3C3935"/>
<path fill-rule="evenodd" clip-rule="evenodd" d="M66.806 26.9217H68.7633V18.4741H66.806V26.9217Z" fill="#3C3935"/>
<path fill-rule="evenodd" clip-rule="evenodd" d="M7.23918 28.4297L6.36479 27.5576L5.26843 28.6521L6.36479 29.7466L7.23918 28.8755L8.11357 29.7466L9.20992 28.6521L8.11357 27.5576L7.23918 28.4297Z" fill="#3C3935"/>
<path fill-rule="evenodd" clip-rule="evenodd" d="M28.4458 19.0027L27.3473 17.9072L26.251 19.0027L27.3473 20.0972L28.4458 19.0027Z" fill="#3C3935"/>
<path fill-rule="evenodd" clip-rule="evenodd" d="M52.8947 25.0829V22.9219H54.4153L54.4298 25.0829H52.8947ZM62.7795 18.4746V20.3584H63.5066V25.0829H62.7795H61.9715H61.6904H59.0662H57.6805H56.7926H56.4047V20.9874H51.0349V26.9212H54.4153V28.3084H51.0349V30.1467H56.4047V26.9212H56.7926H57.6805H59.0662H61.6904H61.9715H62.7795H65.4794V18.4746H63.5066H62.7795Z" fill="#3C3935"/>
<path fill-rule="evenodd" clip-rule="evenodd" d="M101.158 6.34644H96.1787V9.95988H97.8113V8.18471H99.3309V10.443H98.2542H97.8113H96.1787L87.439 10.4585V8.23126H88.1277V6.34644H87.439H87.3996H85.4496V12.2968L101.158 12.2813V6.34644Z" fill="#3C3935"/>
<path fill-rule="evenodd" clip-rule="evenodd" d="M104.312 10.4424V8.28141H105.832L105.847 10.4424H104.312ZM107.821 6.34692H102.452V12.2807H105.832V13.668H102.452V15.5062H107.821V6.34692Z" fill="#3C3935"/>
<path fill-rule="evenodd" clip-rule="evenodd" d="M134.555 7.1851V6.34717H132.695V9.96062H134.555V9.12062H142.579V10.4427H137.098H134.555H132.695H132.011H131.708H131.337H129.122H128.766H125.61H125.11H124.414V6.34717H122.457V10.4427H121.988H116.816H116.365V6.42786H108.952V8.26613H114.521V10.4427H108.952V12.281H116.816H121.988H125.11H125.61H128.766H129.122H131.337H131.708H144.438V7.1851H134.555Z" fill="#3C3935"/>
<path fill-rule="evenodd" clip-rule="evenodd" d="M124.582 4.36182L123.484 3.26733L122.386 4.36182L123.484 5.45733L124.582 4.36182Z" fill="#3C3935"/>
<path fill-rule="evenodd" clip-rule="evenodd" d="M98.8014 4.58472L99.6758 5.45679L100.772 4.36231L99.6758 3.26782L98.8014 4.13886L97.927 3.26782L96.8307 4.36231L97.927 5.45679L98.8014 4.58472Z" fill="#3C3935"/>
<path fill-rule="evenodd" clip-rule="evenodd" d="M188.351 14.101L182.801 19.6366L180.538 21.8948L179.925 22.5052L174.212 28.2021L169.768 23.7683L172.032 21.511L174.212 23.6855L177.439 20.4662L178.273 19.6366L180.538 17.3772L183.823 14.101L181.943 12.2266L174.212 4.51655L164.602 14.101L166.011 15.5038L163.746 17.7631L160.075 14.101L174.212 0L188.351 14.101Z" fill="#3C3935"/>
<path fill-rule="evenodd" clip-rule="evenodd" d="M167.89 17.3789L168.558 16.7127L168.556 16.7116L174.213 11.0696L178.659 15.5044L176.393 17.7616L174.213 15.5872L171.209 18.583L170.153 19.6361L167.889 21.8944L164.603 25.1716L166.485 27.0451L174.213 34.7551L183.822 25.1716L182.416 23.7689L184.681 21.5106L188.351 25.1716L174.213 39.2716L160.075 25.1716L163.495 21.7599L163.496 21.761L165.626 19.6372L167.89 17.3789Z" fill="#3C3935"/>
<path fill-rule="evenodd" clip-rule="evenodd" d="M183.212 54.7656L178.359 49.9253L176.095 52.1846L180.898 56.9743L183.25 59.3205L187.193 55.3874L184.929 53.1291L183.212 54.7656Z" fill="#3C3935"/>
<path fill-rule="evenodd" clip-rule="evenodd" d="M172.329 43.9186L158.943 30.5686H154.413L170.063 46.1769L172.329 43.9186Z" fill="#3C3935"/>
<path fill-rule="evenodd" clip-rule="evenodd" d="M176.47 48.0409L194.012 30.5447H189.482L175.634 44.3561L171.941 48.0502L165.207 54.7671L163.482 53.1212L161.218 55.3805L165.169 59.3209L167.52 56.9757H167.521L174.209 50.3033L176.474 48.045L176.47 48.0409Z" fill="#3C3935"/>
</svg>
