<?xml version="1.0" standalone="no"?>
<!DOCTYPE svg PUBLIC "-//W3C//DTD SVG 20010904//EN"
 "http://www.w3.org/TR/2001/REC-SVG-20010904/DTD/svg10.dtd">
<svg version="1.0" xmlns="http://www.w3.org/2000/svg"
 width="700.000000pt" height="700.000000pt" viewBox="0 0 700.000000 700.000000"
 preserveAspectRatio="xMidYMid meet">
<metadata>
Created by potrace 1.14, written by Peter Selinger 2001-2017
</metadata>
<g transform="translate(0.000000,700.000000) scale(0.100000,-0.100000)"
fill="#000000" stroke="none">
<path d="M2812 5672 l-674 -667 176 -175 176 -175 107 107 108 108 -65 65 -65
65 450 450 c248 248 454 450 458 450 4 0 210 -201 458 -447 l450 -447 -452
-452 -452 -452 -104 96 c-57 53 -107 98 -111 100 -4 1 -54 -45 -112 -103
l-105 -105 213 -213 212 -212 670 670 670 670 -667 667 -668 668 -673 -668z"/>
<path d="M2807 4622 l-668 -668 667 -659 c367 -363 672 -661 678 -663 6 -1
309 296 674 660 l662 663 -175 175 -175 175 -107 -107 -108 -108 68 -68 68
-69 -451 -444 c-249 -244 -455 -445 -458 -447 -4 -1 -210 200 -457 448 l-450
450 452 452 453 453 105 -105 105 -105 107 108 108 107 -210 210 c-115 115
-212 210 -215 210 -3 0 -306 -301 -673 -668z"/>
<path d="M2347 2708 l743 -743 107 108 108 107 -635 635 -635 635 -215 0 -215
0 742 -742z"/>
<path d="M3778 2303 l-1148 -1148 -80 80 -80 80 -110 -110 -110 -110 182 -182
c101 -101 187 -183 193 -183 5 0 622 612 1370 1360 l1360 1360 -215 0 -215 0
-1147 -1147z"/>
<path d="M3760 1504 l-105 -106 339 -334 c186 -184 342 -334 345 -334 3 0 88
82 189 183 l182 182 -109 109 -110 109 -78 -76 -79 -76 -224 224 c-124 124
-229 225 -235 225 -6 0 -58 -48 -115 -106z"/>
</g>
</svg>
