<svg xmlns="http://www.w3.org/2000/svg" width="577.043" height="179.93" viewBox="0 0 577.043 179.93">
  <g id="Error_404_illustration" data-name="Error 404 illustration" transform="translate(-671.479 -378.518)">
    <g id="cone" transform="translate(701.002 378.518)">
      <g id="Group_3551" data-name="Group 3551" transform="translate(56.325 61.575)">
        <g id="Group_3550" data-name="Group 3550">
          <path id="Path_3921" data-name="Path 3921" d="M155.728,112H99.9L89.346,147.185h76.938Z" transform="translate(-89.346 -112)" fill="#f99e4d"/>
        </g>
      </g>
      <g id="Group_3553" data-name="Group 3553" transform="translate(74.797)">
        <g id="Group_3552" data-name="Group 3552">
          <path id="Path_3922" data-name="Path 3922" d="M154.264,6.269A8.8,8.8,0,0,0,145.839,0h-5.792a8.8,8.8,0,0,0-8.425,6.269l-8.675,28.917H162.94Z" transform="translate(-122.946)" fill="#f99e4d"/>
        </g>
      </g>
      <g id="Group_3555" data-name="Group 3555" transform="translate(16.002 123.149)">
        <g id="Group_3554" data-name="Group 3554">
          <path id="Path_3923" data-name="Path 3923" d="M151.735,259.185,141.18,224H48.407L37.852,259.185H16V276.78H174.337V259.185Z" transform="translate(-16.002 -224)" fill="#f99e4d"/>
        </g>
      </g>
    </g>
    <g id="Group_3556" data-name="Group 3556" transform="translate(112.979 -47.053)">
      <line id="Line_815" data-name="Line 815" x2="85.726" transform="translate(562.5 601.5)" fill="none" stroke="#55565a" stroke-linecap="round" stroke-width="8"/>
      <line id="Line_816" data-name="Line 816" x2="40.646" transform="translate(657.094 601.5)" fill="none" stroke="#55565a" stroke-linecap="round" stroke-width="8"/>
      <line id="Line_817" data-name="Line 817" x2="59.121" transform="translate(706.608 601.5)" fill="none" stroke="#55565a" stroke-linecap="round" stroke-width="8"/>
      <line id="Line_818" data-name="Line 818" x2="22.91" transform="translate(774.598 601.5)" fill="none" stroke="#55565a" stroke-linecap="round" stroke-width="8"/>
      <line id="Line_819" data-name="Line 819" x2="104.201" transform="translate(806.376 601.5)" fill="none" stroke="#55565a" stroke-linecap="round" stroke-width="8"/>
      <line id="Line_820" data-name="Line 820" x2="76.119" transform="translate(922.401 601.5)" fill="none" stroke="#55565a" stroke-linecap="round" stroke-width="8"/>
      <line id="Line_821" data-name="Line 821" x2="57.643" transform="translate(1007.388 601.5)" fill="none" stroke="#55565a" stroke-linecap="round" stroke-width="8"/>
      <line id="Line_822" data-name="Line 822" x2="57.643" transform="translate(1073.9 601.5)" fill="none" stroke="#55565a" stroke-linecap="round" stroke-width="8"/>
    </g>
    <g id="Group_3557" data-name="Group 3557" transform="translate(-401.65 59.822)">
      <path id="Path_3677" data-name="Path 3677" d="M166.47,229.956h-13.4v23.652h-32.64V229.956H71.71V205.72l50.813-74.29H153.07v73.879h13.452ZM120.429,205.33V191.1q0-4,.287-10.825a69.371,69.371,0,0,1,.462-7.183h-.944a89.374,89.374,0,0,1-6.434,12.036l-13.545,20.142Z" transform="translate(1231.285 239.346)" fill="#32835b"/>
      <path id="Path_3678" data-name="Path 3678" d="M260.695,192.733q0,32.425-10.856,47.509t-33.266,15.084q-21.887,0-33.01-15.751T172.45,192.733q0-32.6,10.866-47.806t33.256-15.207q21.815,0,32.969,15.843T260.695,192.733Zm-55.409,0q0,20.727,2.586,28.495t8.691,7.778q6.157,0,8.732-8.024t2.555-28.249q0-20.3-2.6-28.454t-8.691-8.147q-6.1,0-8.691,7.85T205.3,192.733Z" transform="translate(1233.915 239.301)" fill="#32835b"/>
      <path id="Path_3679" data-name="Path 3679" d="M361.93,229.956H348.478v23.652H315.889V229.956H267.17V205.72l50.813-74.29h30.5v73.879H361.93ZM315.889,205.33V191.1c0-2.668.092-6.28.3-10.825a67.928,67.928,0,0,1,.451-7.183h-.913a89.38,89.38,0,0,1-6.434,12.036l-13.565,20.183Z" transform="translate(1236.388 239.346)" fill="#32835b"/>
      <path id="Path_3680" data-name="Path 3680" d="M172.641,229.506H159.189v23.652h-32.6V229.506H77.87V205.269L128.683,131h30.506v73.879h13.452Zm-46.051-24.626V190.647c0-2.678.1-6.28.3-10.825a69.053,69.053,0,0,1,.462-7.183h-.923a89.375,89.375,0,0,1-6.434,12.036l-13.534,20.2Z" transform="translate(1231.446 239.334)" fill="none" stroke="#000" stroke-miterlimit="10" stroke-width="3.27"/>
      <path id="Path_3681" data-name="Path 3681" d="M266.865,192.273q0,32.435-10.866,47.519t-33.256,15.084q-21.907,0-33.01-15.761T178.62,192.273q0-32.579,10.856-47.8t33.266-15.207q21.8,0,32.969,15.833T266.865,192.273Zm-55.409,0q0,20.738,2.6,28.505t8.691,7.768q6.157,0,8.732-8.024t2.545-28.249q0-20.3-2.586-28.454t-8.691-8.147q-6.157,0-8.691,7.86T211.455,192.273Z" transform="translate(1234.074 239.289)" fill="none" stroke="#000" stroke-miterlimit="10" stroke-width="3.27"/>
      <path id="Path_3682" data-name="Path 3682" d="M368.1,229.506H354.649v23.652h-32.6V229.506H273.33V205.269L324.143,131h30.506v73.879H368.1Zm-46.051-24.626V190.647c0-2.678.1-6.28.3-10.825a69.053,69.053,0,0,1,.462-7.183h-.923a88.242,88.242,0,0,1-6.434,12.036l-13.534,20.2Z" transform="translate(1236.546 239.334)" fill="none" stroke="#000" stroke-miterlimit="10" stroke-width="3.27"/>
    </g>
  </g>
</svg>
