<svg xmlns="http://www.w3.org/2000/svg" width="419.596" height="403.093" viewBox="0 0 419.596 403.093">
  <g id="Hero-Illustration" transform="translate(-83.579 -102.356)">
    <g id="Group_3903" data-name="Group 3903" transform="translate(370.172 149.799)">
      <rect id="Rectangle_17460" data-name="Rectangle 17460" width="41.034" height="1.78" fill="#cdcdcd"/>
    </g>
    <g id="Group_3904" data-name="Group 3904" transform="translate(224.904 354.752)">
      <rect id="Rectangle_17461" data-name="Rectangle 17461" width="44.776" height="2.505" fill="#60a4c2"/>
    </g>
    <g id="Group_3905" data-name="Group 3905" transform="translate(161.293 325.352)">
      <path id="Path_13825" data-name="Path 13825" d="M344.077,626.685H277.171l-16.745-15.009,1.672-1.865,16.031,14.369h65.948Z" transform="translate(-260.426 -609.812)" fill="#9900a6"/>
    </g>
    <g id="Group_3906" data-name="Group 3906" transform="translate(163.724 199.623)">
      <rect id="Rectangle_17462" data-name="Rectangle 17462" width="2.504" height="112.608" transform="translate(0 1.97) rotate(-51.877)" fill="#eebd3a"/>
    </g>
    <g id="Group_3907" data-name="Group 3907" transform="translate(179.196 222.405)">
      <rect id="Rectangle_17463" data-name="Rectangle 17463" width="1.253" height="96.476" transform="translate(0 0.989) rotate(-52.086)" fill="#cacaca"/>
    </g>
    <g id="Group_3908" data-name="Group 3908" transform="translate(333.93 228.365)">
      <path id="Path_13826" data-name="Path 13826" d="M654.2,423.726l-.919-.851,10.375-11.2V389.106h1.252V412.17Z" transform="translate(-653.284 -389.106)" fill="#c84b2a"/>
    </g>
    <g id="Group_3909" data-name="Group 3909" transform="translate(334.619 180.421)">
      <path id="Path_13827" data-name="Path 13827" d="M656.693,370.4l-1.841-1.7,14.7-15.922V282.506h-6V280h8.51V353.76Z" transform="translate(-654.852 -280.001)" fill="#cdcdcd"/>
    </g>
    <g id="Group_3910" data-name="Group 3910" transform="translate(349.602 293.768)">
      <rect id="Rectangle_17464" data-name="Rectangle 17464" width="41.644" height="2.505" fill="#cdcdcd"/>
    </g>
    <g id="Group_3911" data-name="Group 3911" transform="translate(355.864 301.282)">
      <rect id="Rectangle_17465" data-name="Rectangle 17465" width="68.572" height="2.505" fill="#cdcdcd"/>
    </g>
    <g id="Group_3912" data-name="Group 3912" transform="translate(389.612 289.393)">
      <path id="Path_13828" data-name="Path 13828" d="M785.307,538.609a5.313,5.313,0,1,1,5.313-5.314A5.32,5.32,0,0,1,785.307,538.609Zm0-8.3a2.984,2.984,0,1,0,2.984,2.983A2.987,2.987,0,0,0,785.307,530.311Z" transform="translate(-779.994 -527.982)" fill="#cdcdcd"/>
    </g>
    <g id="Group_3913" data-name="Group 3913" transform="translate(492.548 291.274)">
      <path id="Path_13829" data-name="Path 13829" d="M1019.551,542.889a5.313,5.313,0,1,1,5.314-5.312A5.319,5.319,0,0,1,1019.551,542.889Zm0-8.3a2.984,2.984,0,1,0,2.984,2.985A2.988,2.988,0,0,0,1019.551,534.592Z" transform="translate(-1014.238 -532.263)" fill="#cdcdcd"/>
    </g>
    <g id="Group_3914" data-name="Group 3914" transform="translate(184.868 434.704)">
      <path id="Path_13830" data-name="Path 13830" d="M319.387,869.28a5.313,5.313,0,1,1,5.314-5.313A5.319,5.319,0,0,1,319.387,869.28Zm0-8.3a2.984,2.984,0,1,0,2.984,2.984A2.987,2.987,0,0,0,319.387,860.983Z" transform="translate(-314.074 -858.654)" fill="#cdcdcd"/>
    </g>
    <g id="Group_3915" data-name="Group 3915" transform="translate(276.923 494.821)">
      <path id="Path_13831" data-name="Path 13831" d="M528.87,1006.087a5.314,5.314,0,1,1,5.313-5.314A5.32,5.32,0,0,1,528.87,1006.087Zm0-8.3a2.984,2.984,0,1,0,2.984,2.985A2.988,2.988,0,0,0,528.87,997.788Z" transform="translate(-523.557 -995.459)" fill="#cdcdcd"/>
    </g>
    <g id="Group_3916" data-name="Group 3916" transform="translate(359.553 116.346)">
      <path id="Path_13832" data-name="Path 13832" d="M716.9,144.818a5.314,5.314,0,1,1,5.313-5.314A5.32,5.32,0,0,1,716.9,144.818Zm0-8.3a2.984,2.984,0,1,0,2.984,2.984A2.987,2.987,0,0,0,716.9,136.52Z" transform="translate(-711.591 -134.191)" fill="#cdcdcd"/>
    </g>
    <g id="Group_3917" data-name="Group 3917" transform="translate(156.655 192.954)">
      <path id="Path_13833" data-name="Path 13833" d="M255.186,319.15a5.313,5.313,0,1,1,5.313-5.314A5.319,5.319,0,0,1,255.186,319.15Zm0-8.3a2.984,2.984,0,1,0,2.984,2.984A2.988,2.988,0,0,0,255.186,310.852Z" transform="translate(-249.873 -308.523)" fill="#eebd3a"/>
    </g>
    <g id="Group_3918" data-name="Group 3918" transform="translate(191.724 293.542)">
      <path id="Path_13834" data-name="Path 13834" d="M334.989,548.05a5.314,5.314,0,1,1,5.313-5.314A5.319,5.319,0,0,1,334.989,548.05Zm0-8.3a2.984,2.984,0,1,0,2.984,2.984A2.988,2.988,0,0,0,334.989,539.752Z" transform="translate(-329.676 -537.423)" fill="#cdcdcd"/>
    </g>
    <g id="Group_3919" data-name="Group 3919" transform="translate(235.168 388.963)">
      <path id="Path_13835" data-name="Path 13835" d="M433.853,765.193a5.314,5.314,0,1,1,5.313-5.314A5.319,5.319,0,0,1,433.853,765.193Zm0-8.3a2.984,2.984,0,1,0,2.983,2.984A2.988,2.988,0,0,0,433.853,756.9Z" transform="translate(-428.539 -754.566)" fill="#cdcdcd"/>
    </g>
    <g id="Group_3920" data-name="Group 3920" transform="translate(373.956 385.832)">
      <path id="Path_13836" data-name="Path 13836" d="M749.68,758.068a5.313,5.313,0,1,1,5.313-5.313A5.319,5.319,0,0,1,749.68,758.068Zm0-8.3a2.984,2.984,0,1,0,2.984,2.984A2.988,2.988,0,0,0,749.68,749.77Z" transform="translate(-744.367 -747.441)" fill="#cdcdcd"/>
    </g>
    <g id="Group_3921" data-name="Group 3921" transform="translate(235.168 114.049)">
      <path id="Path_13837" data-name="Path 13837" d="M433.853,139.593a5.313,5.313,0,1,1,5.313-5.313A5.319,5.319,0,0,1,433.853,139.593Zm0-8.3a2.984,2.984,0,1,0,2.983,2.985A2.988,2.988,0,0,0,433.853,131.3Z" transform="translate(-428.539 -128.966)" fill="#cdcdcd"/>
    </g>
    <g id="Group_3922" data-name="Group 3922" transform="translate(355.055 328.941)">
      <rect id="Rectangle_17466" data-name="Rectangle 17466" width="62.206" height="1.253" fill="#60a4c2"/>
    </g>
    <g id="Group_3923" data-name="Group 3923" transform="translate(357.352 322.886)">
      <rect id="Rectangle_17467" data-name="Rectangle 17467" width="51.977" height="2.505" fill="#eebd3a"/>
    </g>
    <g id="Group_3924" data-name="Group 3924" transform="translate(228.248 295.02)">
      <rect id="Rectangle_17468" data-name="Rectangle 17468" width="41.644" height="1.253" fill="#cdcdcd"/>
    </g>
    <g id="Group_3925" data-name="Group 3925" transform="translate(226.996 306.918)">
      <rect id="Rectangle_17469" data-name="Rectangle 17469" width="41.644" height="1.253" fill="#cdcdcd"/>
    </g>
    <g id="Group_3926" data-name="Group 3926" transform="translate(207.675 315.368)">
      <rect id="Rectangle_17470" data-name="Rectangle 17470" width="49.998" height="1.253" fill="#cdcdcd"/>
    </g>
    <g id="Group_3927" data-name="Group 3927" transform="translate(110.415 216.846)">
      <path id="Path_13838" data-name="Path 13838" d="M160.348,388.292l-15.7-15.06v-10.34h2.329v9.346l14.984,14.372Z" transform="translate(-144.647 -362.893)" fill="#cdcdcd"/>
    </g>
    <g id="Group_3928" data-name="Group 3928" transform="translate(342.839 224.361)">
      <path id="Path_13839" data-name="Path 13839" d="M675.393,425.619l-1.837-1.7,40.711-43.923h44.357v2.5H715.361Z" transform="translate(-673.556 -379.993)" fill="#cdcdcd"/>
    </g>
    <g id="Group_3929" data-name="Group 3929" transform="translate(327.809 254.002)">
      <path id="Path_13840" data-name="Path 13840" d="M641.192,493.071l-1.837-1.7,40.711-43.923h17.219v2.5H681.16Z" transform="translate(-639.355 -447.445)" fill="#cdcdcd"/>
    </g>
    <g id="Group_3930" data-name="Group 3930" transform="translate(344.133 230.831)">
      <path id="Path_13841" data-name="Path 13841" d="M677.42,439.292l-.918-.851,40.525-43.724H761.11v1.253H717.574Z" transform="translate(-676.502 -394.717)" fill="#cdcdcd"/>
    </g>
    <g id="Group_3931" data-name="Group 3931" transform="translate(218.016 302.205)">
      <rect id="Rectangle_17471" data-name="Rectangle 17471" width="26.828" height="2.329" fill="#cdcdcd"/>
    </g>
    <g id="Group_3932" data-name="Group 3932" transform="translate(194.219 321.302)">
      <rect id="Rectangle_17472" data-name="Rectangle 17472" width="46.028" height="2.329" transform="translate(0)" fill="#cdcdcd"/>
    </g>
    <g id="Group_3933" data-name="Group 3933" transform="translate(239.082 122.495)">
      <rect id="Rectangle_17473" data-name="Rectangle 17473" width="2.329" height="40.705" transform="translate(0 0)" fill="#cdcdcd"/>
    </g>
    <g id="Group_3934" data-name="Group 3934" transform="translate(396.246 400.19)">
      <path id="Path_13842" data-name="Path 13842" d="M877.371,812.313H841.417l-46.325-30.249,1.273-1.951,45.745,29.87h35.261Z" transform="translate(-795.092 -780.114)" fill="#a9c732"/>
    </g>
    <g id="Group_3935" data-name="Group 3935" transform="translate(243.935 120.438)">
      <path id="Path_13843" data-name="Path 13843" d="M450.819,192.527H448.49V162.21L466.346,143.5l1.685,1.608-17.212,18.033Z" transform="translate(-448.49 -143.503)" fill="#cdcdcd"/>
    </g>
    <g id="Group_3936" data-name="Group 3936" transform="translate(129.405 377.577)">
      <rect id="Rectangle_17474" data-name="Rectangle 17474" width="30.684" height="1.253" fill="#cdcdcd"/>
    </g>
    <g id="Group_3937" data-name="Group 3937" transform="translate(313.611 448.842)">
      <path id="Path_13844" data-name="Path 13844" d="M608.856,907.035l-1.811-1.731,13.832-14.476h29.339v2.5H621.949Z" transform="translate(-607.045 -890.828)" fill="#cdcdcd"/>
    </g>
    <g id="Group_3938" data-name="Group 3938" transform="translate(335.804 442.58)">
      <rect id="Rectangle_17475" data-name="Rectangle 17475" width="22.231" height="1.253" fill="#cacaca"/>
    </g>
    <g id="Group_3939" data-name="Group 3939" transform="translate(246.588 360.306)">
      <path id="Path_13845" data-name="Path 13845" d="M457.031,758.549h-2.505v-69.2h18.159v2.5H457.031Z" transform="translate(-454.526 -689.352)" fill="#cdcdcd"/>
    </g>
    <g id="Group_3940" data-name="Group 3940" transform="translate(239.073 398.191)">
      <rect id="Rectangle_17476" data-name="Rectangle 17476" width="2.505" height="34.443" fill="#cdcdcd"/>
    </g>
    <g id="Group_3941" data-name="Group 3941" transform="translate(247.318 453.168)">
      <rect id="Rectangle_17477" data-name="Rectangle 17477" width="2.505" height="37.078" fill="#cdcdcd"/>
    </g>
    <g id="Group_3942" data-name="Group 3942" transform="translate(330.398 338.934)">
      <rect id="Rectangle_17478" data-name="Rectangle 17478" width="1.253" height="59.119" transform="matrix(0.546, -0.838, 0.838, 0.546, 0, 1.05)" fill="#cdcdcd"/>
    </g>
    <g id="Group_3943" data-name="Group 3943" transform="translate(314.476 370.062)">
      <rect id="Rectangle_17479" data-name="Rectangle 17479" width="1.252" height="48.22" fill="#cacaca"/>
    </g>
    <g id="Group_3944" data-name="Group 3944" transform="translate(308.005 369.854)">
      <rect id="Rectangle_17480" data-name="Rectangle 17480" width="2.505" height="30.059" fill="#cdcdcd"/>
    </g>
    <g id="Group_3945" data-name="Group 3945" transform="translate(172.9 154.641)">
      <path id="Path_13846" data-name="Path 13846" d="M370.186,333.349,286.84,267.773V221.336h1.252v45.828l82.868,65.2Z" transform="translate(-286.84 -221.336)" fill="#eebd3a"/>
    </g>
    <g id="Group_3946" data-name="Group 3946" transform="translate(277.194 220.812)">
      <rect id="Rectangle_17481" data-name="Rectangle 17481" width="2.505" height="45.715" fill="#cdcdcd"/>
    </g>
    <g id="Group_3947" data-name="Group 3947" transform="translate(121.498 222.778)">
      <path id="Path_13847" data-name="Path 13847" d="M241.707,416.049h-27.23L169.869,378.3l1.618-1.912,43.908,37.153h26.313Z" transform="translate(-169.869 -376.391)" fill="#cdcdcd"/>
    </g>
    <g id="Group_3948" data-name="Group 3948" transform="translate(386.079 209.002)">
      <path id="Path_13848" data-name="Path 13848" d="M833.2,384.7H816.564l-44.609-37.744,1.618-1.912,43.908,37.151H833.2Z" transform="translate(-771.955 -345.042)" fill="#cdcdcd"/>
    </g>
    <g id="Group_3949" data-name="Group 3949" transform="translate(388.676 205.096)">
      <path id="Path_13849" data-name="Path 13849" d="M849.3,374.706h-27l-.175-.148-44.258-37.448.809-.956,44.083,37.3H849.3Z" transform="translate(-777.865 -336.153)" fill="#cdcdcd"/>
    </g>
    <g id="Group_3950" data-name="Group 3950" transform="translate(390.763 201.338)">
      <rect id="Rectangle_17482" data-name="Rectangle 17482" width="1.252" height="57.976" transform="matrix(0.646, -0.763, 0.763, 0.646, 0, 0.956)" fill="#cdcdcd"/>
    </g>
    <g id="Group_3951" data-name="Group 3951" transform="translate(445.103 423.797)">
      <rect id="Rectangle_17483" data-name="Rectangle 17483" width="23.091" height="2.329" fill="#cdcdcd"/>
    </g>
    <g id="Group_3952" data-name="Group 3952" transform="translate(306.371 134.216)">
      <rect id="Rectangle_17484" data-name="Rectangle 17484" width="2.505" height="119.296" fill="#cdcdcd"/>
    </g>
    <g id="Group_3953" data-name="Group 3953" transform="translate(266.966 235.841)">
      <rect id="Rectangle_17485" data-name="Rectangle 17485" width="1.252" height="35.695" fill="#cacaca"/>
    </g>
    <g id="Group_3954" data-name="Group 3954" transform="translate(270.394 243.669)">
      <rect id="Rectangle_17486" data-name="Rectangle 17486" width="2.329" height="27.867" fill="#cdcdcd"/>
    </g>
    <g id="Group_3955" data-name="Group 3955" transform="translate(369.876 154.693)">
      <rect id="Rectangle_17487" data-name="Rectangle 17487" width="24.099" height="0.889" transform="translate(0 0)" fill="#cdcdcd"/>
    </g>
    <g id="Group_3956" data-name="Group 3956" transform="translate(105.817 309.527)">
      <rect id="Rectangle_17488" data-name="Rectangle 17488" width="33.816" height="1.253" fill="#cdcdcd"/>
    </g>
    <g id="Group_3957" data-name="Group 3957" transform="translate(166.466 265.78)">
      <path id="Path_13850" data-name="Path 13850" d="M278.346,477.24a3.075,3.075,0,1,1-3.156-2.99A3.075,3.075,0,0,1,278.346,477.24Z" transform="translate(-272.198 -474.248)" fill="#cdcdcd"/>
    </g>
    <g id="Group_3958" data-name="Group 3958" transform="translate(146.608 250.516)">
      <rect id="Rectangle_17489" data-name="Rectangle 17489" width="1.253" height="26.748" transform="matrix(0.62, -0.784, 0.784, 0.62, 0, 0.983)" fill="#cdcdcd"/>
    </g>
    <g id="Group_3959" data-name="Group 3959" transform="translate(142.449 254.106)">
      <rect id="Rectangle_17490" data-name="Rectangle 17490" width="2.505" height="65.3" transform="matrix(0.631, -0.776, 0.776, 0.631, 0, 1.944)" fill="#cdcdcd"/>
    </g>
    <g id="Group_3960" data-name="Group 3960" transform="translate(107.152 212.072)">
      <path id="Path_13851" data-name="Path 13851" d="M146.773,356.8A4.775,4.775,0,1,1,142,352.028,4.775,4.775,0,0,1,146.773,356.8Z" transform="translate(-137.223 -352.028)" fill="#828282"/>
    </g>
    <g id="Group_3961" data-name="Group 3961" transform="translate(219.375 351.456)">
      <path id="Path_13852" data-name="Path 13852" d="M402.411,674.119a4.906,4.906,0,1,1-4.906-4.905A4.906,4.906,0,0,1,402.411,674.119Z" transform="translate(-392.6 -669.214)" fill="#60a4c2"/>
    </g>
    <g id="Group_3966" data-name="Group 3966" transform="translate(330.16 174.724)">
      <g id="Group_3963" data-name="Group 3963" transform="translate(2.15 2.15)">
        <g id="Group_3962" data-name="Group 3962">
          <path id="Path_13853" data-name="Path 13853" d="M658.448,276.358a4.426,4.426,0,1,1-4.426-4.426A4.425,4.425,0,0,1,658.448,276.358Z" transform="translate(-649.597 -271.932)" fill="#bdc2c5"/>
        </g>
      </g>
      <g id="Group_3965" data-name="Group 3965">
        <g id="Group_3964" data-name="Group 3964">
          <path id="Path_13854" data-name="Path 13854" d="M651.28,280.191a6.576,6.576,0,1,1,6.576-6.576A6.583,6.583,0,0,1,651.28,280.191Zm0-12.159a5.583,5.583,0,1,0,5.583,5.583A5.589,5.589,0,0,0,651.28,268.032Z" transform="translate(-644.704 -267.039)" fill="#bdc2c5"/>
        </g>
      </g>
    </g>
    <g id="Group_3971" data-name="Group 3971" transform="translate(330.031 409.299)">
      <g id="Group_3968" data-name="Group 3968" transform="translate(2.15 2.15)">
        <g id="Group_3967" data-name="Group 3967">
          <path id="Path_13855" data-name="Path 13855" d="M658.156,810.161a4.426,4.426,0,1,1-4.426-4.426A4.426,4.426,0,0,1,658.156,810.161Z" transform="translate(-649.305 -805.735)" fill="#bdc2c5"/>
        </g>
      </g>
      <g id="Group_3970" data-name="Group 3970">
        <g id="Group_3969" data-name="Group 3969">
          <path id="Path_13856" data-name="Path 13856" d="M650.988,813.994a6.576,6.576,0,1,1,6.576-6.576A6.583,6.583,0,0,1,650.988,813.994Zm0-12.16a5.583,5.583,0,1,0,5.583,5.584A5.59,5.59,0,0,0,650.988,801.834Z" transform="translate(-644.412 -800.842)" fill="#bdc2c5"/>
        </g>
      </g>
    </g>
    <g id="Group_3976" data-name="Group 3976" transform="translate(151.009 315.058)">
      <g id="Group_3973" data-name="Group 3973" transform="translate(2.151 2.151)">
        <g id="Group_3972" data-name="Group 3972">
          <path id="Path_13857" data-name="Path 13857" d="M250.769,595.707a4.425,4.425,0,1,1-4.426-4.426A4.426,4.426,0,0,1,250.769,595.707Z" transform="translate(-241.918 -591.281)" fill="#9900a6"/>
        </g>
      </g>
      <g id="Group_3975" data-name="Group 3975">
        <g id="Group_3974" data-name="Group 3974">
          <path id="Path_13858" data-name="Path 13858" d="M243.6,599.538a6.576,6.576,0,1,1,6.576-6.575A6.582,6.582,0,0,1,243.6,599.538Zm0-12.159a5.583,5.583,0,1,0,5.584,5.583A5.59,5.59,0,0,0,243.6,587.379Z" transform="translate(-237.024 -586.386)" fill="#9900a6"/>
        </g>
      </g>
    </g>
    <g id="Group_4018" data-name="Group 4018" transform="translate(83.579 144.199)">
      <g id="Group_3977" data-name="Group 3977" transform="translate(93.941 0)">
        <path id="Path_13859" data-name="Path 13859" d="M379.948,316.956l-82.516-64.565-.079-54.808,5.636-.007.075,52.066,80.357,62.875Z" transform="translate(-297.352 -197.576)" fill="#979797"/>
      </g>
      <g id="Group_3979" data-name="Group 3979" transform="translate(230.876 57.93)">
        <g id="Group_3978" data-name="Group 3978">
          <path id="Path_13860" data-name="Path 13860" d="M614.6,381.589h-5.636V346.624A17.241,17.241,0,0,1,626.187,329.4h6.053v5.636h-6.053A11.6,11.6,0,0,0,614.6,346.624Z" transform="translate(-608.965 -329.403)" fill="#979797"/>
        </g>
      </g>
      <g id="Group_3982" data-name="Group 3982" transform="translate(269.076 106.88)">
        <g id="Group_3980" data-name="Group 3980" transform="translate(0 30.789)">
          <rect id="Rectangle_17491" data-name="Rectangle 17491" width="24.425" height="5.636" fill="#979797"/>
        </g>
        <g id="Group_3981" data-name="Group 3981" transform="translate(21.921)">
          <path id="Path_13861" data-name="Path 13861" d="M761.117,477.219H745.778v-5.635h15.339A11.6,11.6,0,0,0,772.7,460V440.8h5.636V460A17.24,17.24,0,0,1,761.117,477.219Z" transform="translate(-745.778 -440.795)" fill="#979797"/>
        </g>
      </g>
      <g id="Group_3985" data-name="Group 3985" transform="translate(196.12 19.442)">
        <g id="Group_3983" data-name="Group 3983" transform="translate(17.278 49.471)">
          <rect id="Rectangle_17492" data-name="Rectangle 17492" width="5.636" height="36.819" fill="#979797"/>
        </g>
        <g id="Group_3984" data-name="Group 3984">
          <path id="Path_13862" data-name="Path 13862" d="M552.789,293.795h-5.636V259.039a11.6,11.6,0,0,0-11.585-11.585h-5.693v-5.635h5.693a17.24,17.24,0,0,1,17.221,17.22Z" transform="translate(-529.875 -241.819)" fill="#979797"/>
        </g>
      </g>
      <g id="Group_3988" data-name="Group 3988" transform="translate(115.133 200.709)">
        <g id="Group_3986" data-name="Group 3986" transform="translate(33.816)">
          <rect id="Rectangle_17493" data-name="Rectangle 17493" width="17.581" height="5.636" fill="#979797"/>
        </g>
        <g id="Group_3987" data-name="Group 3987" transform="translate(0 0)">
          <path id="Path_13863" data-name="Path 13863" d="M351.215,677.8h-5.636v-6.262A17.241,17.241,0,0,1,362.8,654.315h19.1v5.635H362.8a11.6,11.6,0,0,0-11.585,11.586Z" transform="translate(-345.579 -654.315)" fill="#979797"/>
        </g>
      </g>
      <g id="Group_3990" data-name="Group 3990" transform="translate(101.254 217.202)">
        <g id="Group_3989" data-name="Group 3989">
          <path id="Path_13864" data-name="Path 13864" d="M316.29,722.32h-2.3v-5.636h2.3A11.6,11.6,0,0,0,327.876,705.1V691.845h5.636V705.1A17.241,17.241,0,0,1,316.29,722.32Z" transform="translate(-313.995 -691.845)" fill="#979797"/>
        </g>
      </g>
      <g id="Group_3995" data-name="Group 3995" transform="translate(169.71 225.237)">
        <g id="Group_3992" data-name="Group 3992" transform="translate(0 25.728)">
          <g id="Group_3991" data-name="Group 3991">
            <path id="Path_13865" data-name="Path 13865" d="M475.412,785.9h-5.636A17.24,17.24,0,0,1,487,768.678h8.622v5.635H487A11.6,11.6,0,0,0,475.412,785.9Z" transform="translate(-469.776 -768.678)" fill="#979797"/>
          </g>
        </g>
        <g id="Group_3994" data-name="Group 3994" transform="translate(19.98)">
          <g id="Group_3993" data-name="Group 3993">
            <path id="Path_13866" data-name="Path 13866" d="M523.632,741.492h-8.389v-5.635h8.389a11.6,11.6,0,0,0,11.585-11.585V710.131h5.636v14.141A17.24,17.24,0,0,1,523.632,741.492Z" transform="translate(-515.243 -710.131)" fill="#979797"/>
          </g>
        </g>
      </g>
      <g id="Group_3996" data-name="Group 3996" transform="translate(248.196 53.124)">
        <circle id="Ellipse_143" data-name="Ellipse 143" cx="7.306" cy="7.306" r="7.306" transform="translate(0 0.221) rotate(-0.868)" fill="#979797"/>
      </g>
      <g id="Group_4002" data-name="Group 4002" transform="translate(275.972 193.367)">
        <g id="Group_3997" data-name="Group 3997" transform="translate(18.441)">
          <path id="Path_13867" data-name="Path 13867" d="M753.551,637.605l10.48.074-7.882,10.08Z" transform="translate(-753.551 -637.605)" fill="#979797"/>
        </g>
        <g id="Group_4000" data-name="Group 4000" transform="translate(0 3.639)">
          <g id="Group_3998" data-name="Group 3998" transform="translate(65.87 42.668)">
            <path id="Path_13868" data-name="Path 13868" d="M871.963,753.113l-10.481.013,7.8-10.145Z" transform="translate(-861.482 -742.982)" fill="#505050"/>
          </g>
          <g id="Group_3999" data-name="Group 3999">
            <path id="Path_13869" data-name="Path 13869" d="M781.732,697.13l-7.53-5,3.116-4.7,7.53,5Zm-15.357-10.191-7.827-5.194,3.116-4.7,7.827,5.194ZM750.72,676.552l-7.827-5.195,3.117-4.7,7.827,5.195Zm-15.653-10.389-7.826-5.194,3.116-4.7,7.827,5.194Zm-15.653-10.387-7.827-5.194,3.116-4.7,7.827,5.194Z" transform="translate(-711.587 -645.886)" fill="#505050"/>
          </g>
        </g>
        <g id="Group_4001" data-name="Group 4001" transform="translate(20.473 0.917)">
          <rect id="Rectangle_17494" data-name="Rectangle 17494" width="5.637" height="80.092" transform="matrix(0.55, -0.835, 0.835, 0.55, 0, 4.708)" fill="#979797"/>
        </g>
      </g>
      <g id="Group_4016" data-name="Group 4016" transform="translate(0 93.036)">
        <g id="Group_4004" data-name="Group 4004" transform="translate(90.301 63.631)">
          <g id="Group_4003" data-name="Group 4003">
            <path id="Path_13870" data-name="Path 13870" d="M349.1,590.411H339.7v-5.635H349.1Zm-18.786,0h-9.393v-5.635h9.393Zm-18.787,0H306.29a17.255,17.255,0,0,1-4.9-.708l1.6-5.4a11.607,11.607,0,0,0,3.3.476h5.234Zm-19.147-7.07a17.09,17.09,0,0,1-3.309-10.151v-.313h5.636v.313a11.49,11.49,0,0,0,2.223,6.825Zm2.328-19.857h-5.636V554.09h5.636Z" transform="translate(-289.069 -554.09)" fill="#505050"/>
          </g>
        </g>
        <g id="Group_4006" data-name="Group 4006" transform="translate(0 24.902)">
          <g id="Group_4005" data-name="Group 4005">
            <path id="Path_13871" data-name="Path 13871" d="M103.514,490.692H100.8a17.24,17.24,0,0,1-17.221-17.22v-7.514h5.636v7.514A11.6,11.6,0,0,0,100.8,485.056h2.714Z" transform="translate(-83.579 -465.957)" fill="#505050"/>
          </g>
        </g>
        <g id="Group_4008" data-name="Group 4008" transform="translate(0 24.902)">
          <g id="Group_4007" data-name="Group 4007">
            <path id="Path_13872" data-name="Path 13872" d="M103.514,490.692H100.8a17.24,17.24,0,0,1-17.221-17.22v-7.514h5.636v7.514A11.6,11.6,0,0,0,100.8,485.056h2.714Z" transform="translate(-83.579 -465.957)" fill="#505050"/>
          </g>
        </g>
        <g id="Group_4010" data-name="Group 4010" transform="translate(0 5.548)">
          <g id="Group_4009" data-name="Group 4009">
            <path id="Path_13873" data-name="Path 13873" d="M89.215,441.849H83.579v-2.714a17.24,17.24,0,0,1,17.221-17.22h1.879v5.635H100.8a11.6,11.6,0,0,0-11.585,11.585Z" transform="translate(-83.579 -421.915)" fill="#505050"/>
          </g>
        </g>
        <g id="Group_4012" data-name="Group 4012" transform="translate(0 5.548)">
          <g id="Group_4011" data-name="Group 4011">
            <path id="Path_13874" data-name="Path 13874" d="M89.215,441.849H83.579v-2.714a17.24,17.24,0,0,1,17.221-17.22h1.879v5.635H100.8a11.6,11.6,0,0,0-11.585,11.585Z" transform="translate(-83.579 -421.915)" fill="#505050"/>
          </g>
        </g>
        <g id="Group_4013" data-name="Group 4013" transform="translate(17.592)">
          <path id="Path_13875" data-name="Path 13875" d="M134.351,417.567l-10.739,8.277V409.29Z" transform="translate(-123.612 -409.29)" fill="#505050"/>
        </g>
        <g id="Group_4015" data-name="Group 4015" transform="translate(19.151 44.009)">
          <g id="Group_4014" data-name="Group 4014">
            <path id="Path_13876" data-name="Path 13876" d="M203.932,529.371H198.3v-2.714a11.6,11.6,0,0,0-11.585-11.585H127.159v-5.635h59.552a17.241,17.241,0,0,1,17.222,17.22Z" transform="translate(-127.159 -509.437)" fill="#505050"/>
          </g>
        </g>
      </g>
      <g id="Group_4017" data-name="Group 4017" transform="translate(274.085 164.597)">
        <rect id="Rectangle_17495" data-name="Rectangle 17495" width="56.361" height="5.636" fill="#979797"/>
      </g>
    </g>
    <g id="Group_4019" data-name="Group 4019" transform="translate(392.522 396.809)">
      <path id="Path_13877" data-name="Path 13877" d="M791.391,781.969a4.775,4.775,0,1,1,4.775-4.775A4.775,4.775,0,0,1,791.391,781.969Z" transform="translate(-786.616 -772.419)" fill="#a9c732"/>
    </g>
    <g id="Group_4020" data-name="Group 4020" transform="translate(210.21 298.073)">
      <path id="Path_13878" data-name="Path 13878" d="M376.518,557.284a4.775,4.775,0,1,1,4.775-4.775A4.775,4.775,0,0,1,376.518,557.284Z" transform="translate(-371.743 -547.734)" fill="#cdcdcd"/>
    </g>
    <g id="Group_4021" data-name="Group 4021" transform="translate(315.461 356.201)">
      <path id="Path_13879" data-name="Path 13879" d="M633.567,733.109h-2.329V695.076l-19.981-13.119,1.278-1.946,21.032,13.807Z" transform="translate(-611.256 -680.011)" fill="#cdcdcd"/>
    </g>
    <g id="Group_4022" data-name="Group 4022" transform="translate(324.538 353.697)">
      <rect id="Rectangle_17496" data-name="Rectangle 17496" width="2.329" height="61.224" transform="matrix(0.552, -0.834, 0.834, 0.552, 0, 1.942)" fill="#cdcdcd"/>
    </g>
    <g id="Group_4023" data-name="Group 4023" transform="translate(408.399 460.979)">
      <path id="Path_13880" data-name="Path 13880" d="M828.059,929.075a5.313,5.313,0,1,1,5.313-5.313A5.319,5.319,0,0,1,828.059,929.075Zm0-8.3a2.984,2.984,0,1,0,2.984,2.984A2.988,2.988,0,0,0,828.059,920.777Z" transform="translate(-822.746 -918.448)" fill="#cdcdcd"/>
    </g>
    <g id="Group_4024" data-name="Group 4024" transform="translate(397.167 453.902)">
      <rect id="Rectangle_17497" data-name="Rectangle 17497" width="2.33" height="15.546" transform="translate(0 1.924) rotate(-55.669)" fill="#cdcdcd"/>
    </g>
    <g id="Group_4029" data-name="Group 4029" transform="translate(259.973 110.283)">
      <g id="Group_4026" data-name="Group 4026" transform="translate(2.15 2.15)">
        <g id="Group_4025" data-name="Group 4025">
          <path id="Path_13881" data-name="Path 13881" d="M498.728,129.712a4.425,4.425,0,1,1-4.425-4.425A4.424,4.424,0,0,1,498.728,129.712Z" transform="translate(-489.878 -125.287)" fill="#a9c732"/>
        </g>
      </g>
      <g id="Group_4028" data-name="Group 4028">
        <g id="Group_4027" data-name="Group 4027">
          <path id="Path_13882" data-name="Path 13882" d="M491.561,133.546a6.576,6.576,0,1,1,6.576-6.577A6.583,6.583,0,0,1,491.561,133.546Zm0-12.16a5.584,5.584,0,1,0,5.583,5.583A5.59,5.59,0,0,0,491.561,121.386Z" transform="translate(-484.985 -120.394)" fill="#a9c732"/>
        </g>
      </g>
    </g>
    <g id="Group_4034" data-name="Group 4034" transform="translate(303.391 462.43)">
      <g id="Group_4031" data-name="Group 4031" transform="translate(2.15 2.151)">
        <g id="Group_4030" data-name="Group 4030">
          <path id="Path_13883" data-name="Path 13883" d="M597.533,931.07a4.425,4.425,0,1,1-4.426-4.426A4.425,4.425,0,0,1,597.533,931.07Z" transform="translate(-588.682 -926.644)" fill="#bdc2c5"/>
        </g>
      </g>
      <g id="Group_4033" data-name="Group 4033">
        <g id="Group_4032" data-name="Group 4032">
          <path id="Path_13884" data-name="Path 13884" d="M590.365,934.9a6.576,6.576,0,1,1,6.576-6.576A6.583,6.583,0,0,1,590.365,934.9Zm0-12.159a5.583,5.583,0,1,0,5.583,5.583A5.589,5.589,0,0,0,590.365,922.743Z" transform="translate(-583.789 -921.75)" fill="#bdc2c5"/>
        </g>
      </g>
    </g>
    <g id="Group_4035" data-name="Group 4035" transform="translate(264.531 468.497)">
      <path id="Path_13885" data-name="Path 13885" d="M509.835,965.4,495.357,951.57V935.556h2.505V950.5l13.7,13.093Z" transform="translate(-495.357 -935.556)" fill="#cdcdcd"/>
    </g>
    <g id="Group_4036" data-name="Group 4036" transform="translate(341.752 223.374)">
      <path id="Path_13886" data-name="Path 13886" d="M677.232,380.738a3.075,3.075,0,1,1-3.157-2.99A3.076,3.076,0,0,1,677.232,380.738Z" transform="translate(-671.084 -377.746)" fill="#c84b2a"/>
    </g>
    <g id="Group_4037" data-name="Group 4037" transform="translate(416.9 326.492)">
      <path id="Path_13887" data-name="Path 13887" d="M848.239,615.4a3.075,3.075,0,1,1-3.157-2.991A3.076,3.076,0,0,1,848.239,615.4Z" transform="translate(-842.091 -612.405)" fill="#60a4c2"/>
    </g>
    <g id="Group_4038" data-name="Group 4038" transform="translate(264.518 230.784)">
      <path id="Path_13888" data-name="Path 13888" d="M501.475,397.6a3.074,3.074,0,1,1-3.156-2.99A3.074,3.074,0,0,1,501.475,397.6Z" transform="translate(-495.327 -394.61)" fill="#60a4c2"/>
    </g>
    <g id="Group_4039" data-name="Group 4039" transform="translate(457.396 239.863)">
      <path id="Path_13889" data-name="Path 13889" d="M940.393,418.262a3.074,3.074,0,1,1-3.156-2.991A3.074,3.074,0,0,1,940.393,418.262Z" transform="translate(-934.246 -415.27)" fill="#828282"/>
    </g>
    <g id="Group_4040" data-name="Group 4040" transform="translate(175.046 218.363)">
      <path id="Path_13890" data-name="Path 13890" d="M297.87,369.336a3.075,3.075,0,1,1-3.157-2.991A3.075,3.075,0,0,1,297.87,369.336Z" transform="translate(-291.722 -366.344)" fill="#828282"/>
    </g>
    <g id="Group_4041" data-name="Group 4041" transform="translate(202.466 313.004)">
      <path id="Path_13891" data-name="Path 13891" d="M360.268,584.7a3.075,3.075,0,1,1-3.156-2.99A3.075,3.075,0,0,1,360.268,584.7Z" transform="translate(-354.12 -581.711)" fill="#828282"/>
    </g>
    <g id="Group_4042" data-name="Group 4042" transform="translate(312.528 413.062)">
      <path id="Path_13892" data-name="Path 13892" d="M610.729,812.4a3.075,3.075,0,1,1-3.157-2.991A3.075,3.075,0,0,1,610.729,812.4Z" transform="translate(-604.581 -809.406)" fill="#828282"/>
    </g>
    <g id="Group_4043" data-name="Group 4043" transform="translate(253.941 436.291)">
      <rect id="Rectangle_17498" data-name="Rectangle 17498" width="1.252" height="48.22" fill="#cacaca"/>
    </g>
    <g id="Group_4044" data-name="Group 4044" transform="translate(251.993 479.292)">
      <path id="Path_13893" data-name="Path 13893" d="M472.973,963.111a3.075,3.075,0,1,1-3.156-2.99A3.075,3.075,0,0,1,472.973,963.111Z" transform="translate(-466.825 -960.119)" fill="#828282"/>
    </g>
    <g id="Group_4045" data-name="Group 4045" transform="translate(333.043 440.131)">
      <path id="Path_13894" data-name="Path 13894" d="M657.412,874a3.074,3.074,0,1,1-3.156-2.99A3.074,3.074,0,0,1,657.412,874Z" transform="translate(-651.264 -871.005)" fill="#828282"/>
    </g>
    <g id="Group_4046" data-name="Group 4046" transform="translate(378.699 369.597)">
      <path id="Path_13895" data-name="Path 13895" d="M758.986,716.552a3.075,3.075,0,1,1,2.232-3.731A3.075,3.075,0,0,1,758.986,716.552Z" transform="translate(-755.161 -710.495)" fill="#cdcdcd"/>
    </g>
    <g id="Group_4047" data-name="Group 4047" transform="translate(126.956 374.92)">
      <path id="Path_13896" data-name="Path 13896" d="M188.437,725.6a3.074,3.074,0,1,1-3.156-2.991A3.073,3.073,0,0,1,188.437,725.6Z" transform="translate(-182.289 -722.609)" fill="#636363"/>
    </g>
    <g id="Group_4048" data-name="Group 4048" transform="translate(160.393 408.981)">
      <rect id="Rectangle_17499" data-name="Rectangle 17499" width="2.329" height="38.305" transform="translate(0 1.623) rotate(-44.187)" fill="#cdcdcd"/>
    </g>
    <g id="Group_4049" data-name="Group 4049" transform="translate(188.585 256.062)">
      <path id="Path_13897" data-name="Path 13897" d="M332.346,457.039a4.906,4.906,0,1,1-4.906-4.906A4.906,4.906,0,0,1,332.346,457.039Z" transform="translate(-322.534 -452.133)" fill="#bdc2c5"/>
    </g>
    <g id="Group_4050" data-name="Group 4050" transform="translate(241.661 487.953)">
      <circle id="Ellipse_144" data-name="Ellipse 144" cx="4.906" cy="4.906" r="4.906" transform="translate(0 6.938) rotate(-45)" fill="#bdc2c5"/>
    </g>
    <g id="Group_4051" data-name="Group 4051" transform="translate(166.75 403.794)">
      <path id="Path_13898" data-name="Path 13898" d="M329.12,812.509H296.773l-.182-.178-23.747-23.12.874-.9,23.565,22.941H329.12Z" transform="translate(-272.844 -788.315)" fill="#cacaca"/>
    </g>
    <g id="Group_4052" data-name="Group 4052" transform="translate(219.847 424.183)">
      <path id="Path_13899" data-name="Path 13899" d="M399.821,837.7a3.075,3.075,0,1,1-3.157-2.991A3.076,3.076,0,0,1,399.821,837.7Z" transform="translate(-393.673 -834.712)" fill="#828282"/>
    </g>
    <g id="Group_4053" data-name="Group 4053" transform="translate(136.349 307.288)">
      <path id="Path_13900" data-name="Path 13900" d="M203.666,571.862a3.075,3.075,0,1,1,3.157,2.99A3.075,3.075,0,0,1,203.666,571.862Z" transform="translate(-203.664 -568.704)" fill="#cdcdcd"/>
    </g>
    <g id="Group_4054" data-name="Group 4054" transform="translate(445.023 350.023)">
      <rect id="Rectangle_17500" data-name="Rectangle 17500" width="46.549" height="1.253" transform="translate(0 0)" fill="#cdcdcd"/>
    </g>
    <g id="Group_4055" data-name="Group 4055" transform="translate(488.289 347.784)">
      <path id="Path_13901" data-name="Path 13901" d="M1004.548,664.014A3.075,3.075,0,1,1,1007.7,667,3.074,3.074,0,0,1,1004.548,664.014Z" transform="translate(-1004.546 -660.857)" fill="#cdcdcd"/>
    </g>
    <g id="Group_4056" data-name="Group 4056" transform="translate(441.057 353.154)">
      <rect id="Rectangle_17501" data-name="Rectangle 17501" width="33.816" height="1.253" fill="#cdcdcd"/>
    </g>
    <g id="Group_4057" data-name="Group 4057" transform="translate(325.831 119.989)">
      <rect id="Rectangle_17502" data-name="Rectangle 17502" width="34.86" height="1.253" transform="translate(0 0)" fill="#cdcdcd"/>
    </g>
    <g id="Group_4058" data-name="Group 4058" transform="translate(322.966 117.332)">
      <path id="Path_13902" data-name="Path 13902" d="M634.481,139.428a3.074,3.074,0,1,1-3.156-2.991A3.075,3.075,0,0,1,634.481,139.428Z" transform="translate(-628.333 -136.436)" fill="#9900a6"/>
    </g>
    <g id="Group_4059" data-name="Group 4059" transform="translate(338.564 123.12)">
      <rect id="Rectangle_17503" data-name="Rectangle 17503" width="23.066" height="1.253" fill="#cdcdcd"/>
    </g>
    <g id="Group_4060" data-name="Group 4060" transform="translate(273.672 213.219)">
      <path id="Path_13903" data-name="Path 13903" d="M525.708,359.413a4.775,4.775,0,1,1-4.775-4.775A4.775,4.775,0,0,1,525.708,359.413Z" transform="translate(-516.158 -354.638)" fill="#cdcdcd"/>
    </g>
    <g id="Group_4061" data-name="Group 4061" transform="translate(458.722 295.424)">
      <rect id="Rectangle_17504" data-name="Rectangle 17504" width="35.773" height="2.329" fill="#cdcdcd"/>
    </g>
    <g id="Group_4062" data-name="Group 4062" transform="translate(165.837 407.95)">
      <rect id="Rectangle_17505" data-name="Rectangle 17505" width="1.253" height="24.207" transform="translate(0 0.886) rotate(-45.001)" fill="#cdcdcd"/>
    </g>
    <g id="Group_4063" data-name="Group 4063" transform="translate(181.075 229.711)">
      <rect id="Rectangle_17506" data-name="Rectangle 17506" width="1.252" height="92.009" transform="translate(0 0.987) rotate(-52.061)" fill="#cdcdcd"/>
    </g>
    <g id="Group_4064" data-name="Group 4064" transform="translate(123.292 230.198)">
      <rect id="Rectangle_17507" data-name="Rectangle 17507" width="1.253" height="14.324" transform="matrix(0.685, -0.729, 0.729, 0.685, 0, 0.913)" fill="#cdcdcd"/>
    </g>
    <g id="Group_4065" data-name="Group 4065" transform="translate(318.442 358.79)">
      <rect id="Rectangle_17508" data-name="Rectangle 17508" width="1.252" height="31.729" fill="#cdcdcd"/>
    </g>
    <g id="Group_4066" data-name="Group 4066" transform="translate(343.005 437.465)">
      <rect id="Rectangle_17509" data-name="Rectangle 17509" width="13.777" height="1.253" transform="translate(0)" fill="#cdcdcd"/>
    </g>
    <g id="Group_4067" data-name="Group 4067" transform="translate(344.145 352.48)">
      <rect id="Rectangle_17510" data-name="Rectangle 17510" width="1.252" height="15.941" transform="translate(0 1.057) rotate(-57.569)" fill="#cdcdcd"/>
    </g>
    <g id="Group_4068" data-name="Group 4068" transform="translate(454.756 300.134)">
      <rect id="Rectangle_17511" data-name="Rectangle 17511" width="31.729" height="1.253" fill="#cdcdcd"/>
    </g>
    <g id="Group_4069" data-name="Group 4069" transform="translate(462.046 192.329)">
      <path id="Path_13904" data-name="Path 13904" d="M950.141,317.728a5.314,5.314,0,1,1,5.314-5.313A5.319,5.319,0,0,1,950.141,317.728Zm0-8.3a2.984,2.984,0,1,0,2.984,2.985A2.988,2.988,0,0,0,950.141,309.43Z" transform="translate(-944.828 -307.101)" fill="#cdcdcd"/>
    </g>
    <g id="Group_4070" data-name="Group 4070" transform="translate(430.727 196.479)">
      <rect id="Rectangle_17512" data-name="Rectangle 17512" width="33.267" height="2.329" fill="#cdcdcd"/>
    </g>
    <g id="Group_4071" data-name="Group 4071" transform="translate(426.761 201.189)">
      <rect id="Rectangle_17513" data-name="Rectangle 17513" width="29.223" height="1.253" transform="translate(0 0)" fill="#cdcdcd"/>
    </g>
    <g id="Group_4072" data-name="Group 4072" transform="translate(160.843 461.12)">
      <path id="Path_13905" data-name="Path 13905" d="M264.715,929.394a5.313,5.313,0,1,1,5.314-5.313A5.319,5.319,0,0,1,264.715,929.394Zm0-8.3a2.984,2.984,0,1,0,2.984,2.984A2.987,2.987,0,0,0,264.715,921.1Z" transform="translate(-259.402 -918.767)" fill="#cdcdcd"/>
    </g>
    <g id="Group_4073" data-name="Group 4073" transform="translate(169.522 465.268)">
      <rect id="Rectangle_17514" data-name="Rectangle 17514" width="35.773" height="2.329" fill="#cdcdcd"/>
    </g>
    <g id="Group_4074" data-name="Group 4074" transform="translate(177.533 471.547)">
      <rect id="Rectangle_17515" data-name="Rectangle 17515" width="31.729" height="1.253" fill="#cdcdcd"/>
    </g>
    <g id="Group_4075" data-name="Group 4075" transform="translate(234.613 133.766)">
      <rect id="Rectangle_17516" data-name="Rectangle 17516" width="1.252" height="26.719" transform="translate(0 0)" fill="#cdcdcd"/>
    </g>
    <g id="Group_4076" data-name="Group 4076" transform="translate(249.64 141.907)">
      <rect id="Rectangle_17517" data-name="Rectangle 17517" width="1.252" height="26.719" fill="#cdcdcd"/>
    </g>
    <g id="Group_4077" data-name="Group 4077" transform="translate(230.23 142.742)">
      <rect id="Rectangle_17518" data-name="Rectangle 17518" width="1.252" height="28.702" transform="translate(0 0)" fill="#cdcdcd"/>
    </g>
    <g id="Group_4078" data-name="Group 4078" transform="translate(470.972 321.9)">
      <path id="Path_13906" data-name="Path 13906" d="M977.808,607.8h-5.621l-7.048-4.806.706-1.035,6.728,4.587h5.234Z" transform="translate(-965.139 -601.955)" fill="#cdcdcd"/>
    </g>
    <g id="Group_4079" data-name="Group 4079" transform="translate(457.028 317.993)">
      <path id="Path_13907" data-name="Path 13907" d="M959.6,607.2h-7.818l-18.377-13.11.727-1.02,18.05,12.877H959.6Z" transform="translate(-933.408 -593.065)" fill="#cdcdcd"/>
    </g>
    <g id="Group_4084" data-name="Group 4084" transform="translate(386.006 249.07)">
      <g id="Group_4081" data-name="Group 4081" transform="translate(2.151 2.151)">
        <g id="Group_4080" data-name="Group 4080">
          <path id="Path_13908" data-name="Path 13908" d="M785.534,445.542a4.425,4.425,0,1,1-4.425-4.426A4.426,4.426,0,0,1,785.534,445.542Z" transform="translate(-776.683 -441.116)" fill="#60a4c2"/>
        </g>
      </g>
      <g id="Group_4083" data-name="Group 4083">
        <g id="Group_4082" data-name="Group 4082">
          <path id="Path_13909" data-name="Path 13909" d="M778.365,449.374a6.576,6.576,0,1,1,6.576-6.576A6.583,6.583,0,0,1,778.365,449.374Zm0-12.159a5.584,5.584,0,1,0,5.583,5.584A5.589,5.589,0,0,0,778.365,437.215Z" transform="translate(-771.789 -436.222)" fill="#60a4c2"/>
        </g>
      </g>
    </g>
    <g id="Group_4089" data-name="Group 4089" transform="translate(410.633 144.098)">
      <g id="Group_4086" data-name="Group 4086" transform="translate(2.151 2.151)">
        <g id="Group_4085" data-name="Group 4085">
          <path id="Path_13910" data-name="Path 13910" d="M841.575,206.666a4.426,4.426,0,1,1-4.426-4.425A4.426,4.426,0,0,1,841.575,206.666Z" transform="translate(-832.724 -202.241)" fill="#bdc2c5"/>
        </g>
      </g>
      <g id="Group_4088" data-name="Group 4088" transform="translate(0 0)">
        <g id="Group_4087" data-name="Group 4087">
          <path id="Path_13911" data-name="Path 13911" d="M834.406,210.5a6.576,6.576,0,1,1,6.576-6.576A6.583,6.583,0,0,1,834.406,210.5Zm0-12.159a5.583,5.583,0,1,0,5.583,5.583A5.589,5.589,0,0,0,834.406,198.339Z" transform="translate(-827.83 -197.346)" fill="#bdc2c5"/>
        </g>
      </g>
    </g>
    <g id="Group_4132" data-name="Group 4132" transform="translate(101.201 102.356)">
      <g id="Group_4112" data-name="Group 4112" transform="translate(240.711 30.135)">
        <g id="Group_4100" data-name="Group 4100">
          <g id="Group_4090" data-name="Group 4090" transform="translate(5.838)">
            <path id="Path_13912" data-name="Path 13912" d="M697.965,172.443H694.9v-1.511h-.666v1.511h-5.108v-1.511h-.665v1.511h-3.07a.652.652,0,0,0-.652.652v8.146a.652.652,0,0,0,.652.652h12.579a.652.652,0,0,0,.652-.652v-8.146A.652.652,0,0,0,697.965,172.443Zm-10.711,3.235a1.2,1.2,0,1,1,1.2,1.2A1.2,1.2,0,0,1,687.255,175.677Zm8.455,4.543h-8.068v-.872h8.068Zm-.812-3.343a1.2,1.2,0,1,1,1.2-1.2A1.2,1.2,0,0,1,694.9,176.877Z" transform="translate(-684.734 -170.932)" fill="#999"/>
          </g>
          <g id="Group_4094" data-name="Group 4094" transform="translate(0 11.774)">
            <g id="Group_4091" data-name="Group 4091" transform="translate(1.522)">
              <path id="Path_13913" data-name="Path 13913" d="M677.406,204.741h-2.494v-7.016h2.494Z" transform="translate(-674.911 -197.725)" fill="#999"/>
            </g>
            <g id="Group_4092" data-name="Group 4092" transform="translate(1.522 7.523)">
              <path id="Path_13914" data-name="Path 13914" d="M677.406,221.861h-2.494v-7.017h2.494Z" transform="translate(-674.911 -214.844)" fill="#999"/>
            </g>
            <g id="Group_4093" data-name="Group 4093" transform="translate(0 14.699)">
              <path id="Path_13915" data-name="Path 13915" d="M674.217,231.174a2.768,2.768,0,0,0-.867,5.4v-.944a1.9,1.9,0,1,1,1.734,0v.944a2.768,2.768,0,0,0-.867-5.4Z" transform="translate(-671.449 -231.174)" fill="#999"/>
            </g>
          </g>
          <g id="Group_4098" data-name="Group 4098" transform="translate(20.097 11.774)">
            <g id="Group_4095" data-name="Group 4095" transform="translate(1.521)">
              <path id="Path_13916" data-name="Path 13916" d="M723.138,204.741h-2.495v-7.016h2.495Z" transform="translate(-720.644 -197.725)" fill="#999"/>
            </g>
            <g id="Group_4096" data-name="Group 4096" transform="translate(1.521 7.523)">
              <path id="Path_13917" data-name="Path 13917" d="M723.138,221.861h-2.495v-7.017h2.495Z" transform="translate(-720.644 -214.844)" fill="#999"/>
            </g>
            <g id="Group_4097" data-name="Group 4097" transform="translate(0 14.699)">
              <path id="Path_13918" data-name="Path 13918" d="M719.95,231.174a2.768,2.768,0,0,0-.867,5.4v-.944a1.9,1.9,0,1,1,1.734,0v.944a2.768,2.768,0,0,0-.867-5.4Z" transform="translate(-717.182 -231.174)" fill="#999"/>
            </g>
          </g>
          <g id="Group_4099" data-name="Group 4099" transform="translate(4.47 11.396)">
            <path id="Path_13919" data-name="Path 13919" d="M697.588,196.865H682.273a.652.652,0,0,0-.652.652v11.569a.652.652,0,0,0,.652.652h15.316a.652.652,0,0,0,.652-.652V197.517A.652.652,0,0,0,697.588,196.865Zm-2.452,9a.968.968,0,0,1-.969.968h-3.037l2.058-2.059a.605.605,0,1,0-.856-.856l-2.914,2.915h-3.727a.968.968,0,0,1-.969-.968v-3.391a.968.968,0,0,1,.969-.968h8.475a.969.969,0,0,1,.969.968Z" transform="translate(-681.621 -196.865)" fill="#999"/>
          </g>
        </g>
        <g id="Group_4111" data-name="Group 4111" transform="translate(5.476 24.974)">
          <g id="Group_4102" data-name="Group 4102" transform="translate(2.243)">
            <g id="Group_4101" data-name="Group 4101">
              <rect id="Rectangle_17519" data-name="Rectangle 17519" width="4.116" height="6.417" fill="#999"/>
            </g>
          </g>
          <g id="Group_4104" data-name="Group 4104" transform="translate(2.243 7.082)">
            <g id="Group_4103" data-name="Group 4103">
              <rect id="Rectangle_17520" data-name="Rectangle 17520" width="4.116" height="3.044" fill="#999"/>
            </g>
          </g>
          <g id="Group_4105" data-name="Group 4105" transform="translate(0 10.54)">
            <path id="Path_13920" data-name="Path 13920" d="M690.932,253.11a1.281,1.281,0,0,1-1.18,1.362h-4.661a1.281,1.281,0,0,1-1.18-1.362h0a1.281,1.281,0,0,1,1.18-1.362h4.661a1.281,1.281,0,0,1,1.18,1.362Z" transform="translate(-683.911 -251.748)" fill="#999"/>
          </g>
          <g id="Group_4107" data-name="Group 4107" transform="translate(8.323)">
            <g id="Group_4106" data-name="Group 4106">
              <rect id="Rectangle_17521" data-name="Rectangle 17521" width="4.116" height="6.417" fill="#999"/>
            </g>
          </g>
          <g id="Group_4109" data-name="Group 4109" transform="translate(8.323 7.082)">
            <g id="Group_4108" data-name="Group 4108">
              <rect id="Rectangle_17522" data-name="Rectangle 17522" width="4.116" height="3.044" fill="#999"/>
            </g>
          </g>
          <g id="Group_4110" data-name="Group 4110" transform="translate(7.659 10.54)">
            <path id="Path_13921" data-name="Path 13921" d="M701.341,253.11a1.281,1.281,0,0,0,1.181,1.362h4.661a1.281,1.281,0,0,0,1.18-1.362h0a1.281,1.281,0,0,0-1.18-1.362h-4.661a1.282,1.282,0,0,0-1.181,1.362Z" transform="translate(-701.341 -251.748)" fill="#999"/>
          </g>
        </g>
      </g>
      <g id="Group_4115" data-name="Group 4115" transform="translate(0 223.49)">
        <g id="Group_4113" data-name="Group 4113" transform="translate(18.859 7.605)">
          <path id="Path_13922" data-name="Path 13922" d="M185.187,635.66c0-3.56-3.47-6.553-8.175-7.419a8.474,8.474,0,0,1,.295,2.22,8.733,8.733,0,0,1-1.314,4.573,11.9,11.9,0,0,1-3.422,3.56,17.309,17.309,0,0,1-5.973,2.6,13.754,13.754,0,0,0,7.61,2.142q.637,0,1.257-.05l7.484,3.468-3.391-4.389C182.916,641.048,185.187,638.539,185.187,635.66Z" transform="translate(-166.597 -628.241)" fill="#bdc2c5"/>
        </g>
        <g id="Group_4114" data-name="Group 4114">
          <path id="Path_13923" data-name="Path 13923" d="M151.8,620.76c0-5.425-6.3-9.824-14.061-9.824s-14.061,4.4-14.061,9.824c0,4.126,3.64,7.658,8.8,9.114l-2.312,6.2,8.489-5.505C146,630.234,151.8,625.972,151.8,620.76Z" transform="translate(-123.681 -610.936)" fill="#bdc2c5"/>
        </g>
      </g>
      <g id="Group_4116" data-name="Group 4116" transform="translate(192.164 319.479)">
        <path id="Path_13924" data-name="Path 13924" d="M587.045,840.99a3.6,3.6,0,0,0-.879-2.676,2.873,2.873,0,0,0-2.173-.907h-5.108c-.01-.739-.01-1.9.043-2.928a6.829,6.829,0,0,0-1.575-4.248,2.163,2.163,0,0,0-1.3-.835,3.434,3.434,0,0,0-.428-.026c-.943,0-2.055.377-2.273,1.2a2.35,2.35,0,0,0,.088,1.138,4.793,4.793,0,0,1,.118,2.118,18.9,18.9,0,0,1-3.436,6.077,3.081,3.081,0,0,1-.893.485,1.578,1.578,0,0,0-1.426-1.012h-5.612a1.133,1.133,0,0,0-1.155,1.272l-.059,11.025a.684.684,0,0,0,.006.095,1.57,1.57,0,0,0,1.508,1.328h7.163a1.136,1.136,0,0,0,1.149-1.328l-.05-.364a2.65,2.65,0,0,1,.582.134A20.079,20.079,0,0,0,576.5,853h6.389a2.386,2.386,0,0,0,2.325-1.318,2.163,2.163,0,0,0-.073-1.617c0-.045,0-.085-.006-.112,0-.01,0-.021,0-.033a1.858,1.858,0,0,0,1.451-1.53,2.558,2.558,0,0,0-.406-2,2.106,2.106,0,0,0,1.2-2.249,2.628,2.628,0,0,0-1.042-1.882A1.692,1.692,0,0,0,587.045,840.99Z" transform="translate(-560.974 -829.37)" fill="#bdc2c5"/>
      </g>
      <g id="Group_4119" data-name="Group 4119" transform="translate(94.959 166.41)">
        <g id="Group_4117" data-name="Group 4117" transform="translate(14.13)">
          <path id="Path_13925" data-name="Path 13925" d="M388.238,489.381a6.718,6.718,0,0,0-.7.036c.012-.179.018-.359.018-.54a7.835,7.835,0,0,0-15.636-.725,5.991,5.991,0,0,1,2.319,4.668h.057a4.814,4.814,0,0,1,4.912,4.7,4.651,4.651,0,0,1-2.15,3.882h11.207a6.016,6.016,0,1,0-.033-12.019Z" transform="translate(-371.926 -481.043)" fill="#636363"/>
        </g>
        <g id="Group_4118" data-name="Group 4118" transform="translate(0 6.696)">
          <path id="Path_13926" data-name="Path 13926" d="M360.339,506.061a3.965,3.965,0,0,0-4.063-3.85,4.457,4.457,0,0,0-.45.024l-.5.053.035-.5c.008-.121.011-.24.011-.355a5.148,5.148,0,0,0-10.279-.418l-.036.446-.443-.058a4.364,4.364,0,0,0-.566-.037,4.275,4.275,0,0,0-.023,8.55H356.3A3.967,3.967,0,0,0,360.339,506.061Z" transform="translate(-339.771 -496.28)" fill="#636363"/>
        </g>
      </g>
      <g id="Group_4122" data-name="Group 4122" transform="translate(156.69 270.863)">
        <g id="Group_4120" data-name="Group 4120">
          <path id="Path_13927" data-name="Path 13927" d="M501.113,720.495h-.577v-.559a.2.2,0,0,0-.2-.2h-3.124a.2.2,0,0,0-.2.2v.559h-2.367l-1.005-1.524a.254.254,0,0,0-.271-.232h-4.112a.253.253,0,0,0-.27.232l-1.006,1.524h-6.47a1.26,1.26,0,0,0-1.26,1.26v12.125a1.26,1.26,0,0,0,1.26,1.259h19.6a1.26,1.26,0,0,0,1.259-1.259V721.755A1.26,1.26,0,0,0,501.113,720.495Zm-9.8,12.61a5.288,5.288,0,1,1,5.288-5.288A5.288,5.288,0,0,1,491.311,733.1Z" transform="translate(-480.249 -718.739)" fill="#cdcdcd"/>
        </g>
        <g id="Group_4121" data-name="Group 4121" transform="translate(7.536 5.553)">
          <path id="Path_13928" data-name="Path 13928" d="M500.925,731.376a3.525,3.525,0,1,0,3.525,3.524A3.525,3.525,0,0,0,500.925,731.376Z" transform="translate(-497.399 -731.376)" fill="#cdcdcd"/>
        </g>
      </g>
      <g id="Group_4123" data-name="Group 4123" transform="translate(325.748 241.144)">
        <path id="Path_13929" data-name="Path 13929" d="M885.633,656.017c0,5.71-10.337,12.953-10.337,12.953s-10.336-7.243-10.336-12.953,7.534-6.623,10.336-1.754C877.931,649.488,885.633,650.307,885.633,656.017Z" transform="translate(-864.96 -651.11)" fill="#999"/>
      </g>
      <g id="Group_4124" data-name="Group 4124" transform="translate(120.087 368.441)">
        <path id="Path_13930" data-name="Path 13930" d="M404.916,940.789H403.8v15.841a5.926,5.926,0,0,0-3.548.319c-2.3.882-3.725,2.724-3.191,4.115s2.828,1.8,5.125.922c1.923-.738,3.232-2.149,3.295-3.405l.007,0V946.339a6.271,6.271,0,0,1,3.195,5.309c.039,2.458-.624,3.5-1,3.8-.519.414.044.7.38.446.624-.466,2.062-1.547,2.062-5.311s-2.27-5.343-3.884-7.1A3.951,3.951,0,0,1,404.916,940.789Z" transform="translate(-396.954 -940.789)" fill="#636363"/>
      </g>
      <g id="Group_4125" data-name="Group 4125" transform="translate(192.336)">
        <path id="Path_13931" data-name="Path 13931" d="M579.442,123.516l.337-2.674a20.624,20.624,0,0,0,6.031-4.916c5.292-6.4,4.757-11.649,4.757-11.649l1.552-1.921-2.093,1.291s-5.105-1.329-12.237,2.925a20.61,20.61,0,0,0-5.773,5.2l-2.706-.076s-3.829.667-7.943,5.555c0,0,4.258-.776,6.4.8l-1.039,1.658s-.169.991,1.611,3.067,2.795,2.071,2.795,2.071l1.8-.774c1.223,2.36-.19,6.442-.19,6.442C578.2,127.2,579.442,123.516,579.442,123.516Zm2.972-12.795a1.779,1.779,0,1,1,2.509.192A1.779,1.779,0,0,1,582.414,110.721Z" transform="translate(-561.366 -102.356)" fill="#33845d"/>
      </g>
      <g id="Group_4130" data-name="Group 4130" transform="translate(30.174 317.516)">
        <g id="Group_4126" data-name="Group 4126" transform="translate(0 11.294)">
          <path id="Path_13932" data-name="Path 13932" d="M197.348,850.6c-2.764,0-5,3.384-5,7.559,0,.2,0,.4.015.593h6.962a14.849,14.849,0,0,1,1.635-5.828A4.413,4.413,0,0,0,197.348,850.6Z" transform="translate(-192.345 -850.603)" fill="#60a4c2"/>
        </g>
        <g id="Group_4127" data-name="Group 4127" transform="translate(1.822 4.81)">
          <path id="Path_13933" data-name="Path 13933" d="M199.672,835.848a3.041,3.041,0,1,0,3.182,3.038A3.112,3.112,0,0,0,199.672,835.848Z" transform="translate(-196.491 -835.848)" fill="#60a4c2"/>
        </g>
        <g id="Group_4128" data-name="Group 4128" transform="translate(8.443 9.52)">
          <path id="Path_13934" data-name="Path 13934" d="M224.795,851.033c-1.339-2.711-3.479-4.468-5.891-4.468-2.3,0-4.358,1.6-5.705,4.107a14.452,14.452,0,0,0-1.588,5.655c-.033.439-.053.881-.053,1.331,0,.293.009.584.023.871h14.645c.014-.287.02-.577.02-.871,0-.218,0-.435-.013-.653A14.836,14.836,0,0,0,224.795,851.033Z" transform="translate(-211.558 -846.565)" fill="#60a4c2"/>
        </g>
        <g id="Group_4129" data-name="Group 4129" transform="translate(11.119)">
          <path id="Path_13935" data-name="Path 13935" d="M222.317,824.9a4.465,4.465,0,1,0,4.668,4.462A4.57,4.57,0,0,0,222.317,824.9Z" transform="translate(-217.648 -824.902)" fill="#60a4c2"/>
        </g>
      </g>
      <g id="Group_4131" data-name="Group 4131" transform="translate(93.378 290.811)">
        <path id="Path_13936" data-name="Path 13936" d="M336.174,776.851a12.715,12.715,0,0,0,19.52,10.747l1.493,2.612,2.417-4.563,2.416-4.563-5.157-.231-5.158-.23,1.434,2.508a7.487,7.487,0,0,1-4.244,1.3,7.577,7.577,0,1,1,5.66-12.613,2.572,2.572,0,1,0,3.842-3.42,12.72,12.72,0,0,0-22.223,8.454Z" transform="translate(-336.174 -764.132)" fill="#cdcdcd"/>
      </g>
    </g>
    <g id="Group_4133" data-name="Group 4133" transform="translate(97.581 305.049)">
      <path id="Path_13937" data-name="Path 13937" d="M120.755,574.235a5.313,5.313,0,1,1,5.314-5.313A5.319,5.319,0,0,1,120.755,574.235Zm0-8.3a2.984,2.984,0,1,0,2.985,2.984A2.987,2.987,0,0,0,120.755,565.938Z" transform="translate(-115.442 -563.609)" fill="#c84b2a"/>
    </g>
    <g id="Group_4134" data-name="Group 4134" transform="translate(467.992 319.165)">
      <path id="Path_13938" data-name="Path 13938" d="M959.76,601.387a3.075,3.075,0,1,1,4.253-.908A3.075,3.075,0,0,1,959.76,601.387Z" transform="translate(-958.358 -595.732)" fill="#cdcdcd"/>
    </g>
    <g id="Group_4144" data-name="Group 4144" transform="translate(122.43 149.195)">
      <g id="Group_4135" data-name="Group 4135" transform="translate(109.239 267.313)">
        <circle id="Ellipse_145" data-name="Ellipse 145" cx="26.928" cy="26.928" r="26.928" transform="matrix(0.018, -1, 1, 0.018, 0, 53.848)" fill="#c84b2a"/>
      </g>
      <g id="Group_4136" data-name="Group 4136" transform="translate(64.046 302.78)">
        <path id="Path_13939" data-name="Path 13939" d="M350.658,912.7a16.509,16.509,0,1,1-18.183-14.644A16.508,16.508,0,0,1,350.658,912.7Z" transform="translate(-317.733 -897.956)" fill="#eebd3a"/>
      </g>
      <g id="Group_4137" data-name="Group 4137" transform="translate(231.151 262.212)">
        <path id="Path_13940" data-name="Path 13940" d="M756.7,831.109a29.484,29.484,0,1,1-33.228-25.19A29.484,29.484,0,0,1,756.7,831.109Z" transform="translate(-698.001 -805.64)" fill="#3d3d3d"/>
      </g>
      <g id="Group_4138" data-name="Group 4138" transform="translate(294.444 125.339)">
        <path id="Path_13941" data-name="Path 13941" d="M893.384,519.843a25.676,25.676,0,1,1-25.675-25.675A25.675,25.675,0,0,1,893.384,519.843Z" transform="translate(-842.033 -494.168)" fill="#a9c732"/>
      </g>
      <g id="Group_4139" data-name="Group 4139" transform="translate(0 79.95)">
        <path id="Path_13942" data-name="Path 13942" d="M205.18,407.476a16.6,16.6,0,1,1-16.6-16.6A16.6,16.6,0,0,1,205.18,407.476Z" transform="translate(-171.989 -390.881)" fill="#60a4c2"/>
      </g>
      <g id="Group_4140" data-name="Group 4140" transform="translate(94.762 79.904)">
        <circle id="Ellipse_146" data-name="Ellipse 146" cx="62.934" cy="62.934" r="62.934" transform="translate(0 117.734) rotate(-69.288)" fill="#33845d"/>
      </g>
      <g id="Group_4141" data-name="Group 4141" transform="translate(12.441 215.445)">
        <path id="Path_13943" data-name="Path 13943" d="M246.64,722.384a23.17,23.17,0,1,1-23.17-23.169A23.17,23.17,0,0,1,246.64,722.384Z" transform="translate(-200.3 -699.215)" fill="#a9c732"/>
      </g>
      <g id="Group_4142" data-name="Group 4142" transform="translate(239.496 15.927)">
        <path id="Path_13944" data-name="Path 13944" d="M798.4,285.892a40.7,40.7,0,1,1-40.7-40.7A40.7,40.7,0,0,1,798.4,285.892Z" transform="translate(-716.992 -245.187)" fill="#eebd3a"/>
      </g>
      <g id="Group_4143" data-name="Group 4143" transform="translate(86.282)">
        <path id="Path_13945" data-name="Path 13945" d="M436.906,243.229a34.286,34.286,0,1,1-34.286-34.285A34.287,34.287,0,0,1,436.906,243.229Z" transform="translate(-368.334 -208.944)" fill="#c84b2a"/>
      </g>
    </g>
    <g id="Group_4172" data-name="Group 4172" transform="translate(129.179 170.423)">
      <g id="Group_4147" data-name="Group 4147" transform="translate(248.062 15.034)">
        <g id="Group_4145" data-name="Group 4145">
          <path id="Path_13946" data-name="Path 13946" d="M780.615,305.6l2.406-1.52a15.651,15.651,0,0,0-1.176-3.6l-2.842.206a12.691,12.691,0,0,0-.923-1.412l1.324-2.514a15.954,15.954,0,0,0-2.822-2.524l-2.355,1.6a13.237,13.237,0,0,0-1.5-.764l-.112-2.839a15.656,15.656,0,0,0-3.706-.773l-1.239,2.558c-.414,0-.831.012-1.25.047-.145.014-.289.033-.432.05l-1.519-2.408a15.689,15.689,0,0,0-3.6,1.178l.205,2.842a12.786,12.786,0,0,0-1.41.923l-2.517-1.324a15.842,15.842,0,0,0-2.522,2.823l1.6,2.354a13.13,13.13,0,0,0-.766,1.5l-2.839.111a15.726,15.726,0,0,0-.772,3.708l2.559,1.238c0,.414.011.831.047,1.251.014.146.032.288.049.432l-2.407,1.518a15.722,15.722,0,0,0,1.176,3.6l2.84-.207a13.154,13.154,0,0,0,.924,1.412l-1.323,2.515a15.782,15.782,0,0,0,2.823,2.524l2.355-1.6a12.815,12.815,0,0,0,1.5.765l.112,2.84a15.693,15.693,0,0,0,3.706.772l1.241-2.558c.412,0,.831-.012,1.251-.047.145-.013.287-.033.431-.05l1.518,2.409a15.7,15.7,0,0,0,3.6-1.177l-.205-2.841a13.547,13.547,0,0,0,1.411-.924l2.515,1.323a15.949,15.949,0,0,0,2.524-2.822l-1.6-2.355a13.743,13.743,0,0,0,.764-1.5l2.839-.111a15.627,15.627,0,0,0,.772-3.707l-2.557-1.24c0-.414-.011-.831-.048-1.251C780.652,305.891,780.632,305.749,780.615,305.6Zm-6.58,1.007a6.5,6.5,0,1,1-7.045-5.914A6.5,6.5,0,0,1,774.036,306.612Z" transform="translate(-751.843 -291.464)" fill="#fff"/>
        </g>
        <g id="Group_4146" data-name="Group 4146" transform="translate(27.588 15.924)">
          <path id="Path_13947" data-name="Path 13947" d="M834.68,333.1a10.121,10.121,0,0,0-1.23-1.159l.525-2.077a12.388,12.388,0,0,0-2.367-1.268l-1.442,1.59a10.516,10.516,0,0,0-1.64-.386l-.587-2.067a12.311,12.311,0,0,0-2.681.088l-.457,2.093a10.264,10.264,0,0,0-1.611.493l-1.54-1.493a12.04,12.04,0,0,0-1.182.642,12.442,12.442,0,0,0-1.1.769l.653,2.046a10.534,10.534,0,0,0-1.157,1.228l-2.078-.523a12.431,12.431,0,0,0-1.268,2.364l1.591,1.444a10.6,10.6,0,0,0-.385,1.64l-2.064.588a12.29,12.29,0,0,0,.084,2.683l2.1.451a10.6,10.6,0,0,0,.488,1.617l-1.493,1.539a11.852,11.852,0,0,0,.645,1.177,12.673,12.673,0,0,0,.769,1.1l2.044-.657a10.622,10.622,0,0,0,1.229,1.158l-.523,2.08a12.362,12.362,0,0,0,2.363,1.264l1.444-1.589a10.286,10.286,0,0,0,1.64.385l.588,2.066a12.539,12.539,0,0,0,2.681-.085l.454-2.095a10.3,10.3,0,0,0,1.615-.491l1.542,1.494a11.909,11.909,0,0,0,1.178-.643,12.341,12.341,0,0,0,1.1-.771l-.654-2.042a10.537,10.537,0,0,0,1.156-1.23l2.08.523a12.3,12.3,0,0,0,1.266-2.364l-1.589-1.446a10.7,10.7,0,0,0,.386-1.637l2.064-.587a12.511,12.511,0,0,0-.084-2.684l-2.094-.454a10.89,10.89,0,0,0-.492-1.615l1.495-1.538a12.342,12.342,0,0,0-1.417-2.282Zm-3.8,4.813a4.672,4.672,0,1,1-6.435-1.505A4.675,4.675,0,0,1,830.884,337.915Z" transform="translate(-814.624 -327.701)" fill="#fff"/>
        </g>
      </g>
      <g id="Group_4151" data-name="Group 4151" transform="translate(123.665 105.093)">
        <g id="Group_4150" data-name="Group 4150">
          <g id="Group_4148" data-name="Group 4148" transform="translate(5.181)">
            <path id="Path_13948" data-name="Path 13948" d="M556.577,496.4h-73.3a2.637,2.637,0,0,0-2.727,2.539v51.092a2.638,2.638,0,0,0,2.727,2.539h73.3a2.639,2.639,0,0,0,2.727-2.539V498.942A2.638,2.638,0,0,0,556.577,496.4Zm-4.862,47.724a2.088,2.088,0,0,1-2.2,1.952h-59.17a2.088,2.088,0,0,1-2.2-1.952V504.848a2.088,2.088,0,0,1,2.2-1.952h59.17a2.088,2.088,0,0,1,2.2,1.952Z" transform="translate(-480.553 -496.403)" fill="#fff"/>
          </g>
          <g id="Group_4149" data-name="Group 4149" transform="translate(0 58.261)">
            <path id="Path_13949" data-name="Path 13949" d="M468.764,628.984v3.39a3.234,3.234,0,0,0,3.086,3.363h82.94a3.235,3.235,0,0,0,3.087-3.363v-3.39Zm50.693,3.923H507.183a.87.87,0,0,1,0-1.738h12.274a.87.87,0,0,1,0,1.738Z" transform="translate(-468.764 -628.984)" fill="#fff"/>
          </g>
        </g>
      </g>
      <g id="Group_4154" data-name="Group 4154" transform="translate(297.649 119.641)">
        <g id="Group_4152" data-name="Group 4152" transform="translate(0 2.855)">
          <path id="Path_13950" data-name="Path 13950" d="M864.685,536.006v14.6a1.9,1.9,0,0,0,1.924,1.865h27.17A1.9,1.9,0,0,0,895.7,550.6V536.02l-15.514,8.335Z" transform="translate(-864.685 -536.006)" fill="#fff"/>
        </g>
        <g id="Group_4153" data-name="Group 4153">
          <path id="Path_13951" data-name="Path 13951" d="M893.779,529.509h-27.17a1.924,1.924,0,0,0-1.924,1.924v.322l15.51,7.672,15.509-7.672v-.322A1.925,1.925,0,0,0,893.779,529.509Z" transform="translate(-864.685 -529.509)" fill="#fff"/>
        </g>
      </g>
      <g id="Group_4157" data-name="Group 4157" transform="translate(233.052 251.989)">
        <g id="Group_4155" data-name="Group 4155" transform="translate(37.865 26.713)">
          <path id="Path_13952" data-name="Path 13952" d="M803.855,895.741l1.041.621c.852.507,2.107-.03,2.8-1.2s.572-2.531-.28-3.038l-1.088-.648a13.231,13.231,0,0,1-1.127,2.46A10.544,10.544,0,0,1,803.855,895.741Z" transform="translate(-803.855 -891.473)" fill="#fff"/>
        </g>
        <g id="Group_4156" data-name="Group 4156">
          <path id="Path_13953" data-name="Path 13953" d="M719.625,837.4a13.744,13.744,0,0,0,22.165,16.07l12.2,7.268a11.28,11.28,0,0,0,2.489-4.261l-12.168-7.246a13.745,13.745,0,0,0-24.69-11.831Zm20.107,11.973a9.656,9.656,0,1,1-3.356-13.236A9.658,9.658,0,0,1,739.732,849.371Z" transform="translate(-717.688 -830.683)" fill="#fff"/>
        </g>
      </g>
      <g id="Group_4164" data-name="Group 4164" transform="translate(93.1)">
        <g id="Group_4158" data-name="Group 4158">
          <rect id="Rectangle_17523" data-name="Rectangle 17523" width="42.197" height="2.536" fill="#fff"/>
        </g>
        <g id="Group_4159" data-name="Group 4159" transform="translate(0 4.892)">
          <rect id="Rectangle_17524" data-name="Rectangle 17524" width="42.197" height="2.537" fill="#fff"/>
        </g>
        <g id="Group_4160" data-name="Group 4160" transform="translate(0 9.785)">
          <rect id="Rectangle_17525" data-name="Rectangle 17525" width="42.197" height="2.537" fill="#fff"/>
        </g>
        <g id="Group_4161" data-name="Group 4161" transform="translate(0 14.677)">
          <rect id="Rectangle_17526" data-name="Rectangle 17526" width="42.197" height="2.537" fill="#fff"/>
        </g>
        <g id="Group_4162" data-name="Group 4162" transform="translate(0 19.571)">
          <rect id="Rectangle_17527" data-name="Rectangle 17527" width="42.197" height="2.536" fill="#fff"/>
        </g>
        <g id="Group_4163" data-name="Group 4163" transform="translate(0 24.463)">
          <rect id="Rectangle_17528" data-name="Rectangle 17528" width="20.982" height="2.537" fill="#fff"/>
        </g>
      </g>
      <g id="Group_4165" data-name="Group 4165" transform="translate(114.748 253.033)">
        <path id="Path_13954" data-name="Path 13954" d="M475.267,846.765h-.892v-2.85a10.854,10.854,0,1,0-21.708,0v2.85h-.892a3.3,3.3,0,0,0-3.3,3.3v15.679a3.305,3.305,0,0,0,3.3,3.3h23.492a3.3,3.3,0,0,0,3.3-3.3V850.069A3.3,3.3,0,0,0,475.267,846.765Zm-17.841-2.85a6.1,6.1,0,1,1,12.19,0v2.85h-12.19Z" transform="translate(-448.471 -833.059)" fill="#fff"/>
      </g>
      <g id="Group_4166" data-name="Group 4166" transform="translate(63.824 287.424)">
        <path id="Path_13955" data-name="Path 13955" d="M343.012,911.321l3.221,6.526,7.2,1.047-5.212,5.08,1.231,7.174-6.442-3.387-6.444,3.387,1.231-7.174-5.211-5.08,7.2-1.047Z" transform="translate(-332.588 -911.321)" fill="#fff"/>
      </g>
      <g id="Group_4167" data-name="Group 4167" transform="translate(0 66.288)">
        <path id="Path_13956" data-name="Path 13956" d="M202.757,415.106l-1.849-.023a14.156,14.156,0,0,0-3.818-3.732c-4.773-3.115-8.311-2.344-8.311-2.344l-1.43-.91,1.042,1.328s-.513,3.584,2.94,8.119a14.129,14.129,0,0,0,3.993,3.535l.157,1.851s.751,2.56,4.4,4.987c0,0-.858-2.845.051-4.428l1.212.581s.689.039,1.967-1.335,1.2-2.065,1.2-2.065l-.666-1.165c1.515-1.016,4.407-.368,4.407-.368C205.364,415.67,202.757,415.106,202.757,415.106Zm-8.954-1.037a1.222,1.222,0,1,1-.063-1.727A1.221,1.221,0,0,1,193.8,414.069Z" transform="translate(-187.348 -408.097)" fill="#fff"/>
      </g>
      <g id="Group_4171" data-name="Group 4171" transform="translate(13.094 204.606)">
        <g id="Group_4168" data-name="Group 4168" transform="translate(13.129 17.673)">
          <path id="Path_13957" data-name="Path 13957" d="M250.793,763.076a3.819,3.819,0,1,0,3.868,3.772A3.818,3.818,0,0,0,250.793,763.076Z" transform="translate(-247.023 -763.075)" fill="#fff"/>
        </g>
        <g id="Group_4169" data-name="Group 4169" transform="translate(6.259 8.821)">
          <path id="Path_13958" data-name="Path 13958" d="M241.865,742.934a13.186,13.186,0,0,0-10.477,5.626l3.958,3.427a8.129,8.129,0,0,1,13.441.07l3.91-3.472A13.232,13.232,0,0,0,241.865,742.934Z" transform="translate(-231.388 -742.933)" fill="#fff"/>
        </g>
        <g id="Group_4170" data-name="Group 4170">
          <path id="Path_13959" data-name="Path 13959" d="M233.77,722.86a20.81,20.81,0,0,0-16.624,9.031l3.96,3.427a15.549,15.549,0,0,1,25.876,0l3.91-3.474A20.867,20.867,0,0,0,233.77,722.86Z" transform="translate(-217.146 -722.858)" fill="#fff"/>
        </g>
      </g>
    </g>
  </g>
</svg>
