<svg width="1440" height="1183" viewBox="0 0 1440 1183" fill="none" xmlns="http://www.w3.org/2000/svg">
<path fill-rule="evenodd" clip-rule="evenodd" d="M1348.51 862.426L1440 954.086V860.691L1395.13 815.734L1348.51 862.426Z" fill="#C6AA76" fill-opacity="0.12"/>
<path fill-rule="evenodd" clip-rule="evenodd" d="M1224.57 738.244L1271.17 691.564L1242.21 662.548L1440 464.395V371L1149 662.548L1224.57 738.244Z" fill="#C6AA76" fill-opacity="0.12"/>
<path fill-rule="evenodd" clip-rule="evenodd" d="M1280.9 930.161L1242.21 891.412L1309.83 823.68L1356.44 776.977L1378.19 755.175L1440 693.27V599.887L1323.56 716.541L1323.58 716.564L1309.86 730.309L1263.26 777L1219.42 820.918L1219.4 820.894L1149 891.412L1440 1182.95V1089.56L1280.9 930.161Z" fill="#C6AA76" fill-opacity="0.12"/>
<g opacity="0.12">
<path fill-rule="evenodd" clip-rule="evenodd" d="M37.9252 214.451L-2 254.451V213.695L17.5824 194.076L37.9252 214.451Z" fill="#C6AA76"/>
<path fill-rule="evenodd" clip-rule="evenodd" d="M92.0109 160.26L71.6732 139.89L84.3119 127.227L-1.99878 40.7562V0L124.987 127.227L92.0109 160.26Z" fill="#C6AA76"/>
<path fill-rule="evenodd" clip-rule="evenodd" d="M67.4292 244.01L84.3127 227.1L54.8056 197.544L34.4628 177.163L24.9712 167.649L-1.99805 140.634V99.8831L48.8135 150.789L48.8035 150.799L54.7905 156.797L75.1282 177.173L94.2575 196.338L94.2675 196.328L124.988 227.1L-1.99805 354.323V313.572L67.4292 244.01Z" fill="#C6AA76"/>
</g>
</svg>
