<svg width="82" height="140" viewBox="0 0 82 140" fill="none" xmlns="http://www.w3.org/2000/svg">
<path d="M72.601 0H9.32199V110.165H72.601V0Z" fill="#33845D"/>
<path d="M65.993 65.593H63.411C63.3736 65.5889 63.3358 65.5932 63.3003 65.6057C63.2648 65.6181 63.2326 65.6384 63.206 65.665C63.1794 65.6916 63.1591 65.7238 63.1467 65.7593C63.1342 65.7948 63.1299 65.8326 63.134 65.87V72.932C63.1782 73.3443 63.0638 73.758 62.814 74.089C62.6727 74.207 62.5096 74.2961 62.3339 74.351C62.1582 74.4059 61.9733 74.4256 61.79 74.409H55.464C54.8881 74.4399 54.3166 74.293 53.827 73.988C53.6327 73.8572 53.4703 73.6842 53.3521 73.482C53.2338 73.2798 53.1627 73.0535 53.144 72.82V72.12C53.1468 71.2213 53.0393 70.3256 52.824 69.453C52.6297 68.643 52.266 67.8834 51.757 67.224C51.2201 66.5555 50.5281 66.0282 49.741 65.688C48.7484 65.2759 47.6791 65.0812 46.605 65.117C45.5877 65.0859 44.5783 65.3057 43.666 65.757C42.8876 66.1645 42.1872 66.7061 41.597 67.357C41.485 67.469 41.506 67.597 41.656 67.746L43.107 69.255C43.1315 69.2834 43.1618 69.3061 43.1959 69.3217C43.23 69.3373 43.267 69.3454 43.3045 69.3454C43.342 69.3454 43.379 69.3373 43.4131 69.3217C43.4472 69.3061 43.4775 69.2834 43.502 69.255C43.8865 68.8489 44.342 68.5164 44.846 68.274C45.3714 68.0276 45.9458 67.9035 46.526 67.911C47.0772 67.8889 47.6257 67.9986 48.126 68.231C48.5344 68.4359 48.886 68.7381 49.15 69.111C49.4148 69.5076 49.5962 69.954 49.683 70.423C49.8003 70.9627 49.8577 71.5137 49.854 72.066C49.8604 72.4428 49.8319 72.8194 49.769 73.191C49.7311 73.4653 49.6144 73.7227 49.433 73.932C49.2449 74.1301 49.0006 74.2658 48.733 74.321C48.3478 74.4046 47.9541 74.4422 47.56 74.433H36.781C36.3481 74.4239 35.9354 74.248 35.629 73.942C35.2511 73.51 35.0476 72.9528 35.058 72.379C35.085 72.048 35.101 71.686 35.101 71.27C35.1075 70.7257 35.0717 70.1818 34.994 69.643C34.9214 69.2085 34.8144 68.7805 34.674 68.363C34.3312 67.3566 33.6385 66.5068 32.722 65.968C31.6992 65.3764 30.532 65.0811 29.351 65.115H18.906C18.4525 65.0703 17.9948 65.1232 17.5635 65.2704C17.1322 65.4175 16.7375 65.6554 16.406 65.968C15.8427 66.7374 15.5773 67.6849 15.659 68.635V82.401C15.6526 82.4391 15.6553 82.4781 15.6669 82.5149C15.6784 82.5518 15.6985 82.5854 15.7255 82.6129C15.7525 82.6405 15.7857 82.6614 15.8223 82.6737C15.8588 82.686 15.8978 82.6896 15.936 82.684H18.518C18.5559 82.6883 18.5944 82.6839 18.6304 82.6711C18.6663 82.6583 18.6989 82.6375 18.7256 82.6102C18.7523 82.5829 18.7725 82.5499 18.7845 82.5136C18.7965 82.4774 18.8001 82.4388 18.795 82.401V69.391C18.7509 68.9768 18.8652 68.5613 19.115 68.228C19.2563 68.11 19.4194 68.0209 19.5951 67.966C19.7708 67.9111 19.9557 67.8914 20.139 67.908H24.193C24.1211 68.0549 24.0586 68.2062 24.006 68.361C23.8631 68.7778 23.7561 69.206 23.686 69.641C23.5366 70.7205 23.5366 71.8155 23.686 72.895C23.7561 73.33 23.8631 73.7582 24.006 74.175C24.3483 75.1801 25.0389 76.0297 25.953 76.57C26.9858 77.1629 28.1626 77.4581 29.353 77.423C30.534 77.4568 31.7012 77.1615 32.724 76.57C33.1082 76.3389 33.4569 76.0533 33.759 75.722C33.9797 76.0709 34.2701 76.3705 34.612 76.602C34.914 76.795 35.2429 76.9423 35.588 77.039C35.924 77.1312 36.269 77.1865 36.617 77.204C36.964 77.204 37.3 77.236 37.617 77.236H48.775C49.5511 77.2581 50.3246 77.1388 51.058 76.884C51.6917 76.642 52.214 76.1749 52.525 75.572C52.6461 75.8776 52.8291 76.1548 53.0624 76.3862C53.2958 76.6177 53.5745 76.7984 53.881 76.917C54.5449 77.1359 55.2411 77.2404 55.94 77.226H63.018C63.4711 77.2718 63.9288 77.2198 64.3601 77.0735C64.7914 76.9272 65.1863 76.69 65.518 76.378C66.0795 75.6075 66.3463 74.6613 66.27 73.711V65.87C66.2753 65.8324 66.2719 65.794 66.2598 65.758C66.2478 65.7219 66.2275 65.6892 66.2007 65.6623C66.1738 65.6355 66.1411 65.6152 66.105 65.6032C66.069 65.5911 66.0306 65.5877 65.993 65.593ZM31.921 72.383C31.8827 72.674 31.8129 72.96 31.713 73.236C31.5312 73.6564 31.2238 74.0102 30.833 74.249C30.3852 74.5083 29.8732 74.6359 29.356 74.617C28.8338 74.6352 28.3169 74.5078 27.863 74.249C27.4698 74.0116 27.1605 73.6575 26.978 73.236C26.8781 72.96 26.8083 72.674 26.77 72.383C26.7294 72.0111 26.7117 71.6371 26.717 71.263C26.7114 70.8926 26.7291 70.5222 26.77 70.154C26.8107 69.8582 26.8804 69.5672 26.978 69.285C27.1592 68.8567 27.4711 68.4966 27.869 68.256C28.3229 67.9972 28.8398 67.8698 29.362 67.888C29.8792 67.8691 30.3912 67.9967 30.839 68.256C31.2324 68.4989 31.54 68.8587 31.719 69.285C31.8166 69.5672 31.8863 69.8582 31.927 70.154C31.9653 70.5224 31.983 70.8926 31.98 71.263C31.9826 71.637 31.9649 72.0109 31.927 72.383" fill="white"/>
<path d="M66.073 59.801H63.406C63.3678 59.7954 63.3288 59.799 63.2922 59.8113C63.2557 59.8237 63.2225 59.8445 63.1955 59.8721C63.1685 59.8996 63.1484 59.9332 63.1369 59.9701C63.1253 60.0069 63.1226 60.0459 63.129 60.084V62.516C63.1226 62.5541 63.1253 62.5931 63.1369 62.6299C63.1484 62.6668 63.1685 62.7004 63.1955 62.7279C63.2225 62.7555 63.2557 62.7763 63.2922 62.7887C63.3288 62.801 63.3678 62.8046 63.406 62.799H66.073C66.1114 62.8043 66.1505 62.8006 66.1873 62.7883C66.224 62.776 66.2574 62.7553 66.2848 62.7278C66.3123 62.7004 66.3329 62.667 66.3453 62.6303C66.3576 62.5935 66.3613 62.5544 66.356 62.516V60.093C66.3613 60.0546 66.3576 60.0155 66.3453 59.9787C66.3329 59.942 66.3123 59.9086 66.2848 59.8811C66.2574 59.8537 66.224 59.833 66.1873 59.8207C66.1505 59.8083 66.1114 59.8047 66.073 59.81" fill="white"/>
<path d="M44.456 79.083H41.88C41.8416 79.0777 41.8025 79.0814 41.7657 79.0937C41.729 79.106 41.6956 79.1267 41.6682 79.1542C41.6407 79.1816 41.62 79.215 41.6077 79.2517C41.5954 79.2885 41.5917 79.3276 41.597 79.366V81.798C41.5917 81.8364 41.5954 81.8755 41.6077 81.9123C41.62 81.949 41.6407 81.9824 41.6682 82.0099C41.6956 82.0373 41.729 82.058 41.7657 82.0703C41.8025 82.0827 41.8416 82.0863 41.88 82.081H44.456C44.4942 82.0866 44.5332 82.0831 44.5698 82.0707C44.6063 82.0584 44.6395 82.0375 44.6665 82.0099C44.6935 81.9824 44.7136 81.9488 44.7251 81.912C44.7367 81.8751 44.7394 81.8361 44.733 81.798V79.365C44.7394 79.3269 44.7367 79.2879 44.7251 79.2511C44.7136 79.2142 44.6935 79.1806 44.6665 79.1531C44.6395 79.1255 44.6063 79.1047 44.5698 79.0923C44.5332 79.08 44.4942 79.0764 44.456 79.082" fill="white"/>
<path d="M24.193 98.369C24.1554 98.3743 24.117 98.3709 24.081 98.3588C24.0449 98.3468 24.0122 98.3265 23.9853 98.2997C23.9584 98.2728 23.9382 98.2401 23.9262 98.204C23.9141 98.168 23.9106 98.1296 23.916 98.092V90.31C23.9533 89.5459 23.7255 88.7924 23.271 88.177C23.0403 87.902 22.7481 87.6852 22.418 87.5443C22.0878 87.4034 21.7291 87.3423 21.371 87.366C21.0133 87.3461 20.6558 87.4089 20.3262 87.5495C19.9967 87.6902 19.7041 87.9049 19.471 88.177C19.0008 88.7856 18.7626 89.5418 18.799 90.31V98.092C18.8046 98.1302 18.801 98.1692 18.7887 98.2058C18.7763 98.2423 18.7555 98.2755 18.7279 98.3025C18.7003 98.3295 18.6668 98.3496 18.6299 98.3611C18.5931 98.3727 18.5541 98.3754 18.516 98.369H15.936C15.8984 98.3743 15.86 98.3709 15.824 98.3588C15.7879 98.3468 15.7552 98.3265 15.7283 98.2997C15.7014 98.2728 15.6812 98.2401 15.6692 98.204C15.6571 98.168 15.6536 98.1296 15.659 98.092V85.157C15.6536 85.1194 15.6571 85.081 15.6692 85.045C15.6812 85.009 15.7014 84.9762 15.7283 84.9493C15.7552 84.9225 15.7879 84.9022 15.824 84.8902C15.86 84.8781 15.8984 84.8747 15.936 84.88H18.512C18.5501 84.8736 18.5891 84.8763 18.6259 84.8879C18.6628 84.8994 18.6963 84.9195 18.7239 84.9465C18.7515 84.9735 18.7723 85.0067 18.7847 85.0433C18.797 85.0798 18.8006 85.1188 18.795 85.157V86.138H18.822C19.1707 85.6708 19.626 85.2936 20.15 85.038C20.8428 84.7054 21.606 84.5461 22.374 84.574C23.0423 84.5634 23.7055 84.6925 24.321 84.953C24.8799 85.201 25.3799 85.5646 25.788 86.02C26.2072 86.4835 26.5268 87.028 26.727 87.62C26.9478 88.2635 27.0577 88.9397 27.052 89.62V98.154C27.0576 98.1922 27.054 98.2312 27.0417 98.2678C27.0293 98.3043 27.0085 98.3375 26.9809 98.3645C26.9533 98.3915 26.9198 98.4116 26.8829 98.4231C26.8461 98.4347 26.8071 98.4374 26.769 98.431L24.193 98.369Z" fill="white"/>
<path d="M37 98.369C36.9619 98.3754 36.9229 98.3727 36.886 98.3611C36.8492 98.3496 36.8156 98.3295 36.788 98.3025C36.7605 98.2755 36.7396 98.2423 36.7273 98.2057C36.7149 98.1692 36.7114 98.1302 36.717 98.092V97.111C36.3523 97.6222 35.8488 98.0182 35.266 98.252C34.5136 98.567 33.7022 98.716 32.887 98.689C32.2948 98.6916 31.7055 98.6071 31.138 98.438C30.6137 98.2832 30.1246 98.0278 29.698 97.686C29.2789 97.3429 28.9435 96.9089 28.717 96.417C28.4608 95.8421 28.3367 95.2171 28.354 94.588C28.3061 93.9711 28.4127 93.3521 28.6641 92.7867C28.9156 92.2214 29.3039 91.7276 29.794 91.35C30.9747 90.6048 32.3579 90.2452 33.752 90.321H36.499C36.5218 90.3237 36.545 90.3212 36.5667 90.3134C36.5884 90.3057 36.608 90.2931 36.624 90.2765C36.64 90.26 36.6519 90.2399 36.6589 90.218C36.6658 90.196 36.6676 90.1727 36.664 90.15V89.499C36.6966 89.1822 36.658 88.8622 36.5509 88.5623C36.4438 88.2625 36.2709 87.9904 36.045 87.766C35.3411 87.3388 34.5171 87.1531 33.698 87.237C33.0615 87.2157 32.4263 87.3061 31.821 87.504C31.3853 87.6533 30.9779 87.8751 30.616 88.16C30.451 88.288 30.316 88.272 30.227 88.101L29.166 86.256C29.1428 86.2298 29.1257 86.199 29.1157 86.1655C29.1057 86.132 29.1031 86.0967 29.1082 86.0622C29.1132 86.0276 29.1257 85.9946 29.1449 85.9653C29.164 85.9361 29.1893 85.9114 29.219 85.893C29.8172 85.4664 30.4799 85.1386 31.182 84.922C32.1008 84.66 33.0538 84.5377 34.009 84.559C36.057 84.559 37.506 84.9323 38.356 85.679C38.8158 86.1481 39.168 86.7117 39.3882 87.3306C39.6084 87.9495 39.6912 88.6089 39.631 89.263V98.096C39.6363 98.1336 39.6328 98.172 39.6208 98.208C39.6088 98.2441 39.5885 98.2768 39.5617 98.3037C39.5348 98.3305 39.502 98.3508 39.466 98.3628C39.43 98.3749 39.3916 98.3783 39.354 98.373L37 98.369ZM33.675 96.118C34.4537 96.1752 35.2308 95.9889 35.899 95.585C36.1603 95.3822 36.3673 95.1177 36.5013 94.8153C36.6354 94.5128 36.6923 94.1819 36.667 93.852V92.817C36.6706 92.7943 36.6688 92.771 36.6619 92.749C36.6549 92.7271 36.643 92.707 36.627 92.6905C36.611 92.6739 36.5914 92.6613 36.5697 92.6535C36.548 92.6458 36.5249 92.6432 36.502 92.646H34.262C33.4984 92.5945 32.7347 92.7452 32.048 93.083C31.8175 93.2286 31.6308 93.4338 31.5075 93.677C31.3843 93.9201 31.3292 94.1921 31.348 94.464C31.348 95.584 32.1233 96.144 33.674 96.144" fill="white"/>
<path d="M39.416 103.41C39.3778 103.416 39.3388 103.412 39.3023 103.4C39.2657 103.387 39.2325 103.367 39.2055 103.339C39.1785 103.311 39.1584 103.278 39.1469 103.241C39.1353 103.204 39.1326 103.165 39.139 103.127V100.887C39.1337 100.849 39.1371 100.811 39.1492 100.775C39.1612 100.739 39.1815 100.706 39.2083 100.679C39.2352 100.652 39.2679 100.632 39.304 100.62C39.34 100.608 39.3784 100.605 39.416 100.61H40.035C40.4628 100.651 40.8905 100.531 41.235 100.274C41.3776 100.1 41.4837 99.8982 41.547 99.6819C41.6102 99.4656 41.6292 99.2388 41.603 99.015V85.147C41.5977 85.1094 41.6011 85.071 41.6132 85.035C41.6252 84.9989 41.6455 84.9662 41.6723 84.9393C41.6992 84.9125 41.732 84.8922 41.768 84.8802C41.804 84.8682 41.8424 84.8647 41.88 84.87H44.456C44.4936 84.8647 44.532 84.8682 44.568 84.8802C44.6041 84.8922 44.6368 84.9125 44.6637 84.9393C44.6905 84.9662 44.7108 84.9989 44.7228 85.035C44.7349 85.071 44.7383 85.1094 44.733 85.147V98.947C44.7901 99.5632 44.7166 100.185 44.5172 100.77C44.3178 101.356 43.9971 101.894 43.576 102.347C42.6235 103.112 41.4191 103.493 40.2 103.414L39.416 103.41Z" fill="white"/>
<path d="M63.417 98.369C63.3794 98.3743 63.341 98.3709 63.305 98.3588C63.2689 98.3468 63.2362 98.3265 63.2093 98.2997C63.1824 98.2728 63.1622 98.24 63.1502 98.204C63.1381 98.168 63.1346 98.1296 63.14 98.092V90.31C63.1774 89.5459 62.9495 88.7923 62.495 88.177C62.2625 87.9005 61.9676 87.6834 61.6346 87.5434C61.3017 87.4034 60.9402 87.3447 60.58 87.372C60.2223 87.3528 59.8651 87.416 59.5357 87.5566C59.2063 87.6972 58.9135 87.9115 58.68 88.183C58.2098 88.7916 57.9716 89.5477 58.008 90.316V98.093C58.0136 98.1312 58.01 98.1702 57.9977 98.2068C57.9853 98.2433 57.9645 98.2765 57.9369 98.3035C57.9093 98.3305 57.8758 98.3506 57.8389 98.3621C57.8021 98.3737 57.7631 98.3764 57.725 98.37H55.166C55.1279 98.3764 55.0889 98.3737 55.052 98.3621C55.0152 98.3506 54.9816 98.3305 54.954 98.3035C54.9264 98.2765 54.9056 98.2433 54.8933 98.2068C54.8809 98.1702 54.8774 98.1312 54.883 98.093V90.311C54.9204 89.5469 54.6925 88.7933 54.238 88.178C54.0076 87.9026 53.7155 87.6856 53.3853 87.5446C53.055 87.4037 52.6962 87.3428 52.338 87.367C51.9811 87.3496 51.625 87.4141 51.2969 87.5555C50.9688 87.697 50.6774 87.9116 50.445 88.183C49.9748 88.7916 49.7366 89.5477 49.773 90.316V98.093C49.7783 98.1306 49.7748 98.169 49.7628 98.205C49.7508 98.2411 49.7305 98.2738 49.7037 98.3007C49.6768 98.3275 49.644 98.3478 49.608 98.3598C49.5719 98.3718 49.5336 98.3753 49.496 98.37H46.909C46.8709 98.3764 46.8319 98.3737 46.795 98.3621C46.7582 98.3506 46.7246 98.3305 46.697 98.3035C46.6695 98.2765 46.6486 98.2433 46.6363 98.2068C46.6239 98.1702 46.6204 98.1312 46.626 98.093V85.157C46.6204 85.1188 46.6239 85.0798 46.6363 85.0432C46.6486 85.0067 46.6695 84.9735 46.697 84.9465C46.7246 84.9195 46.7582 84.8994 46.795 84.8879C46.8319 84.8763 46.8709 84.8736 46.909 84.88H49.489C49.5266 84.8747 49.565 84.8781 49.601 84.8902C49.637 84.9022 49.6698 84.9225 49.6967 84.9493C49.7235 84.9762 49.7438 85.0089 49.7558 85.045C49.7678 85.081 49.7713 85.1194 49.766 85.157V86.138C50.1147 85.6707 50.57 85.2936 51.094 85.038C51.7814 84.732 52.5255 84.5739 53.278 84.5739C54.0305 84.5739 54.7745 84.732 55.462 85.038C56.0821 85.344 56.6157 85.8006 57.014 86.366H57.046C57.5567 85.812 58.1731 85.3659 58.859 85.054C59.6448 84.7155 60.4947 84.5518 61.35 84.574C62.0632 84.5616 62.7718 84.6904 63.435 84.953C64.0197 85.1931 64.5454 85.5572 64.976 86.02C65.4019 86.4802 65.7254 87.0255 65.925 87.62C66.1458 88.2634 66.2557 88.9397 66.25 89.62V98.154C66.2556 98.1922 66.252 98.2312 66.2397 98.2677C66.2273 98.3043 66.2065 98.3375 66.1789 98.3645C66.1513 98.3915 66.1178 98.4116 66.0809 98.4231C66.0441 98.4347 66.0051 98.4374 65.967 98.431L63.417 98.369Z" fill="white"/>
<path d="M1.35 122.94C1.35 122.82 1.41 122.76 1.53 122.76H5.904C8.04 122.76 9.402 123.666 9.99 125.478C10.038 125.634 10.08 125.802 10.116 125.982C10.152 126.15 10.182 126.36 10.206 126.612C10.242 126.864 10.266 127.176 10.278 127.548C10.29 127.908 10.296 128.352 10.296 128.88C10.296 129.408 10.29 129.858 10.278 130.23C10.266 130.59 10.242 130.896 10.206 131.148C10.182 131.4 10.152 131.616 10.116 131.796C10.08 131.964 10.038 132.126 9.99 132.282C9.402 134.094 8.04 135 5.904 135H1.53C1.41 135 1.35 134.94 1.35 134.82V122.94ZM3.474 132.984C3.474 133.056 3.51 133.092 3.582 133.092H5.4C6.084 133.092 6.63 132.972 7.038 132.732C7.458 132.492 7.758 132.096 7.938 131.544C7.974 131.46 8.004 131.358 8.028 131.238C8.052 131.106 8.07 130.944 8.082 130.752C8.106 130.548 8.124 130.296 8.136 129.996C8.148 129.696 8.154 129.324 8.154 128.88C8.154 128.436 8.148 128.064 8.136 127.764C8.124 127.464 8.106 127.212 8.082 127.008C8.07 126.804 8.052 126.642 8.028 126.522C8.004 126.402 7.974 126.3 7.938 126.216C7.758 125.664 7.458 125.268 7.038 125.028C6.63 124.788 6.084 124.668 5.4 124.668H3.582C3.51 124.668 3.474 124.704 3.474 124.776V132.984ZM16.02 135.198C15.096 135.198 14.322 134.988 13.698 134.568C13.074 134.136 12.642 133.542 12.402 132.786C12.306 132.51 12.228 132.204 12.168 131.868C12.12 131.52 12.096 131.118 12.096 130.662C12.096 130.206 12.12 129.804 12.168 129.456C12.216 129.108 12.288 128.796 12.384 128.52C12.624 127.764 13.056 127.176 13.68 126.756C14.316 126.336 15.066 126.126 15.93 126.126C16.83 126.126 17.586 126.342 18.198 126.774C18.822 127.194 19.254 127.776 19.494 128.52C19.542 128.676 19.584 128.832 19.62 128.988C19.656 129.144 19.686 129.324 19.71 129.528C19.734 129.732 19.752 129.966 19.764 130.23C19.776 130.482 19.782 130.782 19.782 131.13C19.782 131.25 19.716 131.31 19.584 131.31H14.238C14.166 131.31 14.13 131.346 14.13 131.418C14.13 131.55 14.142 131.67 14.166 131.778C14.19 131.886 14.22 131.988 14.256 132.084C14.556 132.96 15.204 133.398 16.2 133.398C16.692 133.398 17.1 133.32 17.424 133.164C17.748 133.008 18.018 132.81 18.234 132.57C18.33 132.474 18.42 132.462 18.504 132.534L19.566 133.47C19.65 133.542 19.656 133.626 19.584 133.722C19.212 134.154 18.726 134.508 18.126 134.784C17.526 135.06 16.824 135.198 16.02 135.198ZM17.748 129.69C17.748 129.414 17.712 129.168 17.64 128.952C17.52 128.604 17.31 128.334 17.01 128.142C16.71 127.938 16.356 127.836 15.948 127.836C15.528 127.836 15.168 127.938 14.868 128.142C14.568 128.334 14.358 128.604 14.238 128.952C14.166 129.168 14.13 129.414 14.13 129.69C14.13 129.762 14.166 129.798 14.238 129.798H17.64C17.712 129.798 17.748 129.762 17.748 129.69ZM24.2907 135C24.1707 135 24.0927 134.94 24.0567 134.82L20.9967 126.504C20.9607 126.384 21.0087 126.324 21.1407 126.324H22.9047C23.0127 126.324 23.0847 126.384 23.1207 126.504L25.0287 132.138H25.0647L26.9367 126.504C26.9727 126.384 27.0447 126.324 27.1527 126.324H28.8807C29.0127 126.324 29.0607 126.384 29.0247 126.504L25.9647 134.82C25.9287 134.94 25.8507 135 25.7307 135H24.2907ZM35.1745 135C35.0545 135 34.9945 134.94 34.9945 134.82V122.94C34.9945 122.82 35.0545 122.76 35.1745 122.76H39.7645C40.3525 122.76 40.8925 122.856 41.3845 123.048C41.8885 123.228 42.3145 123.486 42.6625 123.822C43.0225 124.146 43.2985 124.542 43.4905 125.01C43.6945 125.478 43.7965 125.994 43.7965 126.558C43.7965 127.134 43.6945 127.656 43.4905 128.124C43.2985 128.592 43.0225 128.994 42.6625 129.33C42.3145 129.654 41.8885 129.912 41.3845 130.104C40.8925 130.284 40.3525 130.374 39.7645 130.374H37.2265C37.1545 130.374 37.1185 130.41 37.1185 130.482V134.82C37.1185 134.94 37.0585 135 36.9385 135H35.1745ZM39.6385 128.448C40.2745 128.448 40.7725 128.28 41.1325 127.944C41.4925 127.596 41.6725 127.134 41.6725 126.558C41.6725 125.994 41.4925 125.538 41.1325 125.19C40.7725 124.842 40.2745 124.668 39.6385 124.668H37.2265C37.1545 124.668 37.1185 124.704 37.1185 124.776V128.34C37.1185 128.412 37.1545 128.448 37.2265 128.448H39.6385ZM48.9426 135.198C48.0546 135.198 47.2926 134.988 46.6566 134.568C46.0326 134.148 45.6006 133.56 45.3606 132.804C45.2646 132.492 45.1926 132.18 45.1446 131.868C45.0966 131.544 45.0726 131.142 45.0726 130.662C45.0726 130.182 45.0966 129.786 45.1446 129.474C45.1926 129.15 45.2646 128.832 45.3606 128.52C45.6006 127.764 46.0326 127.176 46.6566 126.756C47.2926 126.336 48.0546 126.126 48.9426 126.126C49.8186 126.126 50.5686 126.336 51.1926 126.756C51.8286 127.176 52.2666 127.764 52.5066 128.52C52.6026 128.832 52.6746 129.15 52.7226 129.474C52.7706 129.786 52.7946 130.182 52.7946 130.662C52.7946 131.142 52.7706 131.544 52.7226 131.868C52.6746 132.18 52.6026 132.492 52.5066 132.804C52.2666 133.56 51.8286 134.148 51.1926 134.568C50.5686 134.988 49.8186 135.198 48.9426 135.198ZM48.9426 133.398C49.3506 133.398 49.6866 133.302 49.9506 133.11C50.2266 132.906 50.4306 132.624 50.5626 132.264C50.6346 132.036 50.6826 131.808 50.7066 131.58C50.7306 131.34 50.7426 131.034 50.7426 130.662C50.7426 130.29 50.7306 129.99 50.7066 129.762C50.6826 129.534 50.6346 129.3 50.5626 129.06C50.4306 128.7 50.2266 128.424 49.9506 128.232C49.6866 128.028 49.3506 127.926 48.9426 127.926C48.5346 127.926 48.1926 128.028 47.9166 128.232C47.6406 128.424 47.4366 128.7 47.3046 129.06C47.2326 129.3 47.1846 129.534 47.1606 129.762C47.1366 129.99 47.1246 130.29 47.1246 130.662C47.1246 131.034 47.1366 131.34 47.1606 131.58C47.1846 131.808 47.2326 132.036 47.3046 132.264C47.4366 132.624 47.6406 132.906 47.9166 133.11C48.1926 133.302 48.5346 133.398 48.9426 133.398ZM55.1424 135C55.0224 135 54.9624 134.94 54.9624 134.82V126.504C54.9624 126.384 55.0224 126.324 55.1424 126.324H56.7984C56.9184 126.324 56.9784 126.384 56.9784 126.504V127.242H56.9964C57.2004 126.906 57.4884 126.636 57.8604 126.432C58.2324 126.228 58.6944 126.126 59.2464 126.126C59.5944 126.126 59.9244 126.192 60.2364 126.324C60.5604 126.444 60.8364 126.618 61.0644 126.846C61.1484 126.93 61.1604 127.014 61.1004 127.098L60.1464 128.304C60.0744 128.4 59.9904 128.412 59.8944 128.34C59.6904 128.208 59.4864 128.106 59.2824 128.034C59.0784 127.962 58.8564 127.926 58.6164 127.926C58.0404 127.926 57.6204 128.118 57.3564 128.502C57.1044 128.886 56.9784 129.426 56.9784 130.122V134.82C56.9784 134.94 56.9184 135 56.7984 135H55.1424ZM65.1118 135.108C64.2358 135.108 63.6118 134.898 63.2398 134.478C62.8798 134.058 62.6998 133.422 62.6998 132.57V127.998C62.6998 127.926 62.6638 127.89 62.5918 127.89H62.0158C61.8958 127.89 61.8358 127.83 61.8358 127.71V126.504C61.8358 126.384 61.8958 126.324 62.0158 126.324H62.5918C62.6638 126.324 62.6998 126.288 62.6998 126.216V123.84C62.6998 123.72 62.7598 123.66 62.8798 123.66H64.5358C64.6558 123.66 64.7158 123.72 64.7158 123.84V126.216C64.7158 126.288 64.7518 126.324 64.8238 126.324H65.9758C66.0958 126.324 66.1558 126.384 66.1558 126.504V127.71C66.1558 127.83 66.0958 127.89 65.9758 127.89H64.8238C64.7518 127.89 64.7158 127.926 64.7158 127.998V132.498C64.7158 132.81 64.7818 133.026 64.9138 133.146C65.0458 133.254 65.2498 133.308 65.5258 133.308H65.9758C66.0958 133.308 66.1558 133.368 66.1558 133.488V134.928C66.1558 135.048 66.0958 135.108 65.9758 135.108H65.1118ZM73.523 135C73.403 135 73.343 134.94 73.343 134.82V134.19H73.325C73.121 134.49 72.815 134.736 72.407 134.928C71.999 135.108 71.489 135.198 70.877 135.198C70.481 135.198 70.103 135.144 69.743 135.036C69.395 134.928 69.089 134.766 68.825 134.55C68.561 134.334 68.351 134.064 68.195 133.74C68.039 133.404 67.961 133.008 67.961 132.552C67.961 131.604 68.267 130.908 68.879 130.464C69.503 130.02 70.355 129.798 71.435 129.798H73.199C73.271 129.798 73.307 129.762 73.307 129.69V129.276C73.307 128.772 73.169 128.406 72.893 128.178C72.617 127.95 72.113 127.836 71.381 127.836C70.889 127.836 70.487 127.896 70.175 128.016C69.863 128.124 69.605 128.262 69.401 128.43C69.293 128.514 69.209 128.502 69.149 128.394L68.483 127.206C68.423 127.11 68.435 127.032 68.519 126.972C68.867 126.72 69.287 126.516 69.779 126.36C70.271 126.204 70.877 126.126 71.597 126.126C72.917 126.126 73.847 126.366 74.387 126.846C74.939 127.326 75.215 128.094 75.215 129.15V134.82C75.215 134.94 75.155 135 75.035 135H73.523ZM71.381 133.56C72.005 133.56 72.479 133.44 72.803 133.2C73.139 132.96 73.307 132.588 73.307 132.084V131.418C73.307 131.346 73.271 131.31 73.199 131.31H71.759C71.111 131.31 70.637 131.406 70.337 131.598C70.037 131.778 69.887 132.072 69.887 132.48C69.887 133.2 70.385 133.56 71.381 133.56ZM80.1188 135.108C79.2668 135.108 78.6548 134.904 78.2828 134.496C77.9228 134.088 77.7428 133.464 77.7428 132.624V122.94C77.7428 122.82 77.8028 122.76 77.9228 122.76H79.5788C79.6988 122.76 79.7588 122.82 79.7588 122.94V132.516C79.7588 132.816 79.8188 133.026 79.9388 133.146C80.0588 133.254 80.2508 133.308 80.5148 133.308H80.9108C81.0308 133.308 81.0908 133.368 81.0908 133.488V134.928C81.0908 135.048 81.0308 135.108 80.9108 135.108H80.1188Z" fill="#575757"/>
</svg>
