<svg xmlns="http://www.w3.org/2000/svg" width="82" height="137" viewBox="0 0 82 137">
  <g id="Main-Logo" transform="translate(-375)">
    <rect id="Rectangle_3175" data-name="Rectangle 3175" width="63.279" height="110.165" transform="translate(384.322)" fill="#33845d"/>
    <g id="Group_2" data-name="Group 2" transform="translate(238)">
      <path id="Path_3828" data-name="Path 3828" d="M65.112,119.351H62.53a.251.251,0,0,0-.277.277v7.062a1.632,1.632,0,0,1-.32,1.157,1.4,1.4,0,0,1-1.024.32H54.583a2.811,2.811,0,0,1-1.637-.421,1.558,1.558,0,0,1-.683-1.168v-.7a10.992,10.992,0,0,0-.32-2.667,5.9,5.9,0,0,0-1.067-2.229,5.264,5.264,0,0,0-2.016-1.536,7.526,7.526,0,0,0-3.136-.571,6.2,6.2,0,0,0-2.939.64,7.467,7.467,0,0,0-2.069,1.6c-.112.112-.091.24.059.389l1.451,1.509a.261.261,0,0,0,.395,0,4.593,4.593,0,0,1,1.344-.981,3.84,3.84,0,0,1,1.68-.363,3.467,3.467,0,0,1,1.6.32,2.784,2.784,0,0,1,1.024.88,3.515,3.515,0,0,1,.533,1.312,7.5,7.5,0,0,1,.171,1.643,6.118,6.118,0,0,1-.085,1.125,1.43,1.43,0,0,1-.336.741,1.338,1.338,0,0,1-.7.389,4.983,4.983,0,0,1-1.173.112H35.9a1.68,1.68,0,0,1-1.152-.491,2.31,2.31,0,0,1-.571-1.563c.027-.331.043-.693.043-1.109a10.524,10.524,0,0,0-.107-1.627,8.321,8.321,0,0,0-.32-1.28,4.438,4.438,0,0,0-1.952-2.395,6.368,6.368,0,0,0-3.371-.853H18.025a3.188,3.188,0,0,0-2.5.853,3.943,3.943,0,0,0-.747,2.667v13.766a.245.245,0,0,0,.277.283h2.582a.251.251,0,0,0,.277-.283V123.149a1.648,1.648,0,0,1,.32-1.163,1.4,1.4,0,0,1,1.024-.32h4.054a3.842,3.842,0,0,0-.187.453,7.749,7.749,0,0,0-.32,1.28,11.868,11.868,0,0,0,0,3.254,7.751,7.751,0,0,0,.32,1.28,4.448,4.448,0,0,0,1.947,2.395,6.448,6.448,0,0,0,3.4.853,6.369,6.369,0,0,0,3.371-.853,4.63,4.63,0,0,0,1.035-.848,3,3,0,0,0,.853.88,3.632,3.632,0,0,0,.976.437,4.8,4.8,0,0,0,1.029.165c.347,0,.683.032,1,.032H47.894a6.4,6.4,0,0,0,2.283-.352,2.758,2.758,0,0,0,1.467-1.312A2.384,2.384,0,0,0,53,130.675a6.171,6.171,0,0,0,2.059.309h7.078a3.182,3.182,0,0,0,2.5-.848,3.987,3.987,0,0,0,.752-2.667v-7.841a.245.245,0,0,0-.277-.277m-34.072,6.79a4.064,4.064,0,0,1-.208.853,2.219,2.219,0,0,1-.88,1.013,2.747,2.747,0,0,1-1.477.368,2.816,2.816,0,0,1-1.493-.368,2.208,2.208,0,0,1-.885-1.013,4.064,4.064,0,0,1-.208-.853,9.12,9.12,0,0,1-.053-1.12,8.817,8.817,0,0,1,.053-1.109,4.561,4.561,0,0,1,.208-.869,2.208,2.208,0,0,1,.891-1.029,2.816,2.816,0,0,1,1.493-.368,2.747,2.747,0,0,1,1.477.368,2.219,2.219,0,0,1,.88,1.029,4.561,4.561,0,0,1,.208.869,9.967,9.967,0,0,1,.053,1.109,10.33,10.33,0,0,1-.053,1.12" transform="translate(137.881 -53.758)" fill="#fff"/>
      <path id="Path_3829" data-name="Path 3829" d="M106.721,108.908h-2.667a.245.245,0,0,0-.277.283v2.432a.245.245,0,0,0,.277.283h2.667a.251.251,0,0,0,.283-.283V109.2a.251.251,0,0,0-.283-.283" transform="translate(96.352 -49.107)" fill="#fff"/>
      <path id="Path_3830" data-name="Path 3830" d="M66.267,145.058H63.691a.251.251,0,0,0-.283.283v2.432a.251.251,0,0,0,.283.283h2.576a.245.245,0,0,0,.277-.283V145.34a.245.245,0,0,0-.277-.283" transform="translate(115.189 -65.975)" fill="#fff"/>
      <path id="Path_3831" data-name="Path 3831" d="M23.312,169.146a.245.245,0,0,1-.277-.277v-7.782a3.318,3.318,0,0,0-.645-2.133,2.283,2.283,0,0,0-1.9-.811,2.331,2.331,0,0,0-1.9.811,3.238,3.238,0,0,0-.672,2.133v7.782a.245.245,0,0,1-.283.277H15.055a.245.245,0,0,1-.277-.277V155.934a.245.245,0,0,1,.277-.277h2.576a.245.245,0,0,1,.283.277v.981h.027a3.659,3.659,0,0,1,1.328-1.1,4.741,4.741,0,0,1,2.224-.464,4.8,4.8,0,0,1,1.947.379,4.325,4.325,0,0,1,1.467,1.067,4.566,4.566,0,0,1,.939,1.6,6.006,6.006,0,0,1,.325,2v8.534a.245.245,0,0,1-.283.277Z" transform="translate(137.881 -70.777)" fill="#fff"/>
      <path id="Path_3832" data-name="Path 3832" d="M47.225,169.132a.245.245,0,0,1-.283-.277v-.981h0a3.285,3.285,0,0,1-1.451,1.141,5.674,5.674,0,0,1-2.379.437,6.033,6.033,0,0,1-1.749-.251,4.208,4.208,0,0,1-1.44-.752,3.569,3.569,0,0,1-.981-1.269,4.209,4.209,0,0,1-.363-1.829,3.724,3.724,0,0,1,1.44-3.238,6.731,6.731,0,0,1,3.958-1.029h2.747a.149.149,0,0,0,.165-.171v-.651a2.134,2.134,0,0,0-.619-1.733A3.781,3.781,0,0,0,43.923,158a5.452,5.452,0,0,0-1.877.267,4.092,4.092,0,0,0-1.205.656c-.165.128-.3.112-.389-.059l-1.061-1.845a.24.24,0,0,1,.053-.363,6.866,6.866,0,0,1,1.963-.971,9.533,9.533,0,0,1,2.827-.363q3.072,0,4.347,1.12a4.527,4.527,0,0,1,1.275,3.584v8.833a.245.245,0,0,1-.277.277ZM43.9,166.881a3.766,3.766,0,0,0,2.224-.533,2,2,0,0,0,.768-1.733V163.58a.149.149,0,0,0-.165-.171h-2.24a4.353,4.353,0,0,0-2.214.437,1.51,1.51,0,0,0-.7,1.381q0,1.68,2.326,1.68" transform="translate(126.775 -70.763)" fill="#fff"/>
      <path id="Path_3833" data-name="Path 3833" d="M59.075,174.448a.245.245,0,0,1-.277-.283v-2.24a.245.245,0,0,1,.277-.277h.619a1.733,1.733,0,0,0,1.2-.336,1.68,1.68,0,0,0,.368-1.259V156.185a.245.245,0,0,1,.277-.277h2.576a.245.245,0,0,1,.277.277v13.8a4.4,4.4,0,0,1-1.157,3.4,4.889,4.889,0,0,1-3.376,1.067Z" transform="translate(117.341 -71.038)" fill="#fff"/>
      <path id="Path_3834" data-name="Path 3834" d="M89.628,169.147a.245.245,0,0,1-.277-.277v-7.782a3.317,3.317,0,0,0-.645-2.133,2.277,2.277,0,0,0-1.915-.805,2.341,2.341,0,0,0-1.9.811,3.238,3.238,0,0,0-.672,2.133v7.777a.245.245,0,0,1-.283.277H81.377a.245.245,0,0,1-.283-.277v-7.782a3.317,3.317,0,0,0-.645-2.133,2.277,2.277,0,0,0-1.9-.811,2.342,2.342,0,0,0-1.893.816,3.238,3.238,0,0,0-.672,2.133v7.777a.245.245,0,0,1-.277.277H73.12a.245.245,0,0,1-.283-.277V155.935a.245.245,0,0,1,.283-.277H75.7a.245.245,0,0,1,.277.277v.981h0a3.658,3.658,0,0,1,1.328-1.1,5.371,5.371,0,0,1,4.368,0,4.139,4.139,0,0,1,1.552,1.328h.032a5.642,5.642,0,0,1,1.813-1.312,5.909,5.909,0,0,1,2.491-.48,5.409,5.409,0,0,1,2.085.379,4.374,4.374,0,0,1,1.541,1.067,4.432,4.432,0,0,1,.949,1.6,6.006,6.006,0,0,1,.325,2v8.534a.245.245,0,0,1-.283.277Z" transform="translate(110.789 -70.778)" fill="#fff"/>
    </g>
    <text id="Dev_Portal" data-name="Dev Portal" transform="translate(375 132)" fill="#575757" font-size="18" font-family="DINNextLTArabic-Medium, DIN Next LT Arabic" font-weight="500"><tspan x="0" y="0">Dev Portal</tspan></text>
  </g>
</svg>
