<svg xmlns="http://www.w3.org/2000/svg" xmlns:xlink="http://www.w3.org/1999/xlink" width="129.807" height="154.8" viewBox="0 0 129.807 154.8">
  <defs>
    <clipPath id="clip-path">
      <path id="Path_3946" data-name="Path 3946" d="M270,99h59.486v25.784H270Zm0,0" transform="translate(-270 -99)"/>
    </clipPath>
    <clipPath id="clip-path-2">
      <path id="Path_3963" data-name="Path 3963" d="M136,507h18.492v22.751H136Zm0,0" transform="translate(-136 -507)"/>
    </clipPath>
  </defs>
  <g id="Taqdeer_Logo" data-name="Taqdeer Logo" transform="translate(0 0.004)">
    <path id="Path_3941" data-name="Path 3941" d="M39.4,171.477a4.417,4.417,0,1,0,4.417,4.417,4.423,4.423,0,0,0-4.417-4.417m0,11.281a6.863,6.863,0,1,1,6.863-6.863,6.871,6.871,0,0,1-6.863,6.863" transform="translate(-24.061 -125.01)" fill="#929296"/>
    <path id="Path_3942" data-name="Path 3942" d="M189.562,171.477a4.417,4.417,0,1,0,4.417,4.417,4.422,4.422,0,0,0-4.417-4.417m0,11.281a6.863,6.863,0,1,1,6.864-6.863,6.871,6.871,0,0,1-6.864,6.863" transform="translate(-135.115 -125.01)" fill="#929296"/>
    <path id="Path_3943" data-name="Path 3943" d="M305.356,171.477a4.417,4.417,0,1,0,4.416,4.417,4.422,4.422,0,0,0-4.416-4.417m0,11.281a6.863,6.863,0,1,1,6.863-6.863,6.871,6.871,0,0,1-6.863,6.863" transform="translate(-220.75 -125.01)" fill="#929296"/>
    <path id="Path_3944" data-name="Path 3944" d="M416.941,171.477a4.417,4.417,0,1,0,4.418,4.417,4.423,4.423,0,0,0-4.418-4.417m0,11.281a6.863,6.863,0,1,1,6.864-6.863,6.871,6.871,0,0,1-6.864,6.863" transform="translate(-303.273 -125.01)" fill="#929296"/>
    <g id="Group_139" data-name="Group 139" transform="translate(70.321 25.782)" clip-path="url(#clip-path)">
      <path id="Path_3945" data-name="Path 3945" d="M324.406,124.984l-.863-2.289a6.1,6.1,0,0,0,3.931-5.683c0-.747-.332-2.047-1.912-4l-.069-.085c-4.977-5.24-15.413-10.207-21.092-10.989a17.2,17.2,0,0,0-2.427-.218c-5.816,0-10.451,2.822-12.4,7.549a1.5,1.5,0,0,1-1.533.93c-.705-.064-1.29-.1-1.6-.1A13.421,13.421,0,0,0,273.033,123.5v.085l-2.446.014v-.1a15.871,15.871,0,0,1,15.853-15.853c.32,0,.757.026,1.153.056,2.456-5.22,7.9-8.434,14.384-8.434a19.6,19.6,0,0,1,2.772.242c6.2.853,17.166,6.065,22.551,11.759l.053.061.106.126c1.637,2.027,2.463,3.89,2.463,5.55a8.559,8.559,0,0,1-5.514,7.972" transform="translate(-270.433 -99.202)" fill="#04adab"/>
    </g>
    <path id="Path_3947" data-name="Path 3947" d="M20.935,33.522H18.488v-4.6A19.668,19.668,0,0,1,38.133,9.275h5.825v5.866h3.076V0h89.315V28.318H133.9V2.443H49.481V17.588H41.512V11.721H38.133a17.217,17.217,0,0,0-17.2,17.2" transform="translate(-13.673)" fill="#2374ba"/>
    <path id="Path_3948" data-name="Path 3948" d="M7.408,117.741l-2.443-.119a17.273,17.273,0,0,1,14.192-16.147,17.56,17.56,0,0,1,2.223-.171c1.486-6.127,6.872-10.172,13.71-10.172h4.389v10.073H70.906v16.235H68.461v-13.79H37.033V93.58H35.091c-5.967,0-10.59,3.671-11.5,9.134l-.17,1.019-1.035,0a23.337,23.337,0,0,0-2.8.148,14.917,14.917,0,0,0-12.18,13.858" transform="translate(-3.672 -67.4)" fill="#34ade0"/>
    <path id="Path_3949" data-name="Path 3949" d="M4.884,362.691H0v-5.269H4.884a8.42,8.42,0,0,0,8.411-8.411V322.906h5.27v26.105a13.7,13.7,0,0,1-13.681,13.68" transform="translate(0 -238.808)" fill="#04adab"/>
    <path id="Path_3950" data-name="Path 3950" d="M73.575,349.879H61.1v-5.27H73.575a7.327,7.327,0,0,0,7.319-7.318V322.906h5.269v14.385a12.6,12.6,0,0,1-12.588,12.588" transform="translate(-45.188 -238.808)" fill="#04adab"/>
    <path id="Path_3951" data-name="Path 3951" d="M188.442,356.03H172.23v-5.269h15.836V337.932a8.617,8.617,0,0,0-8.607-8.608h-3.583v-5.269h3.583a13.893,13.893,0,0,1,13.877,13.877v13.2a4.9,4.9,0,0,1-4.894,4.894" transform="translate(-127.373 -239.658)" fill="#04adab"/>
    <path id="Path_3952" data-name="Path 3952" d="M381.911,358.768H368.3V353.5h13.606a7.152,7.152,0,0,0,7.143-7.143V328.422h5.269v17.934a12.426,12.426,0,0,1-12.412,12.412" transform="translate(-272.38 -242.888)" fill="#04adab"/>
    <path id="Path_3953" data-name="Path 3953" d="M298.884,313.257c-5.369,0-9.736,4.771-9.736,10.638,0,6.963,7.117,11.309,9.776,12.689,2.638-1.288,9.7-5.418,9.7-12.689,0-5.866-4.368-10.638-9.736-10.638m-.051,29.07-.975-.412c-.571-.241-13.98-6.046-13.98-18.02,0-8.771,6.731-15.907,15.005-15.907s15.005,7.136,15.005,15.907c0,12.551-13.493,17.837-14.067,18.055" transform="translate(-209.943 -227.776)" fill="#04adab"/>
    <path id="Path_3954" data-name="Path 3954" d="M247.193,425.741H228.258v-5.269h18.935a22.935,22.935,0,0,0,6.495-.939l4.123-1.217,2.6.893a14.107,14.107,0,0,0,4.606.771h.211v5.269h-.211a19.4,19.4,0,0,1-6.321-1.057l-1-.346-2.508.74a28.189,28.189,0,0,1-7.986,1.155" transform="translate(-168.808 -309.369)" fill="#04adab"/>
    <path id="Path_3955" data-name="Path 3955" d="M87.944,446.05a3.878,3.878,0,1,1-3.879-3.878,3.878,3.878,0,0,1,3.879,3.878" transform="translate(-59.303 -327.011)" fill="#04adab"/>
    <path id="Path_3956" data-name="Path 3956" d="M125.186,446.05a3.878,3.878,0,1,1-3.879-3.878,3.879,3.879,0,0,1,3.879,3.878" transform="translate(-86.845 -327.011)" fill="#04adab"/>
    <path id="Path_3957" data-name="Path 3957" d="M315.737,271.011a3.878,3.878,0,1,1-3.878-3.878,3.879,3.879,0,0,1,3.878,3.878" transform="translate(-227.767 -197.561)" fill="#04adab"/>
    <path id="Path_3958" data-name="Path 3958" d="M352.979,271.011a3.878,3.878,0,1,1-3.878-3.878,3.879,3.879,0,0,1,3.878,3.878" transform="translate(-255.31 -197.561)" fill="#04adab"/>
    <path id="Path_3959" data-name="Path 3959" d="M413.116,286.624a3.878,3.878,0,1,1-3.879-3.878,3.879,3.879,0,0,1,3.879,3.878" transform="translate(-299.784 -209.108)" fill="#04adab"/>
    <path id="Path_3960" data-name="Path 3960" d="M450.357,286.624a3.878,3.878,0,1,1-3.878-3.878,3.878,3.878,0,0,1,3.878,3.878" transform="translate(-327.327 -209.108)" fill="#04adab"/>
    <path id="Path_3961" data-name="Path 3961" d="M.117,508.148H15.276v2.331H8.968v18.648H6.424V510.479H.117" transform="translate(-0.087 -375.804)" fill="#04adab"/>
    <g id="Group_140" data-name="Group 140" transform="translate(35.421 132.045)" clip-path="url(#clip-path-2)">
      <path id="Path_3962" data-name="Path 3962" d="M148.446,525.837l-2.655-3.313,1.81-1.6,2.656,3.189a9.632,9.632,0,0,0,1.449-5.766q0-4.417-2.052-6.5a5.5,5.5,0,0,0-8.209,0q-2.053,2.088-2.052,6.5t2.052,6.5a5.619,5.619,0,0,0,4.1,1.84,4.54,4.54,0,0,0,2.9-.858m-9.054-15.581a8.646,8.646,0,0,1,12.314,0q2.9,2.944,2.9,8.1a12.219,12.219,0,0,1-2.534,7.851L154,528.535l-1.811,1.718-2.052-2.454a9.642,9.642,0,0,1-4.587,1.227,8.31,8.31,0,0,1-6.156-2.577q-2.9-2.944-2.9-8.1t2.9-8.1" transform="translate(-136.367 -507.503)" fill="#04adab"/>
    </g>
    <path id="Path_3964" data-name="Path 3964" d="M220.459,510.479V526.8h4.166a4.707,4.707,0,0,0,3.586-1.472,9.1,9.1,0,0,0,2.2-6.5q0-4.417-2.084-6.624a4.968,4.968,0,0,0-3.7-1.718Zm-2.662-2.331h6.943a7.811,7.811,0,0,1,5.9,2.577q2.544,2.7,2.546,8.1,0,5.153-2.662,7.974a7.584,7.584,0,0,1-5.786,2.332H217.8" transform="translate(-161.072 -375.804)" fill="#04adab"/>
    <path id="Path_3965" data-name="Path 3965" d="M288.6,508.148h12.172v2.331H291.15v6.5h8.963v2.331H291.15V526.8h10.181v2.331H288.6" transform="translate(-213.438 -375.804)" fill="#04adab"/>
    <path id="Path_3966" data-name="Path 3966" d="M349.484,508.148h12.173v2.331H352.03v6.5h8.963v2.331H352.03V526.8h10.18v2.331H349.484" transform="translate(-258.461 -375.804)" fill="#04adab"/>
    <path id="Path_3967" data-name="Path 3967" d="M412.225,510.011v7.238h6.529a2.439,2.439,0,0,0,1.881-.859,3.947,3.947,0,0,0,.774-2.7,3.886,3.886,0,0,0-.885-2.7,2.744,2.744,0,0,0-2.1-.982Zm-2.545-2.331h9.295a4.71,4.71,0,0,1,3.653,1.594,7.5,7.5,0,0,1,0,8.834,3.71,3.71,0,0,1-2.214,1.1l4.316,9.447h-2.766l-3.983-9.079h-5.754v9.079H409.68" transform="translate(-302.979 -375.458)" fill="#04adab"/>
    <path id="Path_3968" data-name="Path 3968" d="M81.984,528.215H79.349V513.966a4.758,4.758,0,1,0-9.516,0v14.248H67.2V513.966a7.392,7.392,0,1,1,14.785,0" transform="translate(-49.697 -374.64)" fill="#04adab"/>
    <path id="Path_3969" data-name="Path 3969" d="M72.258,553.314H84.407V550.68H72.258Zm0,0" transform="translate(-53.438 -407.259)" fill="#04adab"/>
  </g>
</svg>
