<svg xmlns="http://www.w3.org/2000/svg" xmlns:xlink="http://www.w3.org/1999/xlink" width="88.27" height="40.431" viewBox="0 0 88.27 40.431">
  <defs>
    <clipPath id="clip-path">
      <path id="Path_3946" data-name="Path 3946" d="M270,99h40.615v17.6H270Zm0,0" transform="translate(-270 -99)" fill="#33845d" stroke="#33845d" stroke-width="1"/>
    </clipPath>
  </defs>
  <g id="Taqdeer_Second_Logo" data-name="Taqdeer Second Logo" transform="translate(-505.103 -1542.784)">
    <path id="Path_3941" data-name="Path 3941" d="M37.222,170.7a3.016,3.016,0,1,0,3.016,3.016,3.02,3.02,0,0,0-3.016-3.016m0,7.7a4.686,4.686,0,1,1,4.686-4.686,4.692,4.692,0,0,1-4.686,4.686" transform="translate(477.995 1404.313)" fill="#33845d" stroke="#33845d" stroke-width="1"/>
    <path id="Path_3942" data-name="Path 3942" d="M187.385,170.7a3.016,3.016,0,1,0,3.016,3.016,3.019,3.019,0,0,0-3.016-3.016m0,7.7a4.686,4.686,0,1,1,4.687-4.686,4.691,4.691,0,0,1-4.687,4.686" transform="translate(354.534 1404.313)" fill="#33845d" stroke="#33845d" stroke-width="1"/>
    <path id="Path_3943" data-name="Path 3943" d="M303.179,170.7a3.016,3.016,0,1,0,3.015,3.016,3.019,3.019,0,0,0-3.015-3.016m0,7.7a4.686,4.686,0,1,1,4.686-4.686,4.692,4.692,0,0,1-4.686,4.686" transform="translate(259.332 1404.313)" fill="#33845d" stroke="#33845d" stroke-width="1"/>
    <path id="Path_3944" data-name="Path 3944" d="M414.764,170.7a3.016,3.016,0,1,0,3.016,3.016,3.02,3.02,0,0,0-3.016-3.016m0,7.7a4.686,4.686,0,1,1,4.687-4.686,4.691,4.691,0,0,1-4.687,4.686" transform="translate(167.589 1404.313)" fill="#33845d" stroke="#33845d" stroke-width="1"/>
    <g id="Group_139" data-name="Group 139" transform="translate(552.758 1560.89)" clip-path="url(#clip-path)">
      <path id="Path_3945" data-name="Path 3945" d="M307.333,116.828l-.589-1.563a4.167,4.167,0,0,0,2.684-3.88,4.637,4.637,0,0,0-1.305-2.731l-.047-.058c-3.4-3.578-10.524-6.969-14.4-7.5a11.745,11.745,0,0,0-1.657-.149c-3.971,0-7.136,1.927-8.466,5.154a1.026,1.026,0,0,1-1.047.635c-.481-.044-.881-.069-1.095-.069a9.163,9.163,0,0,0-9.153,9.153v.058l-1.67.01v-.068a10.836,10.836,0,0,1,10.824-10.824c.218,0,.517.017.787.038,1.677-3.564,5.395-5.759,9.821-5.759a13.379,13.379,0,0,1,1.893.165c4.232.583,11.721,4.141,15.4,8.029l.036.042.072.086a6.31,6.31,0,0,1,1.682,3.789,5.844,5.844,0,0,1-3.765,5.443" transform="translate(-270.482 -99.225)" fill="#33845d" stroke="#33845d" stroke-width="1"/>
    </g>
    <path id="Path_3947" data-name="Path 3947" d="M20.159,22.887H18.488V19.744A13.428,13.428,0,0,1,31.9,6.331h3.977v4.005h2.1V0H98.96V19.333H97.289V1.667H39.649v10.34H34.208V8H31.9A11.755,11.755,0,0,0,20.159,19.744" transform="translate(489.544 1543.288)" fill="#33845d" stroke="#33845d" stroke-width="1"/>
    <path id="Path_3948" data-name="Path 3948" d="M6.633,109.3l-1.668-.081a11.793,11.793,0,0,1,9.69-11.025,11.989,11.989,0,0,1,1.518-.117c1.015-4.183,4.692-6.945,9.361-6.945h3V98.01H49.988V109.1h-1.67V99.68H26.86V92.8H25.534c-4.074,0-7.231,2.506-7.854,6.237l-.116.7h-.706a15.935,15.935,0,0,0-1.909.1A10.185,10.185,0,0,0,6.633,109.3" transform="translate(500.662 1468.358)" fill="#33845d" stroke="#33845d" stroke-width="1"/>
  </g>
</svg>
