<svg xmlns="http://www.w3.org/2000/svg" width="64.707" height="54.438" viewBox="0 0 64.707 54.438">
  <g id="CAMS" transform="translate(-0.25 -2.989)">
    <g id="Group_3900" data-name="Group 3900" transform="translate(0.25 2.989)">
      <path id="Path_13823" data-name="Path 13823" d="M63.548,2.989H1.659A1.407,1.407,0,0,0,.252,4.4V39.362a1.407,1.407,0,0,0,1.407,1.407h61.89a1.407,1.407,0,0,0,1.407-1.407V4.4a1.407,1.407,0,0,0-1.407-1.407ZM62.142,37.956H3.065V5.8H62.142Z" transform="translate(-0.248 -2.989)" fill="#33845d"/>
      <path id="Path_13824" data-name="Path 13824" d="M64.934,26.72a1.407,1.407,0,0,0-1.406-1.407H41.967a1.406,1.406,0,0,0-1.385,1.16,1.362,1.362,0,0,1-1.407.97H26.032a1.362,1.362,0,0,1-1.407-.97,1.411,1.411,0,0,0-1.389-1.159H1.68A1.407,1.407,0,0,0,.274,26.72l0,3.407c-.011.147-.021.3-.021.454v.267a7.4,7.4,0,0,0,7.7,7.026h49.3a7.4,7.4,0,0,0,7.7-7.026v-.267a3.1,3.1,0,0,0-.023-.432Zm-2.79,4.128a4.594,4.594,0,0,1-4.889,4.213H7.952a4.594,4.594,0,0,1-4.889-4.213l.013-.506c0-.036.011-.158.011-.193V28.127h19.18a4.267,4.267,0,0,0,3.765,2.129H39.175a4.267,4.267,0,0,0,3.765-2.129H62.123l0,2.159a2.81,2.81,0,0,1,.016.3Z" transform="translate(-0.25 16.557)" fill="#33845d"/>
    </g>
  </g>
</svg>
