<svg xmlns="http://www.w3.org/2000/svg" width="75.841" height="79.502" viewBox="0 0 75.841 79.502">
  <g id="Claims" transform="translate(-0.199)">
    <path id="Path_3647" data-name="Path 3647" d="M82.732,37.267a37.267,37.267,0,1,0-74.533,0,29.53,29.53,0,0,0,.131,3.4l2.615-.262a25.17,25.17,0,0,1-.131-3.138A34.651,34.651,0,1,1,46.773,71.918l2.877-2.877-1.831-1.83-6.146,6.146L47.82,79.5l1.831-1.831-3.138-3.138a37.383,37.383,0,0,0,36.22-37.267Zm0,0" transform="translate(-6.692)" fill="#34835c"/>
    <path id="Path_3648" data-name="Path 3648" d="M154.042,112H112.2v18.306h41.843Zm-34,15.691h-5.23v-5.23h2.615v2.615h2.615Zm0-10.461h-2.615v2.615h-2.615v-5.23h5.23Zm5.23,5.23h-3.923v-2.615h3.923Zm7.846,3.923a5.23,5.23,0,1,1,5.23-5.23A5.246,5.246,0,0,1,133.121,126.384Zm11.768-3.923h-3.923v-2.615h3.923Zm6.538,5.23H146.2v-2.615h2.615v-2.615h2.615Zm0-7.846h-2.615V117.23H146.2v-2.615h5.23Zm0,0" transform="translate(-93.693 -93.694)" fill="#34835c"/>
    <path id="Path_3649" data-name="Path 3649" d="M229.429,154.615A2.615,2.615,0,1,1,226.814,152,2.615,2.615,0,0,1,229.429,154.615Zm0,0" transform="translate(-187.387 -127.155)" fill="#34835c"/>
    <path id="Path_3650" data-name="Path 3650" d="M127.273,287.714a2.291,2.291,0,0,0-2.223-2.223,1.181,1.181,0,0,0-.654.13L108.574,290.2a3.763,3.763,0,0,1-1.7.131l-15.168-2.484.261-1.308V285.23h9.153a2.615,2.615,0,1,0,0-5.23H84.776a1.178,1.178,0,0,0-.654.131L80.2,282.353v11.115l13.992,5.884a1.116,1.116,0,0,0,.915,0l30.6-9.545a2.12,2.12,0,0,0,1.569-2.092Zm0,0" transform="translate(-66.924 -234.234)" fill="#34835c"/>
    <path id="Path_3651" data-name="Path 3651" d="M8.045,287.846H5.43V280H.2v17H10.66V280H8.045Zm0,6.538H5.43v-3.923H8.045Zm0,0" transform="translate(0 -234.234)" fill="#34835c"/>
  </g>
</svg>
