<svg xmlns="http://www.w3.org/2000/svg" width="62.374" height="64.5" viewBox="0 0 62.374 64.5">
  <g id="Damage_Assessments" data-name="Damage Assessments" transform="translate(-2.313 -1.25)">
    <g id="Group_3899" data-name="Group 3899">
      <rect id="Rectangle_17455" data-name="Rectangle 17455" width="29.081" height="2" transform="translate(10.645 42.255)" fill="#33845d" stroke="#33845d" stroke-width="0.5"/>
      <rect id="Rectangle_17456" data-name="Rectangle 17456" width="25.4" height="2" transform="translate(10.645 51.025)" fill="#33845d" stroke="#33845d" stroke-width="0.5"/>
      <g id="Group_3898" data-name="Group 3898">
        <rect id="Rectangle_17457" data-name="Rectangle 17457" width="9.5" height="2" transform="translate(26.974 15.945)" fill="#33845d" stroke="#33845d" stroke-width="0.5"/>
        <rect id="Rectangle_17458" data-name="Rectangle 17458" width="5.699" height="2" transform="translate(26.974 24.715)" fill="#33845d" stroke="#33845d" stroke-width="0.5"/>
        <rect id="Rectangle_17459" data-name="Rectangle 17459" width="22.725" height="2" transform="translate(10.645 33.485)" fill="#33845d" stroke="#33845d" stroke-width="0.5"/>
        <path id="Path_13819" data-name="Path 13819" d="M24.445,13.975H9.11V28.686H24.445V13.975Zm-2,12.711H11.11V15.975H22.445V26.686Z" fill="#33845d" stroke="#33845d" stroke-width="0.5"/>
        <path id="Path_13820" data-name="Path 13820" d="M48.646,18.731v-2a10.734,10.734,0,0,0-10.72,10.724h2A8.732,8.732,0,0,1,48.646,18.731Z" fill="#33845d" stroke="#33845d" stroke-width="0.5"/>
        <path id="Path_13821" data-name="Path 13821" d="M49.2,33.086,52.935,35.8a1.318,1.318,0,0,0,1.849-.292,1.3,1.3,0,0,0,.187-1.183l-1.428-4.391,3.738-2.716a1.322,1.322,0,0,0-.779-2.389H51.884l-1.427-4.391a1.321,1.321,0,0,0-2.513,0l-1.427,4.392H41.9a1.322,1.322,0,0,0-.777,2.39l3.736,2.714-1.426,4.389a1.3,1.3,0,0,0,.184,1.184,1.357,1.357,0,0,0,1.848.295ZM43.99,26.828h3.021a1.318,1.318,0,0,0,1.257-.913l.934-2.873.933,2.872a1.318,1.318,0,0,0,1.257.913h3.021L51.968,28.6a1.319,1.319,0,0,0-.48,1.477l.934,2.873-2.443-1.775a1.324,1.324,0,0,0-1.554,0l-2.443,1.775.934-2.872a1.316,1.316,0,0,0-.48-1.477Z" fill="#33845d" stroke="#33845d" stroke-width="0.5"/>
        <path id="Path_13822" data-name="Path 13822" d="M49.2,11.818a1,1,0,0,0,1-1V2.5a1,1,0,0,0-1-1H3.563a1,1,0,0,0-1,1V54.723a1,1,0,0,0,.3.711L12.474,65.2a1.026,1.026,0,0,0,.719.3c.008,0,.015,0,.023,0H49.2l.012,0c.045,0,.089.007.134.007a5.437,5.437,0,0,0,5.431-5.431V45.313H53.05V42.736a15.242,15.242,0,1,0-7.4.07v2.507H43.917V60.069A5.4,5.4,0,0,0,45.14,63.5H14.186V54.723a1,1,0,0,0-1-1H4.563V3.5H48.2v7.318A1,1,0,0,0,49.2,11.818ZM49.348,63.5a3.424,3.424,0,0,1-3.265-2.431h6.529A3.424,3.424,0,0,1,49.348,63.5Zm3.431-4.431H45.917V47.313h6.861ZM35.965,28.01A13.236,13.236,0,1,1,48.987,41.226a12.949,12.949,0,0,1-2.164-.2h0A13.2,13.2,0,0,1,35.965,28.01ZM47.646,43.162c.025,0,.051,0,.076,0,.487.048.979.076,1.475.076.028,0,.056,0,.084,0,.175,0,.346-.019.52-.026.3-.012.925-.042,1.249-.08v2.183h-3.4Zm-35.46,18.89L5.954,55.723h6.232Z" fill="#33845d" stroke="#33845d" stroke-width="0.5"/>
      </g>
    </g>
  </g>
</svg>
