<svg xmlns="http://www.w3.org/2000/svg" width="152.072" height="152.072" viewBox="0 0 152.072 152.072">
  <g id="drawn-arrow" transform="translate(75.39) rotate(45)">
    <path id="Path_10213" data-name="Path 10213" d="M108.36,13.1c-2.078,6.393-5.274,12.466-7.991,18.539a1.385,1.385,0,0,1-2.078.32c-2.717-2.877-5.753-5.754-7.512-9.27h-.16c-19.5-1.438-38.357,15.183-51.783,27.33-15.5,13.9-29.567,30.846-35.161,51.143a64.7,64.7,0,0,0-.639,7.991.959.959,0,1,1-1.918,0V107.72A1.14,1.14,0,0,1,0,106.441c.16-1.758.639-3.516.959-5.274C2.238,57.855,45.39,16.141,87.583,13.424c-1.438-2.557-2.717-5.274-4.315-7.831-.8-1.118.479-2.237,1.6-2.077,7.991,1.118,15.183,4.955,22.535,7.831A1.316,1.316,0,0,1,108.36,13.1ZM86.944,6.712c.959,2.078,1.6,4.155,2.717,6.233a1.18,1.18,0,0,1-.639,1.6,1.013,1.013,0,0,1-.8.959c-38.2,6.393-69.2,32.444-80.711,67.765,7.512-13.9,19.019-26.051,30.366-36.28a160.439,160.439,0,0,1,26.69-19.818c7.512-4.315,16.941-8.311,25.572-5.594h0c-.479-1.279,1.438-1.918,2.078-.959,2.078,2.717,4.155,5.274,6.393,7.672,2.237-4.955,4.635-9.909,6.393-15.023C99.09,11.027,93.177,8.15,86.944,6.712Z" transform="translate(0 -3.5)" fill="#33845d"/>
  </g>
</svg>
