<svg xmlns="http://www.w3.org/2000/svg" width="14" height="20" viewBox="0 -10 20 50" style="padding:0px;background-color: #F1F1F1;">
	<g id="Email" transform="translate(-1 -1.001)">
		<path id="Path_3974" data-name="Path 3974" d="M24.865,23.728H13.5a10.234,10.234,0,1,1,9.721-7.045,2.057,2.057,0,0,1-1.959,1.363,2.083,2.083,0,0,1-2.08-2.08V8.955a1.136,1.136,0,0,0-2.273,0v.029A5.627,5.627,0,0,0,13.5,7.818a5.682,5.682,0,1,0,3.78,9.892,4.355,4.355,0,0,0,3.982,2.608,4.3,4.3,0,0,0,4.118-2.928A12.5,12.5,0,1,0,13.5,26H24.865a1.136,1.136,0,0,0,0-2.273ZM13.5,16.91A3.409,3.409,0,1,1,16.91,13.5,3.413,3.413,0,0,1,13.5,16.91Z" fill="gray" />
	</g>
</svg>
