<svg xmlns="http://www.w3.org/2000/svg" width="54.823" height="73.192" viewBox="0 0 54.823 73.192">
  <g id="Insurance_inquiry" data-name="Insurance inquiry" transform="translate(-5.2 1)">
    <path id="Path_3940" data-name="Path 3940" d="M58.224,18.272,40.6.649A.549.549,0,0,0,40.153.5H11.031A4.334,4.334,0,0,0,6.7,4.831v61.53a4.334,4.334,0,0,0,4.331,4.331h43.16a4.334,4.334,0,0,0,4.331-4.331V18.72C58.373,18.571,58.373,18.421,58.224,18.272Zm-4.63,3.435H41.5a4.334,4.334,0,0,1-4.331-4.331V5.428c0-.6.747-.9,1.045-.448l15.83,15.681A.66.66,0,0,1,53.594,21.707Z" transform="translate(0 0)" fill="none" stroke="#fff" stroke-width="3"/>
  </g>
</svg>
