<svg xmlns="http://www.w3.org/2000/svg" width="22" height="22" viewBox="0 0 22 22">
  <g id="Language" transform="translate(-4 -4)">
    <path id="Path_3845" data-name="Path 3845" d="M15,4A11,11,0,1,0,26,15,11,11,0,0,0,15,4Zm4.39,14.918s0,.008-.006.011-.031.03-.046.046q-.168.184-.351.354c-.029.027-.058.053-.088.079q-.187.166-.389.314c-.028.02-.054.039-.082.061q-.214.154-.442.288c-.021.012-.039.026-.062.039q-.245.14-.5.258l-.032.015a5.719,5.719,0,0,1-.559.216l-.007,0a5.8,5.8,0,0,1-.589.16h0q-.286.06-.582.094a.248.248,0,0,0-.029,0,5.818,5.818,0,0,1-1.237,0,.249.249,0,0,1-.029,0q-.3-.033-.582-.094h0a5.8,5.8,0,0,1-.589-.16l-.007,0a5.719,5.719,0,0,1-.559-.216l-.033-.015q-.258-.118-.5-.258c-.021-.012-.039-.026-.062-.039q-.227-.134-.442-.288c-.028-.02-.055-.039-.082-.061q-.2-.15-.389-.314l-.088-.079q-.183-.169-.351-.354c-.015-.016-.031-.029-.046-.046s0-.008-.006-.011a5.857,5.857,0,0,1,0-7.835s0-.008.006-.011.031-.03.046-.046q.168-.184.351-.354c.029-.027.058-.053.088-.079q.187-.166.389-.314l.082-.061q.214-.154.442-.288c.021-.012.039-.026.062-.039q.245-.141.5-.258l.031-.015a5.91,5.91,0,0,1,.56-.217l.007,0a5.8,5.8,0,0,1,.589-.16h0q.286-.061.582-.094a.249.249,0,0,0,.029,0,5.817,5.817,0,0,1,1.237,0,.249.249,0,0,1,.029,0,5.761,5.761,0,0,1,.582.094h0a5.8,5.8,0,0,1,.589.16l.006,0a5.877,5.877,0,0,1,.56.217l.031.015q.259.118.5.258c.021.012.039.026.062.039q.227.134.442.288c.028.02.055.039.082.061q.2.15.389.314l.088.079q.183.169.351.354c.015.016.031.029.046.046s0,.008.006.011a5.857,5.857,0,0,1,0,7.835Z" fill="#575757"/>
    <path id="Path_3846" data-name="Path 3846" d="M38.334,20.9l-.028-.025q-.149-.133-.307-.254l-.062-.046q-.159-.118-.327-.224l-.066-.039c-.112-.068-.227-.132-.344-.192l-.073-.035q-.166-.081-.336-.149a5.587,5.587,0,0,1,.668,1.267A6.878,6.878,0,0,0,38.334,20.9Z" transform="translate(-19.909 -9.674)" fill="#575757"/>
    <path id="Path_3847" data-name="Path 3847" d="M26.336,35.155a10.646,10.646,0,0,1,1.644-.181V33H26.025a9.443,9.443,0,0,0,.311,2.155Z" transform="translate(-13.372 -17.607)" fill="#575757"/>
    <path id="Path_3848" data-name="Path 3848" d="M34.644,25.514A10.647,10.647,0,0,1,33,25.695v1.974h1.954A9.443,9.443,0,0,0,34.644,25.514Z" transform="translate(-17.607 -13.062)" fill="#575757"/>
    <path id="Path_3849" data-name="Path 3849" d="M26.025,27.669h1.954V25.695a10.647,10.647,0,0,1-1.644-.181,9.443,9.443,0,0,0-.311,2.155Z" transform="translate(-13.372 -13.062)" fill="#575757"/>
    <path id="Path_3850" data-name="Path 3850" d="M33,41.9a2.979,2.979,0,0,0,1.391-1.725A10,10,0,0,0,33,40.022Z" transform="translate(-17.607 -21.87)" fill="#575757"/>
    <path id="Path_3851" data-name="Path 3851" d="M27.46,20.935a9.995,9.995,0,0,0,1.391.148V19.21A2.979,2.979,0,0,0,27.46,20.935Z" transform="translate(-14.244 -9.235)" fill="#575757"/>
    <path id="Path_3852" data-name="Path 3852" d="M33,19.21v1.873a9.995,9.995,0,0,0,1.391-.148A2.979,2.979,0,0,0,33,19.21Z" transform="translate(-17.607 -9.235)" fill="#575757"/>
    <path id="Path_3853" data-name="Path 3853" d="M34.954,33H33v1.975a10.646,10.646,0,0,1,1.644.181A9.443,9.443,0,0,0,34.954,33Z" transform="translate(-17.607 -17.607)" fill="#575757"/>
    <path id="Path_3854" data-name="Path 3854" d="M39.117,24.365a10.231,10.231,0,0,1,.337,2.332h1.954a5.078,5.078,0,0,0-1.1-2.784A7.22,7.22,0,0,1,39.117,24.365Z" transform="translate(-21.321 -12.09)" fill="#575757"/>
    <path id="Path_3855" data-name="Path 3855" d="M39.117,35.332a7.221,7.221,0,0,1,1.2.452A5.078,5.078,0,0,0,41.408,33H39.454A10.231,10.231,0,0,1,39.117,35.332Z" transform="translate(-21.321 -17.607)" fill="#575757"/>
    <path id="Path_3856" data-name="Path 3856" d="M36.791,42.113q.171-.068.336-.149l.073-.035c.118-.059.232-.124.345-.192l.066-.039q.168-.106.327-.224L38,41.427q.157-.121.307-.254l.028-.025a6.878,6.878,0,0,0-.875-.3A5.6,5.6,0,0,1,36.791,42.113Z" transform="translate(-19.909 -22.371)" fill="#575757"/>
    <path id="Path_3857" data-name="Path 3857" d="M21.005,33H19.051a5.078,5.078,0,0,0,1.1,2.784,7.22,7.22,0,0,1,1.2-.452A10.231,10.231,0,0,1,21.005,33Z" transform="translate(-9.138 -17.607)" fill="#575757"/>
    <path id="Path_3858" data-name="Path 3858" d="M28.851,41.9V40.022a9.995,9.995,0,0,0-1.391.148A2.979,2.979,0,0,0,28.851,41.9Z" transform="translate(-14.244 -21.87)" fill="#575757"/>
    <path id="Path_3859" data-name="Path 3859" d="M23.281,41.146l.028.025q.149.133.307.254c.02.016.039.031.062.046q.16.118.327.224l.066.039c.112.068.227.133.345.192l.073.035q.165.081.336.149a5.6,5.6,0,0,1-.668-1.267,6.878,6.878,0,0,0-.875.3Z" transform="translate(-11.706 -22.37)" fill="#575757"/>
    <path id="Path_3860" data-name="Path 3860" d="M21.342,24.365a7.221,7.221,0,0,1-1.2-.452,5.078,5.078,0,0,0-1.1,2.784h1.954a10.231,10.231,0,0,1,.337-2.332Z" transform="translate(-9.138 -12.09)" fill="#575757"/>
    <path id="Path_3861" data-name="Path 3861" d="M24.824,19.93q-.171.068-.336.149l-.073.035c-.118.059-.232.124-.344.192L24,20.345q-.167.1-.327.224l-.062.046q-.157.121-.307.254l-.027.025a6.878,6.878,0,0,0,.875.3,5.586,5.586,0,0,1,.668-1.266Z" transform="translate(-11.706 -9.672)" fill="#575757"/>
  </g>
</svg>
