<svg xmlns="http://www.w3.org/2000/svg" width="53.859" height="78.818" viewBox="0 0 53.859 78.818">
  <g id="Launch" transform="translate(-11 -2)">
    <path id="Path_10222" data-name="Path 10222" d="M18.941,24.764A15.816,15.816,0,0,0,29.45,39.605V58.375l-4.279-4.28a5.958,5.958,0,1,0-8.426,8.426l12.7,12.705v2.083a1.313,1.313,0,0,0,1.314,1.314H60.977a1.313,1.313,0,0,0,1.314-1.314V72.365l1.176-2.35a1.317,1.317,0,0,0,.138-.587V47.091a5.233,5.233,0,0,0-9.2-3.434,5.185,5.185,0,0,0-7.882,0,5.15,5.15,0,0,0-6.568-1.085V39.6a15.755,15.755,0,1,0-21.018-14.84ZM34.7,22.137a5.26,5.26,0,0,0-5.255,5.255v3.232a7.882,7.882,0,1,1,10.509,0V27.391A5.26,5.26,0,0,0,34.7,22.137Zm7.882,22.332A2.63,2.63,0,0,1,45.214,47.1v7.882h2.627V47.1a2.627,2.627,0,1,1,5.255,0v7.882h2.627V47.1a2.627,2.627,0,0,1,5.255-.005V69.118L59.8,71.468a1.317,1.317,0,0,0-.138.587V76H32.077V74.682a1.308,1.308,0,0,0-.385-.929L18.6,60.663a3.331,3.331,0,0,1,4.711-4.711l6.521,6.522a1.313,1.313,0,0,0,2.242-.929V27.391a2.627,2.627,0,0,1,5.255,0V54.978h2.627V47.1A2.63,2.63,0,0,1,42.586,44.469ZM34.7,11.628a13.13,13.13,0,0,1,5.255,25.165V33.824a10.509,10.509,0,1,0-10.509,0v2.969A13.13,13.13,0,0,1,34.7,11.628Z" transform="translate(1.255 2.195)" fill="#3d3d3d"/>
    <path id="Path_10223" data-name="Path 10223" d="M32.38,10.558,36.321,3.99A1.313,1.313,0,0,0,35.2,2H27.314a1.313,1.313,0,0,0-1.126,1.99l3.941,6.568a1.313,1.313,0,0,0,2.252,0ZM29.634,4.627h3.242l-1.621,2.7Z" transform="translate(4.705 0)" fill="#3d3d3d"/>
    <path id="Path_10224" data-name="Path 10224" d="M42.637,23.38l6.568,3.941A1.313,1.313,0,0,0,51.2,26.2V18.314a1.313,1.313,0,0,0-1.989-1.126l-6.568,3.941a1.312,1.312,0,0,0,0,2.252Zm5.931-2.746v3.241l-2.7-1.621Z" transform="translate(9.723 4.705)" fill="#3d3d3d"/>
    <path id="Path_10225" data-name="Path 10225" d="M19.558,21.129,12.99,17.188A1.314,1.314,0,0,0,11,18.313V26.2a1.313,1.313,0,0,0,1.99,1.126l6.568-3.941a1.313,1.313,0,0,0,0-2.252Zm-5.931,2.746V20.633l2.7,1.621Z" transform="translate(0 4.705)" fill="#3d3d3d"/>
  </g>
</svg>
