<svg xmlns="http://www.w3.org/2000/svg" width="38.564" height="38.564" viewBox="0 0 38.564 38.564">
  <g id="Left_Arrow_Slider" data-name="Left Arrow Slider" transform="translate(38.564) rotate(90)">
    <path id="Path_334" data-name="Path 334" d="M19.282,38.564A19.282,19.282,0,1,0,0,19.282,19.3,19.3,0,0,0,19.282,38.564Zm0-35.8A16.522,16.522,0,1,1,2.76,19.282,16.536,16.536,0,0,1,19.282,2.76Z" fill="#575757"/>
    <path id="Path_335" data-name="Path 335" d="M7.784,9.783a1.372,1.372,0,0,0,1.948,0l7.429-7.429a1.4,1.4,0,0,0,0-1.948,1.4,1.4,0,0,0-1.948,0L8.758,6.82,2.344.406A1.319,1.319,0,0,0,1.37,0,1.259,1.259,0,0,0,.4.406a1.4,1.4,0,0,0,0,1.948Z" transform="translate(10.524 14.979)" fill="#575757"/>
  </g>
</svg>
