<svg xmlns="http://www.w3.org/2000/svg" width="18.552" height="17.526" viewBox="0 0 18.552 17.526">
  <g id="Login" transform="translate(-12.834 -15.834)">
    <path id="Path_3970" data-name="Path 3970" d="M29.334,15.834H20.357a2.054,2.054,0,0,0-2.052,2.052v3.968h1.539V17.886a.513.513,0,0,1,.513-.513h8.977a.513.513,0,0,1,.513.513V31.308a.513.513,0,0,1-.513.513H20.357a.513.513,0,0,1-.513-.513V27.34H18.305v3.968a2.054,2.054,0,0,0,2.052,2.052h8.977a2.054,2.054,0,0,0,2.052-2.052V17.886A2.054,2.054,0,0,0,29.334,15.834ZM21.683,27.741l1.088,1.088L27,24.6l-4.232-4.232-1.088,1.088,2.374,2.374H12.834v1.539H24.058Z" fill="#33845D"/>
  </g>
</svg>
