<svg xmlns="http://www.w3.org/2000/svg" width="70.393" height="60.553" viewBox="0 0 70.393 60.553">
  <g id="Najm_Net" data-name="Najm Net" transform="translate(-1157.062 -258.556)">
    <path id="Path_3835" data-name="Path 3835" d="M84.659,119.537H81.075a.348.348,0,0,0-.385.385v9.8a2.266,2.266,0,0,1-.444,1.607,1.948,1.948,0,0,1-1.422.444H70.041a3.9,3.9,0,0,1-2.273-.585,2.162,2.162,0,0,1-.948-1.622v-.97a15.261,15.261,0,0,0-.444-3.7,8.2,8.2,0,0,0-1.481-3.1,7.308,7.308,0,0,0-2.8-2.133,10.448,10.448,0,0,0-4.354-.792,8.6,8.6,0,0,0-4.08.889,10.367,10.367,0,0,0-2.873,2.221c-.156.156-.126.333.081.541l2.014,2.1a.363.363,0,0,0,.548,0,6.375,6.375,0,0,1,1.866-1.363,5.332,5.332,0,0,1,2.333-.5,4.813,4.813,0,0,1,2.221.444,3.865,3.865,0,0,1,1.422,1.222,4.88,4.88,0,0,1,.74,1.822,10.418,10.418,0,0,1,.237,2.281,8.493,8.493,0,0,1-.118,1.562,1.985,1.985,0,0,1-.467,1.029,1.858,1.858,0,0,1-.97.541,6.92,6.92,0,0,1-1.629.156H44.109a2.333,2.333,0,0,1-1.6-.681,3.206,3.206,0,0,1-.792-2.17c.037-.459.059-.963.059-1.54a14.609,14.609,0,0,0-.148-2.258,11.552,11.552,0,0,0-.444-1.777,6.161,6.161,0,0,0-2.71-3.325,8.841,8.841,0,0,0-4.68-1.185H19.288a4.426,4.426,0,0,0-3.473,1.185,5.474,5.474,0,0,0-1.037,3.7v19.112a.341.341,0,0,0,.385.392h3.584a.348.348,0,0,0,.385-.392V124.809a2.288,2.288,0,0,1,.444-1.614A1.948,1.948,0,0,1,21,122.751h5.628a5.334,5.334,0,0,0-.259.629,10.758,10.758,0,0,0-.444,1.777,16.477,16.477,0,0,0,0,4.517,10.761,10.761,0,0,0,.444,1.777,6.175,6.175,0,0,0,2.7,3.325,8.952,8.952,0,0,0,4.724,1.185,8.842,8.842,0,0,0,4.68-1.185,6.427,6.427,0,0,0,1.437-1.177,4.161,4.161,0,0,0,1.185,1.222,5.044,5.044,0,0,0,1.355.607,6.663,6.663,0,0,0,1.429.23c.481,0,.948.044,1.392.044H60.756a8.887,8.887,0,0,0,3.169-.489,3.829,3.829,0,0,0,2.036-1.822,3.31,3.31,0,0,0,1.888,1.866,8.567,8.567,0,0,0,2.858.429h9.826A4.417,4.417,0,0,0,84,134.51a5.535,5.535,0,0,0,1.044-3.7V119.922a.341.341,0,0,0-.385-.385m-47.3,9.426a5.642,5.642,0,0,1-.289,1.185,3.08,3.08,0,0,1-1.222,1.407,3.813,3.813,0,0,1-2.051.511,3.909,3.909,0,0,1-2.073-.511,3.065,3.065,0,0,1-1.229-1.407,5.642,5.642,0,0,1-.289-1.185,12.661,12.661,0,0,1-.074-1.555,12.242,12.242,0,0,1,.074-1.54,6.332,6.332,0,0,1,.289-1.207,3.066,3.066,0,0,1,1.237-1.429,3.909,3.909,0,0,1,2.073-.511,3.813,3.813,0,0,1,2.051.511,3.08,3.08,0,0,1,1.222,1.429,6.332,6.332,0,0,1,.289,1.207,13.838,13.838,0,0,1,.074,1.54,14.342,14.342,0,0,1-.074,1.555" transform="translate(1142.288 147.064)" fill="#fff"/>
    <path id="Path_3836" data-name="Path 3836" d="M107.866,108.909h-3.7a.341.341,0,0,0-.385.392v3.377a.341.341,0,0,0,.385.392h3.7a.348.348,0,0,0,.392-.392v-3.369a.348.348,0,0,0-.392-.392" transform="translate(1119.193 149.651)" fill="#fff"/>
    <path id="Path_3837" data-name="Path 3837" d="M67.378,145.059H63.8a.348.348,0,0,0-.392.392v3.377a.348.348,0,0,0,.392.392h3.577a.341.341,0,0,0,.385-.392v-3.377a.341.341,0,0,0-.385-.392" transform="translate(1129.669 140.269)" fill="#fff"/>
    <path id="Path_3838" data-name="Path 3838" d="M26.627,174.505a.341.341,0,0,1-.385-.385v-10.8a4.606,4.606,0,0,0-.9-2.962,3.169,3.169,0,0,0-2.644-1.126,3.236,3.236,0,0,0-2.636,1.126,4.5,4.5,0,0,0-.933,2.962v10.8a.341.341,0,0,1-.392.385H15.164a.341.341,0,0,1-.385-.385V156.163a.341.341,0,0,1,.385-.385H18.74a.341.341,0,0,1,.392.385v1.363h.037a5.08,5.08,0,0,1,1.844-1.533,6.583,6.583,0,0,1,3.088-.644,6.665,6.665,0,0,1,2.7.526,6,6,0,0,1,2.036,1.481,6.338,6.338,0,0,1,1.3,2.221,8.338,8.338,0,0,1,.452,2.777V174.2a.341.341,0,0,1-.392.385Z" transform="translate(1142.288 137.599)" fill="#fff"/>
    <path id="Path_3839" data-name="Path 3839" d="M50.583,174.5a.341.341,0,0,1-.392-.385V172.75h0a4.561,4.561,0,0,1-2.014,1.585,7.878,7.878,0,0,1-3.3.607,8.377,8.377,0,0,1-2.429-.348,5.842,5.842,0,0,1-2-1.044,4.954,4.954,0,0,1-1.363-1.762,5.843,5.843,0,0,1-.5-2.54,5.17,5.17,0,0,1,2-4.495,9.345,9.345,0,0,1,5.494-1.429h3.814a.207.207,0,0,0,.23-.237v-.9a2.962,2.962,0,0,0-.859-2.407,5.249,5.249,0,0,0-3.258-.74,7.568,7.568,0,0,0-2.607.37,5.68,5.68,0,0,0-1.674.911c-.23.178-.415.156-.541-.081L39.7,157.674a.333.333,0,0,1,.074-.5,9.532,9.532,0,0,1,2.725-1.348,13.235,13.235,0,0,1,3.925-.5q4.265,0,6.035,1.555c1.185,1.037,1.77,2.7,1.77,4.976v12.263a.341.341,0,0,1-.385.385Zm-4.621-3.125a5.228,5.228,0,0,0,3.088-.741,2.777,2.777,0,0,0,1.066-2.407v-1.437a.207.207,0,0,0-.23-.237h-3.11a6.043,6.043,0,0,0-3.073.607,2.1,2.1,0,0,0-.97,1.918q0,2.332,3.229,2.333" transform="translate(1136.112 137.607)" fill="#fff"/>
    <path id="Path_3840" data-name="Path 3840" d="M59.183,181.648a.341.341,0,0,1-.385-.392v-3.11a.341.341,0,0,1,.385-.385h.859a2.406,2.406,0,0,0,1.666-.466,2.333,2.333,0,0,0,.511-1.748V156.294a.341.341,0,0,1,.385-.385h3.577a.341.341,0,0,1,.385.385V175.45q0,3.266-1.607,4.724a6.788,6.788,0,0,1-4.687,1.481Z" transform="translate(1130.865 137.453)" fill="#fff"/>
    <path id="Path_3841" data-name="Path 3841" d="M96.15,174.506a.341.341,0,0,1-.385-.385v-10.8a4.606,4.606,0,0,0-.9-2.962,3.162,3.162,0,0,0-2.658-1.118,3.251,3.251,0,0,0-2.644,1.126,4.5,4.5,0,0,0-.933,2.962v10.8a.341.341,0,0,1-.392.385H84.694a.341.341,0,0,1-.392-.385v-10.8a4.606,4.606,0,0,0-.9-2.962,3.162,3.162,0,0,0-2.636-1.126,3.251,3.251,0,0,0-2.629,1.133,4.5,4.5,0,0,0-.933,2.962v10.8a.341.341,0,0,1-.385.385H73.231a.341.341,0,0,1-.392-.385V156.164a.341.341,0,0,1,.392-.385h3.577a.341.341,0,0,1,.385.385v1.362h0a5.079,5.079,0,0,1,1.844-1.533,7.456,7.456,0,0,1,6.065,0,5.746,5.746,0,0,1,2.155,1.844H87.3a7.834,7.834,0,0,1,2.518-1.822,8.2,8.2,0,0,1,3.458-.666,7.509,7.509,0,0,1,2.9.526,6.071,6.071,0,0,1,2.14,1.481,6.153,6.153,0,0,1,1.318,2.221,8.339,8.339,0,0,1,.452,2.777V174.2a.341.341,0,0,1-.392.385Z" transform="translate(1127.221 137.598)" fill="#fff"/>
  </g>
</svg>
