<svg xmlns="http://www.w3.org/2000/svg" width="32.833" height="30.122" viewBox="0 0 32.833 30.122">
  <g id="Notification_Bell" data-name="Notification Bell" transform="translate(-1442 -68)">
    <g id="noun_Bell_2786324" transform="translate(1434.293 55.4)">
      <path id="Path_3975" data-name="Path 3975" d="M40.11,33.17c-2.289-2.653-.664-6.208-1.749-12.01-.739-3.929-4.748-5.3-7.232-5.783v-.788a1.989,1.989,0,1,0-3.978,0v.788c-2.485.473-6.493,1.839-7.232,5.78-1.085,5.787.544,9.345-1.749,12.01s-1.385,2.954-1.385,2.954H41.5S42.4,35.82,40.11,33.17Z" transform="translate(-2.861)" fill="#575757"/>
      <path id="Path_3976" data-name="Path 3976" d="M42.679,85.539a4.4,4.4,0,0,0,4.4-4.4h-8.8A4.4,4.4,0,0,0,42.679,85.539Z" transform="translate(-16.4 -42.817)" fill="#575757"/>
      <path id="Path_3977" data-name="Path 3977" d="M76.166,26.322a.938.938,0,0,1-.927-1.092,7.627,7.627,0,0,0-3.948-7.919.939.939,0,0,1,.822-1.689c.06.03,6.1,3.059,4.98,9.908A.938.938,0,0,1,76.166,26.322Z" transform="translate(-36.691 -1.829)" fill="#575757"/>
      <path id="Path_3978" data-name="Path 3978" d="M13.091,26.326a.938.938,0,0,1-.923-.788c-1.126-6.849,4.916-9.878,4.98-9.908a.938.938,0,1,1,.826,1.685,7.529,7.529,0,0,0-3.952,7.919.938.938,0,0,1-.773,1.077.949.949,0,0,1-.158.015Z" transform="translate(0 -1.833)" fill="#575757"/>
    </g>
    <g id="Ellipse_26" data-name="Ellipse 26" transform="translate(1442 82)" fill="#c92a2a" stroke="#fff" stroke-width="2">
      <circle cx="7.5" cy="7.5" r="7.5" stroke="none"/>
      <circle cx="7.5" cy="7.5" r="6.5" fill="none"/>
    </g>
  </g>
</svg>
