<svg xmlns="http://www.w3.org/2000/svg" width="20" height="24" viewBox="0 0 20 24">
  <g id="Password" transform="translate(-5 -3)">
    <g id="Group_145" data-name="Group 145">
      <g id="Group_144" data-name="Group 144" transform="translate(-225 -90)">
        <g id="Group_143" data-name="Group 143" transform="translate(230 93)">
          <path id="Path_3972" data-name="Path 3972" d="M17,7A7,7,0,0,0,3,7v6H5V7A5,5,0,0,1,15,7v6h2Z" fill="gray" fill-rule="evenodd"/>
          <path id="Path_3973" data-name="Path 3973" d="M0,12.006v9.988A2,2,0,0,0,1.991,24H18.009A2,2,0,0,0,20,21.994V12.006A2,2,0,0,0,18.009,10H1.991A2,2,0,0,0,0,12.006Z" fill="gray" fill-rule="evenodd"/>
        </g>
      </g>
    </g>
  </g>
</svg>
