<svg xmlns="http://www.w3.org/2000/svg" width="48.17" height="44.525" viewBox="0 0 48.17 44.525">
  <g id="percentage" transform="translate(-27.985 -15.029)">
    <g id="Group_136" data-name="Group 136" transform="translate(27.985 15.029)">
      <path id="Path_3937" data-name="Path 3937" d="M45.377,15.291h-9.01l22.4,44.525h9.01Zm19.72,1.03a9.069,9.069,0,0,0-5.934,4.046,9.813,9.813,0,0,0,2.52,13.2,8.994,8.994,0,0,0,12.936-2.459,9.8,9.8,0,0,0-2.512-13.2A9.047,9.047,0,0,0,65.1,16.321Zm-1.015,7.213a3.2,3.2,0,0,1,4.618-.88,4.021,4.021,0,0,1,1.008,5.287,3.2,3.2,0,0,1-4.618.88,4,4,0,0,1-1.008-5.287ZM35.457,39.96A9.049,9.049,0,0,0,29.522,44a9.8,9.8,0,0,0,2.512,13.2,9,9,0,0,0,12.944-2.459,9.813,9.813,0,0,0-2.52-13.2A9,9,0,0,0,35.457,39.96Zm-1.023,7.205a3.262,3.262,0,0,1,2.121-1.452,3.2,3.2,0,0,1,2.5.579,3.989,3.989,0,0,1,1.008,5.28,3.2,3.2,0,0,1-4.618.88,4.021,4.021,0,0,1-1.008-5.287Z" transform="translate(-27.985 -15.291)" fill="#fff" fill-rule="evenodd"/>
    </g>
  </g>
</svg>
