<svg xmlns="http://www.w3.org/2000/svg" width="65.5" height="66.201" viewBox="0 0 65.5 66.201">
  <g id="Register" transform="translate(-6.113 -5.071)">
    <path id="Path_10214" data-name="Path 10214" d="M46.233,16.155H17.93a1.391,1.391,0,0,0,0,2.783h28.3a1.391,1.391,0,1,0,0-2.783Z" transform="translate(-0.756 -0.803)" fill="#3d3d3d"/>
    <path id="Path_10215" data-name="Path 10215" d="M46.233,28.672H17.93a1.391,1.391,0,1,0,0,2.783h28.3a1.391,1.391,0,1,0,0-2.783Z" transform="translate(-0.756 -1.711)" fill="#3d3d3d"/>
    <path id="Path_10216" data-name="Path 10216" d="M55.147,57.521a1.392,1.392,0,0,0-1.391,1.391v5.256a4.326,4.326,0,0,1-4.32,4.32H13.215A4.325,4.325,0,0,1,8.9,64.169v-52a4.325,4.325,0,0,1,4.319-4.32H49.437a4.326,4.326,0,0,1,4.32,4.32v4.581a1.391,1.391,0,1,0,2.783,0V12.174a7.111,7.111,0,0,0-7.1-7.1H13.215a7.11,7.11,0,0,0-7.1,7.1v52a7.11,7.11,0,0,0,7.1,7.1H49.437a7.111,7.111,0,0,0,7.1-7.1V58.913A1.393,1.393,0,0,0,55.147,57.521Z" transform="translate(0)" fill="#3d3d3d"/>
    <path id="Path_10217" data-name="Path 10217" d="M69.774,19.944a7.047,7.047,0,0,0-4.159-1.35,7.133,7.133,0,0,0-5.76,2.938L42.374,45.682l-8.9-9.1a7.1,7.1,0,1,0-10.159,9.93L38.107,61.639a7.144,7.144,0,0,0,5.079,2.138c.174,0,.352-.007.522-.019a7.094,7.094,0,0,0,5.233-2.918L71.362,29.863a7.1,7.1,0,0,0-1.589-9.92Zm-.664,8.286L46.688,59.206a4.322,4.322,0,0,1-6.591.487L25.306,44.563a4.32,4.32,0,0,1,6.179-6.04L41.539,48.808a1.391,1.391,0,0,0,2.121-.157L62.108,23.164a4.342,4.342,0,0,1,3.506-1.788,4.322,4.322,0,0,1,3.5,6.854Z" transform="translate(-1.1 -0.98)" fill="#3d3d3d"/>
  </g>
</svg>
