<svg xmlns="http://www.w3.org/2000/svg" width="68.761" height="66.201" viewBox="0 0 68.761 66.201">
  <g id="Try" transform="translate(-2.75 -3.932)">
    <g id="Group_3619" data-name="Group 3619" transform="translate(2.75 3.932)">
      <path id="Path_10218" data-name="Path 10218" d="M70.7,61.773H67.614V26.864a5.1,5.1,0,0,0-5.1-5.1H59.107V18.506a.811.811,0,0,0-.238-.574l-2.421-2.421V11.343h2.077a.812.812,0,0,0,.812-.812V4.744a.812.812,0,0,0-.812-.812H52.746a.812.812,0,0,0-.812.812v5.786a.812.812,0,0,0,.812.812h2.078v4.5a.812.812,0,0,0,.238.574l2.421,2.421v2.923H37.948V11.343h2.077a.812.812,0,0,0,.812-.812V4.744a.812.812,0,0,0-.812-.812H34.246a.812.812,0,0,0-.812.812v5.786a.812.812,0,0,0,.812.812h2.078V21.765H16.789V18.842l2.42-2.421a.812.812,0,0,0,.238-.574v-4.5h2.078a.812.812,0,0,0,.812-.812V4.744a.812.812,0,0,0-.812-.812H15.745a.812.812,0,0,0-.812.812v5.786a.812.812,0,0,0,.812.812h2.077v4.169L15.4,17.932a.812.812,0,0,0-.238.574v3.259H11.755a5.1,5.1,0,0,0-5.1,5.1V61.773H3.562a.812.812,0,0,0-.812.812A7.556,7.556,0,0,0,10.3,70.133H63.974a7.551,7.551,0,0,0,7.537-7.548A.812.812,0,0,0,70.7,61.773ZM53.558,5.556h4.155V9.719H53.558Zm-18.5,0h4.155V9.719H35.058Zm-18.5,0h4.155V9.719H16.557ZM8.281,26.864a3.479,3.479,0,0,1,3.475-3.475h50.76a3.479,3.479,0,0,1,3.475,3.475V61.773h-21.7a.814.814,0,0,0-.687.38l-1.71,2.718H30.563l-1.711-2.718a.811.811,0,0,0-.687-.38H8.281ZM63.974,68.509H10.3A5.933,5.933,0,0,1,4.429,63.4H27.716l1.711,2.718a.811.811,0,0,0,.687.38H42.34a.814.814,0,0,0,.687-.38l1.71-2.718H69.832A5.926,5.926,0,0,1,63.974,68.509Z" transform="translate(-2.75 -3.932)" fill="#3d3d3d"/>
      <path id="Path_10219" data-name="Path 10219" d="M62.7,56.607V25.172a.812.812,0,0,0-.812-.812H11.129a.812.812,0,0,0-.812.812V56.608a.812.812,0,0,0,.812.812H61.889A.813.813,0,0,0,62.7,56.607ZM61.077,55.8H11.941V25.984H61.077V55.8Z" transform="translate(-2.123 -2.24)" fill="#3d3d3d"/>
      <path id="Path_10220" data-name="Path 10220" d="M22.434,50.14a3.071,3.071,0,1,0,0,1.624h2.92a.812.812,0,0,0,.574-.238l2.352-2.352a11.435,11.435,0,0,0,15.446,0l2.352,2.352a.812.812,0,0,0,.574.238h2.921a3.074,3.074,0,1,0,0-1.624H46.989L44.851,48a11.39,11.39,0,0,0,2.634-6.539h2.089a3.074,3.074,0,1,0,0-1.624H47.483a11.332,11.332,0,0,0-2.954-6.919l1.761-1.761h3.283a3.074,3.074,0,1,0,0-1.624H45.954a.812.812,0,0,0-.574.238L43.357,31.8a11.441,11.441,0,0,0-14.711,0l-2.02-2.02a.812.812,0,0,0-.574-.238H22.434a3.07,3.07,0,1,0,0,1.624h3.282l1.758,1.758a11.378,11.378,0,0,0-2.96,6.923H22.435a3.071,3.071,0,1,0,0,1.624h2.078A11.358,11.358,0,0,0,27.154,48L25.017,50.14H22.434ZM19.487,52.4a1.448,1.448,0,1,1,1.446-1.446A1.447,1.447,0,0,1,19.487,52.4ZM52.52,49.5a1.448,1.448,0,1,1-1.446,1.451A1.449,1.449,0,0,1,52.52,49.5Zm0-20.606a1.448,1.448,0,1,1-1.446,1.451A1.449,1.449,0,0,1,52.52,28.9Zm-33.033,2.9a1.448,1.448,0,1,1,1.446-1.444A1.447,1.447,0,0,1,19.487,31.791ZM52.52,39.2a1.448,1.448,0,1,1-1.446,1.451A1.449,1.449,0,0,1,52.52,39.2Zm-33.033,2.9a1.448,1.448,0,1,1,1.446-1.446A1.447,1.447,0,0,1,19.487,42.095ZM36,30.739a9.906,9.906,0,1,1-9.9,9.912A9.914,9.914,0,0,1,36,30.739Z" transform="translate(-1.618 -1.998)" fill="#3d3d3d"/>
      <path id="Path_10221" data-name="Path 10221" d="M30.829,42.6l-.909,1.378,1.2,1.2L32.5,44.26a4.687,4.687,0,0,0,1.31.538l.323,1.623h1.7l.323-1.623a4.683,4.683,0,0,0,1.31-.538l1.378.919,1.2-1.2-.919-1.388a4.377,4.377,0,0,0,.548-1.3l1.623-.332v-1.7l-1.623-.323a4.433,4.433,0,0,0-.548-1.31l.919-1.378-1.2-1.2-1.378.919a4.43,4.43,0,0,0-1.31-.547l-.323-1.623h-1.7l-.323,1.623a4.433,4.433,0,0,0-1.31.547l-1.378-.919-1.2,1.2.909,1.378a5,5,0,0,0-.538,1.31l-1.623.323v1.7l1.623.332A4.992,4.992,0,0,0,30.829,42.6Zm4.154-5.112a2.625,2.625,0,1,1-2.63,2.62A2.62,2.62,0,0,1,34.983,37.486Z" transform="translate(-0.603 -1.458)" fill="#3d3d3d"/>
    </g>
  </g>
</svg>
