<svg xmlns="http://www.w3.org/2000/svg" width="30.122" height="30.122" viewBox="0 0 30.122 30.122">
  <g id="User_Name" data-name="User Name" transform="translate(-5 -5)">
    <g id="Group_142" data-name="Group 142" transform="translate(5 5)">
      <path id="Path_3971" data-name="Path 3971" d="M20.061,5h0a15.061,15.061,0,0,0,0,30.122h0A15.061,15.061,0,1,0,20.061,5Zm-3.146,8.166a3.615,3.615,0,1,1,0,3.615A3.641,3.641,0,0,1,16.915,13.166Zm10.844,13.99a1.614,1.614,0,0,1-1.64,1.606H14a1.636,1.636,0,0,1-1.64-1.606v-1.2A5.439,5.439,0,0,1,15.041,21.3l.067-.033a9.887,9.887,0,0,1,9.907,0l.067.033a5.439,5.439,0,0,1,2.677,4.652Z" transform="translate(-5 -5)" fill="gray"/>
    </g>
  </g>
</svg>
