<svg xmlns="http://www.w3.org/2000/svg" width="23.991" height="23.991" viewBox="0 0 23.991 23.991" style="transform: rotateY(180deg);">
  <g id="View_All_Arrow" data-name="View All Arrow" transform="translate(23.991) rotate(90)">
    <g id="Group_135" data-name="Group 135" transform="translate(0 0)">
      <path id="Path_334" data-name="Path 334" d="M12,0A12,12,0,1,1,0,12,12.006,12.006,0,0,1,12,0Zm0,22.273A10.278,10.278,0,1,0,1.717,12,10.287,10.287,0,0,0,12,22.273Z" fill="#fff"/>
      <path id="Path_335" data-name="Path 335" d="M4.842.253a.854.854,0,0,1,1.212,0l4.621,4.621A.857.857,0,1,1,9.464,6.086L5.448,2.1l-3.99,3.99a.821.821,0,0,1-.606.253.783.783,0,0,1-.606-.253.869.869,0,0,1,0-1.212Z" transform="translate(6.547 8.334)" fill="#fff"/>
    </g>
  </g>
</svg>
