<svg width="230" height="498" viewBox="0 0 230 498" fill="none" xmlns="http://www.w3.org/2000/svg">
<g style="mix-blend-mode:overlay">
<path fill-rule="evenodd" clip-rule="evenodd" d="M42.0769 297.465L-12 351.643V296.44L14.5236 269.867L42.0769 297.465Z" fill="#C6AA76" fill-opacity="0.7"/>
<path fill-rule="evenodd" clip-rule="evenodd" d="M115.333 224.065L87.7868 196.474L104.905 179.324L-11.9988 62.2025V7L159.998 179.324L115.333 224.065Z" fill="#C6AA76" fill-opacity="0.7"/>
<path fill-rule="evenodd" clip-rule="evenodd" d="M82.0391 337.501L104.907 314.598L64.941 274.564L37.3876 246.96L24.5316 234.073L-11.9971 197.483V142.287L56.825 211.237L56.8114 211.251L64.9206 219.375L92.4671 246.973L118.377 272.931L118.391 272.917L160 314.598L-11.9971 486.915V431.719L82.0391 337.501Z" fill="#C6AA76" fill-opacity="0.7"/>
<path d="M122.365 285.204L122.365 285.204L49.9935 357.139L-5.88363 301.586L22.235 273.649L49.641 300.89L49.9935 301.241L50.346 300.89L91.4283 260.042L91.4288 260.042L102.046 249.515L102.046 249.515L130.874 220.847L172.71 179.277L173.067 178.922L172.71 178.567L148.768 154.783L50.3459 56.954L49.9935 56.6037L49.641 56.954L-72.7096 178.568L-73.0667 178.922L-72.7094 179.277L-55.1333 196.721L-83.265 224.684L-129.291 178.922L49.9935 0.704988L229.291 178.922L158.984 248.805L159.336 249.16L158.984 248.805L130.17 277.459L130.169 277.46L122.365 285.204Z" stroke="#9A9374"/>
<path d="M-21.6521 212.94L-21.1556 212.448L-21.182 212.435L49.9934 141.901L105.882 197.299L77.7518 225.151L50.3454 197.991L49.9935 197.643L49.6415 197.991L11.3979 235.89L-2.04553 249.212L-30.8735 277.78L-72.7091 319.239L-73.0678 319.594L-72.7088 319.949L-48.7541 343.649L-48.7538 343.649L49.6415 441.183L49.9934 441.532L50.3454 441.183L172.683 319.949L173.041 319.594L172.683 319.239L155.147 301.849L183.265 273.984L229.29 319.594L49.9935 497.26L-129.29 319.594L-86.4595 277.137L-86.4463 277.15L-86.0957 276.803L-58.9845 249.936L-30.1565 221.368L-21.6521 212.94Z" stroke="#9A9374"/>
</g>
</svg>
