<svg width="1440" height="1183" viewBox="0 0 1440 1183" fill="none" xmlns="http://www.w3.org/2000/svg">
<path fill-rule="evenodd" clip-rule="evenodd" d="M89.4905 862.426L-2 954.086V860.691L42.8741 815.734L89.4905 862.426Z" fill="#C6AA76" fill-opacity="0.12"/>
<path fill-rule="evenodd" clip-rule="evenodd" d="M213.43 738.244L166.825 691.564L195.787 662.548L-1.99786 464.395V371L288.997 662.548L213.43 738.244Z" fill="#C6AA76" fill-opacity="0.12"/>
<path fill-rule="evenodd" clip-rule="evenodd" d="M157.101 930.161L195.79 891.412L128.173 823.68L81.5567 776.977L59.8063 755.175L-1.99512 693.27V599.887L114.442 716.541L114.419 716.564L128.139 730.309L174.743 777L218.579 820.918L218.602 820.894L289 891.412L-1.99512 1182.95V1089.56L157.101 930.161Z" fill="#C6AA76" fill-opacity="0.12"/>
<g opacity="0.12">
<path fill-rule="evenodd" clip-rule="evenodd" d="M1400.07 214.451L1440 254.451V213.695L1420.42 194.076L1400.07 214.451Z" fill="#C6AA76"/>
<path fill-rule="evenodd" clip-rule="evenodd" d="M1345.99 160.26L1366.33 139.89L1353.69 127.227L1440 40.7562V0L1313.01 127.227L1345.99 160.26Z" fill="#C6AA76"/>
<path fill-rule="evenodd" clip-rule="evenodd" d="M1370.57 244.01L1353.69 227.1L1383.19 197.544L1403.54 177.163L1413.03 167.649L1440 140.634V99.8831L1389.19 150.789L1389.2 150.799L1383.21 156.797L1362.87 177.173L1343.74 196.338L1343.73 196.328L1313.01 227.1L1440 354.323V313.572L1370.57 244.01Z" fill="#C6AA76"/>
</g>
</svg>
