<svg width="242" height="498" viewBox="0 0 242 498" fill="none" xmlns="http://www.w3.org/2000/svg">
<g style="mix-blend-mode:overlay">
<path fill-rule="evenodd" clip-rule="evenodd" d="M187.923 200.499L242 146.321L242 201.524L215.476 228.097L187.923 200.499Z" fill="#C6AA76" fill-opacity="0.7"/>
<path fill-rule="evenodd" clip-rule="evenodd" d="M114.667 273.899L142.213 301.49L125.095 318.64L241.999 435.762L241.999 490.964L70.0015 318.64L114.667 273.899Z" fill="#C6AA76" fill-opacity="0.7"/>
<path fill-rule="evenodd" clip-rule="evenodd" d="M147.961 160.463L125.093 183.366L165.059 223.4L192.612 251.005L205.468 263.891L241.997 300.481L241.997 355.677L173.175 286.727L173.189 286.713L165.079 278.589L137.533 250.991L111.623 225.033L111.61 225.047L69.9998 183.366L241.997 11.0491L241.997 66.2447L147.961 160.463Z" fill="#C6AA76" fill-opacity="0.7"/>
<path d="M0.709275 319.042L71.016 249.159L70.6789 248.819L71.0161 249.159L99.8304 220.505L99.8308 220.504L107.635 212.76L107.635 212.76L180.007 140.825L235.884 196.378L207.765 224.315L180.359 197.074L180.007 196.723L179.654 197.074L138.572 237.922L138.571 237.922L127.954 248.449L127.954 248.45L99.1257 277.117L57.2902 318.687L56.9332 319.042L57.2903 319.397L81.2322 343.181L179.654 441.01L180.007 441.36L180.359 441.01L302.71 319.397L303.067 319.042L302.709 318.687L285.133 301.243L313.265 273.281L359.291 319.042L180.007 497.259L0.709275 319.042Z" stroke="#9A9374"/>
<path d="M251.652 285.024L251.156 285.516L251.182 285.529L180.007 356.063L124.118 300.665L152.248 272.813L179.655 299.973L180.007 300.321L180.358 299.973L218.602 262.074L232.046 248.752L260.874 220.184L302.709 178.725L303.068 178.37L302.709 178.015L278.754 154.315L278.754 154.315L180.359 56.7811L180.007 56.4322L179.655 56.781L57.3173 178.015L56.9591 178.37L57.3172 178.725L74.8527 196.116L46.7349 223.98L0.710343 178.37L180.007 0.704025L359.29 178.37L316.46 220.827L316.446 220.814L316.096 221.162L288.985 248.028L260.157 276.596L251.652 285.024Z" stroke="#9A9374"/>
</g>
</svg>
