<svg width="43" height="43" viewBox="0 0 43 43" fill="none" xmlns="http://www.w3.org/2000/svg">
<g clip-path="url(#clip0_406_2392)">
<g clip-path="url(#clip1_406_2392)">
<path fill-rule="evenodd" clip-rule="evenodd" d="M41.3937 21.5392C41.3937 10.3995 32.3621 1.36792 21.2235 1.36792C10.0826 1.36792 1.05103 10.3995 1.05103 21.5392C1.05103 31.6072 8.42814 39.9512 18.0708 41.4654V27.3691H12.9502V21.5392H18.0708V17.0947C18.0708 12.0402 21.0832 9.24672 25.6897 9.24672C27.8971 9.24672 30.206 9.64123 30.206 9.64123V14.6057H27.6611C25.156 14.6057 24.375 16.1598 24.375 17.7549V21.5392H29.9688L29.0749 27.3691H24.375V41.4654C34.0177 39.9512 41.3937 31.6072 41.3937 21.5392Z" fill="#C6AA76"/>
<path fill-rule="evenodd" clip-rule="evenodd" d="M29.0749 27.3692L29.9689 21.5394H24.375V17.755C24.375 16.1599 25.1561 14.6058 27.6611 14.6058H30.206V9.64134C30.206 9.64134 27.8971 9.24683 25.6897 9.24683C21.0833 9.24683 18.0708 12.0403 18.0708 17.0948V21.5394H12.9502V27.3692H18.0708V41.4655C19.0982 41.6263 20.1506 41.7095 21.2235 41.7095C22.2953 41.7095 23.3477 41.6263 24.375 41.4655V27.3692H29.0749Z" fill="#FFFFFE"/>
</g>
</g>
<defs>
<clipPath id="clip0_406_2392">
<rect width="42.1875" height="42.1875" fill="white" transform="translate(0.4375 0.4375)"/>
</clipPath>
<clipPath id="clip1_406_2392">
<rect width="41.0473" height="42.1875" fill="white" transform="translate(0.4375 0.4375)"/>
</clipPath>
</defs>
</svg>
