<svg width="43" height="43" viewBox="0 0 43 43" fill="none" xmlns="http://www.w3.org/2000/svg">
<g clip-path="url(#clip0_406_2376)">
<g clip-path="url(#clip1_406_2376)">
<path fill-rule="evenodd" clip-rule="evenodd" d="M42.6563 21.6355C42.6563 33.0847 33.3739 42.3671 21.9258 42.3671C10.4754 42.3671 1.19299 33.0847 1.19299 21.6355C1.19299 10.1851 10.4754 0.903809 21.9258 0.903809C33.3739 0.903809 42.6563 10.1851 42.6563 21.6355Z" fill="#C6AA76"/>
<path fill-rule="evenodd" clip-rule="evenodd" d="M28.3605 13.792C27.573 13.792 26.9355 14.4307 26.9355 15.217C26.9355 16.0045 27.573 16.642 28.3605 16.642C29.148 16.642 29.7855 16.0045 29.7855 15.217C29.7855 14.4307 29.148 13.792 28.3605 13.792Z" fill="#FFFFFE"/>
<path fill-rule="evenodd" clip-rule="evenodd" d="M22.0254 25.4404C19.9102 25.4404 18.1899 23.7201 18.1899 21.6061C18.1899 19.492 19.9102 17.7717 22.0254 17.7717C24.1395 17.7717 25.8586 19.492 25.8586 21.6061C25.8586 23.7201 24.1395 25.4404 22.0254 25.4404ZM22.0254 15.6201C18.7243 15.6201 16.0383 18.3049 16.0383 21.6061C16.0383 24.9072 18.7243 27.592 22.0254 27.592C25.3254 27.592 28.0114 24.9072 28.0114 21.6061C28.0114 18.3049 25.3254 15.6201 22.0254 15.6201Z" fill="#FFFFFE"/>
<path fill-rule="evenodd" clip-rule="evenodd" d="M17.0719 11.739C14.3074 11.739 12.0586 13.9878 12.0586 16.7534V26.4589C12.0586 29.2233 14.3074 31.4733 17.0719 31.4733H26.7774C29.543 31.4733 31.793 29.2233 31.793 26.4589V16.7534C31.793 13.9878 29.543 11.739 26.7774 11.739H17.0719ZM26.7774 33.7597H17.0719C13.0465 33.7597 9.77112 30.4843 9.77112 26.4589V16.7534C9.77112 12.728 13.0465 9.45264 17.0719 9.45264H26.7774C30.8028 9.45264 34.0793 12.728 34.0793 16.7534V26.4589C34.0793 30.4843 30.8028 33.7597 26.7774 33.7597Z" fill="#FFFFFE"/>
</g>
</g>
<defs>
<clipPath id="clip0_406_2376">
<rect width="42.1875" height="42.1875" fill="white" transform="translate(0.5625 0.4375)"/>
</clipPath>
<clipPath id="clip1_406_2376">
<rect width="42.1875" height="42.1875" fill="white" transform="translate(0.5625 0.4375)"/>
</clipPath>
</defs>
</svg>
