<svg width="195" height="60" viewBox="0 0 195 60" fill="none" xmlns="http://www.w3.org/2000/svg">
<path fill-rule="evenodd" clip-rule="evenodd" d="M5.30039 43.5788L2.61499 38.7333H2.53201V43.5788H0.699219V35.8823H2.74672L5.43108 40.673H5.51406V35.8823H7.34789V43.5788H5.30039Z" fill="white"/>
<path fill-rule="evenodd" clip-rule="evenodd" d="M10.9687 40.7592H12.844L11.9561 37.9599H11.8784L10.9687 40.7592ZM8.03125 43.5792L10.9272 35.8568L12.954 35.8816L15.8136 43.5792H13.7516L13.3066 42.2106L10.5528 42.1848L10.0248 43.6051L8.03125 43.5792Z" fill="white"/>
<path fill-rule="evenodd" clip-rule="evenodd" d="M17.3157 43.5788V37.5467H14.9902V35.8823H21.5953V37.5467H19.2688V43.5788H17.3157Z" fill="white"/>
<path fill-rule="evenodd" clip-rule="evenodd" d="M22.5681 43.5776H24.5212V35.881H22.5681V43.5776Z" fill="white"/>
<path fill-rule="evenodd" clip-rule="evenodd" d="M29.5153 37.383C29.1968 37.383 28.9157 37.4492 28.6772 37.5775C28.4397 37.7078 28.2436 37.8868 28.0963 38.1082C27.949 38.3285 27.8401 38.582 27.7686 38.8613C27.7001 39.1375 27.6648 39.4302 27.6648 39.7302C27.6648 40.0292 27.7001 40.322 27.7686 40.6002C27.8401 40.8795 27.949 41.133 28.0963 41.3523C28.2436 41.5747 28.4397 41.7516 28.6772 41.882C28.9147 42.0113 29.1958 42.0775 29.5153 42.0775C29.8347 42.0775 30.1158 42.0113 30.3533 41.8809C30.5898 41.7516 30.7859 41.5747 30.9332 41.3523C31.0804 41.132 31.1914 40.8785 31.2609 40.6002C31.3315 40.3209 31.3657 40.0282 31.3657 39.7302C31.3657 39.4313 31.3315 39.1385 31.2609 38.8613C31.1914 38.582 31.0815 38.3295 30.9342 38.1082C30.7859 37.8857 30.5898 37.7078 30.3533 37.5775C30.1148 37.4492 29.8327 37.383 29.5153 37.383ZM29.5153 43.742C28.9261 43.742 28.3878 43.6395 27.9148 43.4358C27.4429 43.232 27.0373 42.9433 26.7116 42.5792C26.3839 42.214 26.1328 41.7837 25.9659 41.3016C25.7968 40.8175 25.7107 40.2889 25.7107 39.7302C25.7107 39.1706 25.7968 38.642 25.9659 38.1588C26.1339 37.6747 26.3849 37.2444 26.7116 36.8813C27.0363 36.5171 27.4408 36.2295 27.9148 36.0257C28.3878 35.822 28.9261 35.7185 29.5153 35.7185C30.1034 35.7185 30.6427 35.822 31.1157 36.0257C31.5887 36.2295 31.9943 36.5171 32.3189 36.8813C32.6456 37.2454 32.8966 37.6747 33.0657 38.1588C33.2337 38.642 33.3188 39.1716 33.3188 39.7302C33.3188 40.2889 33.2337 40.8175 33.0657 41.3016C32.8977 41.7837 32.6467 42.214 32.3189 42.5792C31.9932 42.9433 31.5877 43.232 31.1157 43.4358C30.6427 43.6395 30.1034 43.742 29.5153 43.742Z" fill="white"/>
<path fill-rule="evenodd" clip-rule="evenodd" d="M39.0793 43.5788L36.3939 38.7333H36.3109V43.5788H34.4771V35.8823H36.5245L39.2089 40.673H39.2929V35.8823H41.1268V43.5788H39.0793Z" fill="white"/>
<path fill-rule="evenodd" clip-rule="evenodd" d="M44.7467 40.7592H46.622L45.7352 37.9599H45.6564L44.7467 40.7592ZM41.8103 43.5792L44.7052 35.8568L46.733 35.8816L49.5916 43.5792H47.5296L47.0857 42.2106L44.3308 42.1848L43.8028 43.6051L41.8103 43.5792Z" fill="white"/>
<path fill-rule="evenodd" clip-rule="evenodd" d="M50.2754 43.5788V35.8823H52.2285V41.9133H55.865V43.5788H50.2754Z" fill="white"/>
<path fill-rule="evenodd" clip-rule="evenodd" d="M61.6523 41.9134H62.6512C63.4302 41.8989 63.9965 41.72 64.3325 41.3796C64.6707 41.0393 64.8408 40.4703 64.8408 39.6862C64.8408 38.9827 64.651 38.4437 64.2776 38.0858C63.9042 37.7289 63.3575 37.5468 62.6512 37.5468H61.6523V41.9134ZM59.6992 43.5789V35.8813H63.0121C64.1894 35.8813 65.124 36.2227 65.7899 36.8931C66.4568 37.5665 66.7939 38.5079 66.7939 39.6975C66.7939 40.9441 66.4589 41.9134 65.795 42.5786C65.1323 43.2427 64.1967 43.5789 63.0121 43.5789H59.6992Z" fill="white"/>
<path fill-rule="evenodd" clip-rule="evenodd" d="M67.9851 43.5788V35.8823H74.1193V37.4267H69.9382V38.8657H73.7594V40.3554H69.9382V41.9133H74.2282V43.5788H67.9851Z" fill="white"/>
<path fill-rule="evenodd" clip-rule="evenodd" d="M77.063 43.5788L74.6587 35.8823H76.7238L78.2226 41.663H78.2745L79.8407 35.8533L81.8685 35.8823L79.3709 43.5788H77.063Z" fill="white"/>
<path fill-rule="evenodd" clip-rule="evenodd" d="M82.5378 43.5788V35.8823H88.6731V37.4267H84.4909V38.8657H88.3121V40.3554H84.4909V41.9133H88.782V43.5788H82.5378Z" fill="white"/>
<path fill-rule="evenodd" clip-rule="evenodd" d="M90.0164 43.5788V35.8823H91.9695V41.9133H95.606V43.5788H90.0164Z" fill="white"/>
<path fill-rule="evenodd" clip-rule="evenodd" d="M100.196 37.383C99.8777 37.383 99.5976 37.4492 99.3591 37.5775C99.1215 37.7078 98.9255 37.8868 98.7772 38.1082C98.6299 38.3285 98.5199 38.582 98.4505 38.8613C98.381 39.1375 98.3446 39.4302 98.3446 39.7302C98.3446 40.0292 98.381 40.322 98.4505 40.6002C98.521 40.8795 98.6299 41.133 98.7772 41.3523C98.9255 41.5747 99.1215 41.7516 99.3591 41.882C99.5956 42.0113 99.8766 42.0775 100.196 42.0775C100.517 42.0775 100.798 42.0113 101.035 41.8809C101.272 41.7516 101.468 41.5747 101.615 41.3523C101.762 41.132 101.872 40.8785 101.943 40.6002C102.012 40.3209 102.048 40.0282 102.048 39.7302C102.048 39.4313 102.012 39.1385 101.943 38.8613C101.872 38.582 101.763 38.3295 101.616 38.1082C101.468 37.8857 101.272 37.7078 101.034 37.5775C100.797 37.4492 100.515 37.383 100.196 37.383ZM100.196 43.742C99.608 43.742 99.0697 43.6395 98.5967 43.4358C98.1248 43.232 97.7182 42.9433 97.3935 42.5792C97.0657 42.214 96.8137 41.7837 96.6467 41.3016C96.4776 40.8175 96.3926 40.2889 96.3926 39.7302C96.3926 39.1706 96.4776 38.642 96.6467 38.1588C96.8147 37.6747 97.0668 37.2444 97.3935 36.8813C97.7161 36.5171 98.1227 36.2295 98.5967 36.0257C99.0697 35.822 99.608 35.7185 100.196 35.7185C100.784 35.7185 101.325 35.822 101.798 36.0257C102.27 36.2295 102.676 36.5171 103.001 36.8813C103.326 37.2454 103.579 37.6747 103.747 38.1588C103.916 38.642 104.001 39.1716 104.001 39.7302C104.001 40.2889 103.916 40.8175 103.747 41.3016C103.579 41.7837 103.328 42.214 103.001 42.5792C102.675 42.9433 102.269 43.232 101.798 43.4358C101.325 43.6395 100.784 43.742 100.196 43.742Z" fill="white"/>
<path fill-rule="evenodd" clip-rule="evenodd" d="M107.134 39.497H108.537C108.88 39.497 109.155 39.4163 109.358 39.2601C109.564 39.0997 109.668 38.8411 109.668 38.4883C109.668 38.1304 109.563 37.8604 109.355 37.6866C109.146 37.5139 108.872 37.427 108.537 37.427H107.134V39.497ZM105.181 43.579V35.8814H108.843C109.219 35.8814 109.575 35.927 109.908 36.0159C110.24 36.1059 110.537 36.2497 110.789 36.4452C111.043 36.6408 111.246 36.8994 111.395 37.2149C111.545 37.5325 111.621 37.9132 111.621 38.3476C111.621 39.2601 111.378 39.9366 110.898 40.3545C110.417 40.7745 109.725 40.9876 108.843 40.9876H107.134V43.579H105.181Z" fill="white"/>
<path fill-rule="evenodd" clip-rule="evenodd" d="M116.201 43.5788L114.594 37.6771H114.504V43.5788H112.67V35.8823H115.622L116.935 41.065H116.988L118.367 35.8533L121.283 35.8823V43.5788H119.45V37.6771H119.382L119.352 37.705L117.715 43.6067L116.201 43.5788Z" fill="white"/>
<path fill-rule="evenodd" clip-rule="evenodd" d="M122.769 43.5788V35.8823H128.903V37.4267H124.722V38.8657H128.544V40.3554H124.722V41.9133H129.012V43.5788H122.769Z" fill="white"/>
<path fill-rule="evenodd" clip-rule="evenodd" d="M134.827 43.5788L132.142 38.7333H132.059V43.5788H130.226V35.8823H132.272L134.957 40.673H135.04V35.8823H136.874V43.5788H134.827Z" fill="white"/>
<path fill-rule="evenodd" clip-rule="evenodd" d="M140.16 43.5788V37.5467H137.835V35.8823H144.44V37.5467H142.113V43.5788H140.16Z" fill="white"/>
<path fill-rule="evenodd" clip-rule="evenodd" d="M114.494 58.1539V50.4574H120.16V52.0029H116.447V53.6695H119.657V55.1602H116.447V58.1539H114.494Z" fill="white"/>
<path fill-rule="evenodd" clip-rule="evenodd" d="M124.467 58.3176C123.319 58.3176 122.462 58.0414 121.924 57.4962C121.383 56.9511 121.11 56.1038 121.11 54.9814V50.4576H123.062V55.0993C123.062 55.6228 123.173 56.0159 123.389 56.2693C123.607 56.5228 123.97 56.6521 124.467 56.6521C124.964 56.6521 125.327 56.5228 125.544 56.2693C125.76 56.0159 125.87 55.6228 125.87 55.0993V50.4576H127.823V54.9814C127.823 56.1038 127.55 56.95 127.01 57.4962C126.47 58.0414 125.614 58.3176 124.467 58.3176Z" fill="white"/>
<path fill-rule="evenodd" clip-rule="evenodd" d="M133.833 58.1539L131.149 53.3095H131.065V58.1539H129.232V50.4574H131.279L133.964 55.2481H134.046V50.4574H135.881V58.1539H133.833Z" fill="white"/>
<path fill-rule="evenodd" clip-rule="evenodd" d="M139.297 56.4892H140.297C141.075 56.4747 141.641 56.2957 141.978 55.9543C142.315 55.615 142.486 55.045 142.486 54.2619C142.486 53.5585 142.297 53.0195 141.923 52.6605C141.549 52.3026 141.003 52.1226 140.297 52.1226H139.297V56.4892ZM137.344 58.1536V50.4571H140.657C141.834 50.4571 142.769 50.7974 143.435 51.4688C144.102 52.1412 144.439 53.0836 144.439 54.2733C144.439 55.5198 144.104 56.4892 143.44 57.1543C142.778 57.8174 141.841 58.1536 140.657 58.1536H137.344Z" fill="white"/>
<path fill-rule="evenodd" clip-rule="evenodd" d="M142.483 27.2348H144.44V18.7872H142.483V27.2348Z" fill="white"/>
<path fill-rule="evenodd" clip-rule="evenodd" d="M75.1961 18.4295L74.0977 19.525L75.1961 20.6185L76.0715 19.7464L76.9449 20.6185L78.0423 19.525L76.9449 18.4295L76.0715 19.3016L75.1961 18.4295Z" fill="white"/>
<path fill-rule="evenodd" clip-rule="evenodd" d="M91.1032 30.2932L92.2016 29.1976L91.1032 28.1042L90.2288 28.9763L89.3554 28.1042L88.2581 29.1976L89.3554 30.2932L90.2288 29.4211L91.1032 30.2932Z" fill="white"/>
<path fill-rule="evenodd" clip-rule="evenodd" d="M130.6 19.5387L131.475 20.4107L132.572 19.3152L131.475 18.2207L130.6 19.0928L129.726 18.2207L128.628 19.3152L129.726 20.4107L130.6 19.5387Z" fill="white"/>
<path fill-rule="evenodd" clip-rule="evenodd" d="M119.011 20.4106L120.11 19.315L119.011 18.2206L117.913 19.315L119.011 20.4106Z" fill="white"/>
<path fill-rule="evenodd" clip-rule="evenodd" d="M104.513 25.3965H106.033V23.1383H104.513V25.3965ZM138.456 18.7872V20.6721H139.183V25.3965H138.456H137.648H133.602H133.245H133.107H132.799H131.635V21.3972H129.711V25.3965H128.434H128.094H127.987H127.632H121.137H120.635H119.942V21.3H117.984V25.3965H117.127H116.68H116.624H116.324H109.041H108.572H107.797V21.3H102.817V25.3965H101.975H95.1931H95.1537H94.8363H92.7525H92.2505H91.3294V21.3H89.34V25.3965H88.2416H87.7063H81.3637H79.9281H79.8534H79.5724H79.1263H78.5289H76.8299H76.276H75.3104V23.1383H76.8299V24.9145H78.5289V21.3H73.5481V27.2348H79.1263H79.5724H79.8534H79.9281H87.7063H88.2416H92.2505H92.7525H94.8363H95.1537H95.1931H101.975H108.572H109.041H116.324H116.624H116.68H117.127H120.635H121.137H127.632H127.987H128.094H128.434H132.799H133.107H133.245H133.602H137.648H138.456H141.157V18.7872H139.183H138.456Z" fill="white"/>
<path fill-rule="evenodd" clip-rule="evenodd" d="M39.7186 18.7876H37.7956V24.9138H39.7186V24.0738H47.8495V25.3958H41.5888H39.7186H37.7956H37.2116H36.5001H31.9155H31.5587H29.4739H28.9718H28.2769V21.3003H26.3207V25.3958H25.4639H24.9609H22.8771H22.5202H16.969H16.079H15.383V21.3003H10.339V25.3958H2.59083V23.1841H3.31793V21.3003H2.59083H0.699951V27.2351H12.2475V23.2679H13.4922V27.2351H16.079H16.969H22.5202H22.8771H24.9609H25.4639H28.9718H29.4739H31.5587H31.9155H36.5001H37.2116H49.7093V22.1382H39.7186V18.7876Z" fill="white"/>
<path fill-rule="evenodd" clip-rule="evenodd" d="M66.8062 27.2348H68.7634V18.7872H66.8062V27.2348Z" fill="white"/>
<path fill-rule="evenodd" clip-rule="evenodd" d="M7.2393 28.743L6.36491 27.8709L5.26855 28.9654L6.36491 30.0599L7.2393 29.1889L8.11369 30.0599L9.21004 28.9654L8.11369 27.8709L7.2393 28.743Z" fill="white"/>
<path fill-rule="evenodd" clip-rule="evenodd" d="M28.4458 19.316L27.3473 18.2204L26.251 19.316L27.3473 20.4104L28.4458 19.316Z" fill="white"/>
<path fill-rule="evenodd" clip-rule="evenodd" d="M52.8947 25.396V23.235H54.4153L54.4298 25.396H52.8947ZM62.7795 18.7878V20.6715H63.5066V25.396H62.7795H61.9715H61.6904H59.0662H57.6805H56.7926H56.4047V21.3005H51.0349V27.2343H54.4153V28.6215H51.0349V30.4598H56.4047V27.2343H56.7926H57.6805H59.0662H61.6904H61.9715H62.7795H65.4794V18.7878H63.5066H62.7795Z" fill="white"/>
<path fill-rule="evenodd" clip-rule="evenodd" d="M101.158 6.65968H96.1786V10.2731H97.8112V8.49796H99.3308V10.7562H98.2541H97.8112H96.1786L87.4389 10.7718V8.54451H88.1276V6.65968H87.4389H87.3995H85.4495V12.61L101.158 12.5945V6.65968Z" fill="white"/>
<path fill-rule="evenodd" clip-rule="evenodd" d="M104.312 10.7557V8.59468H105.832L105.847 10.7557H104.312ZM107.821 6.6602H102.452V12.594H105.832V13.9812H102.452V15.8195H107.821V6.6602Z" fill="white"/>
<path fill-rule="evenodd" clip-rule="evenodd" d="M134.555 7.49822V6.66029H132.695V10.2737H134.555V9.43374H142.579V10.7558H137.098H134.555H132.695H132.011H131.708H131.337H129.121H128.766H125.609H125.109H124.413V6.66029H122.457V10.7558H121.987H116.816H116.365V6.74098H108.951V8.57926H114.521V10.7558H108.951V12.5941H116.816H121.987H125.109H125.609H128.766H129.121H131.337H131.708H144.438V7.49822H134.555Z" fill="white"/>
<path fill-rule="evenodd" clip-rule="evenodd" d="M124.582 4.67513L123.484 3.58064L122.386 4.67513L123.484 5.77064L124.582 4.67513Z" fill="white"/>
<path fill-rule="evenodd" clip-rule="evenodd" d="M98.8015 4.89786L99.6759 5.76993L100.772 4.67545L99.6759 3.58096L98.8015 4.452L97.9272 3.58096L96.8308 4.67545L97.9272 5.76993L98.8015 4.89786Z" fill="white"/>
<path fill-rule="evenodd" clip-rule="evenodd" d="M188.351 14.4143L182.801 19.9498L180.538 22.2081L179.925 22.8184L174.212 28.5153L169.768 24.0815L172.032 21.8243L174.212 23.9987L177.439 20.7794L178.273 19.9498L180.538 17.6905L183.823 14.4143L181.943 12.5398L174.212 4.82978L164.602 14.4143L166.011 15.817L163.746 18.0763L160.075 14.4143L174.212 0.313232L188.351 14.4143Z" fill="white"/>
<path fill-rule="evenodd" clip-rule="evenodd" d="M167.89 17.692L168.558 17.0258L168.556 17.0248L174.213 11.3827L178.659 15.8175L176.393 18.0748L174.213 15.9003L171.209 18.8962L170.153 19.9493L167.889 22.2075L164.603 25.4848L166.485 27.3582L174.213 35.0682L183.822 25.4848L182.416 24.082L184.681 21.8238L188.351 25.4848L174.213 39.5848L160.075 25.4848L163.495 22.0731L163.496 22.0741L165.626 19.9503L167.89 17.692Z" fill="white"/>
<path fill-rule="evenodd" clip-rule="evenodd" d="M183.212 55.0789L178.359 50.2385L176.095 52.4978L180.898 57.2875L183.25 59.6337L187.193 55.7006L184.929 53.4423L183.212 55.0789Z" fill="white"/>
<path fill-rule="evenodd" clip-rule="evenodd" d="M172.329 44.2319L158.943 30.8819H154.414L170.063 46.4902L172.329 44.2319Z" fill="white"/>
<path fill-rule="evenodd" clip-rule="evenodd" d="M176.47 48.3542L194.012 30.858H189.482L175.634 44.6694L171.941 48.3635L165.207 55.0804L163.482 53.4345L161.218 55.6938L165.169 59.6342L167.52 57.289H167.521L174.209 50.6166L176.474 48.3583L176.47 48.3542Z" fill="white"/>
</svg>
