<svg width="195" height="60" viewBox="0 0 195 60" fill="none" xmlns="http://www.w3.org/2000/svg">
<path fill-rule="evenodd" clip-rule="evenodd" d="M5.30039 43.2654L2.61499 38.4199H2.53201V43.2654H0.699219V35.5688H2.74672L5.43108 40.3595H5.51406V35.5688H7.34789V43.2654H5.30039Z" fill="#3C3935"/>
<path fill-rule="evenodd" clip-rule="evenodd" d="M10.9688 40.4459H12.8441L11.9562 37.6466H11.8784L10.9688 40.4459ZM8.03131 43.2659L10.9273 35.5435L12.954 35.5683L15.8137 43.2659H13.7517L13.3067 41.8973L10.5528 41.8714L10.0249 43.2917L8.03131 43.2659Z" fill="#3C3935"/>
<path fill-rule="evenodd" clip-rule="evenodd" d="M17.3157 43.2654V37.2333H14.9902V35.5688H21.5953V37.2333H19.2688V43.2654H17.3157Z" fill="#3C3935"/>
<path fill-rule="evenodd" clip-rule="evenodd" d="M22.5681 43.2644H24.5212V35.5679H22.5681V43.2644Z" fill="#3C3935"/>
<path fill-rule="evenodd" clip-rule="evenodd" d="M29.5154 37.0698C29.1969 37.0698 28.9158 37.136 28.6773 37.2642C28.4397 37.3946 28.2437 37.5735 28.0964 37.7949C27.9491 38.0153 27.8402 38.2687 27.7687 38.548C27.7002 38.8242 27.6649 39.117 27.6649 39.417C27.6649 39.716 27.7002 40.0087 27.7687 40.287C27.8402 40.5663 27.9491 40.8198 28.0964 41.0391C28.2437 41.2615 28.4397 41.4384 28.6773 41.5687C28.9148 41.698 29.1959 41.7642 29.5154 41.7642C29.8348 41.7642 30.1159 41.698 30.3534 41.5677C30.5899 41.4384 30.786 41.2615 30.9333 41.0391C31.0805 40.8187 31.1915 40.5653 31.261 40.287C31.3316 40.0077 31.3658 39.7149 31.3658 39.417C31.3658 39.118 31.3316 38.8253 31.261 38.548C31.1915 38.2687 31.0816 38.0163 30.9343 37.7949C30.786 37.5725 30.5899 37.3946 30.3534 37.2642C30.1149 37.136 29.8327 37.0698 29.5154 37.0698ZM29.5154 43.4287C28.9262 43.4287 28.3879 43.3263 27.9149 43.1225C27.443 42.9187 27.0374 42.6301 26.7117 42.266C26.3839 41.9008 26.1329 41.4704 25.9659 40.9884C25.7969 40.5042 25.7108 39.9756 25.7108 39.417C25.7108 38.8573 25.7969 38.3287 25.9659 37.8456C26.134 37.3615 26.385 36.9311 26.7117 36.568C27.0364 36.2039 27.4409 35.9163 27.9149 35.7125C28.3879 35.5087 28.9262 35.4053 29.5154 35.4053C30.1035 35.4053 30.6428 35.5087 31.1158 35.7125C31.5888 35.9163 31.9943 36.2039 32.319 36.568C32.6457 36.9322 32.8967 37.3615 33.0658 37.8456C33.2338 38.3287 33.3189 38.8584 33.3189 39.417C33.3189 39.9756 33.2338 40.5042 33.0658 40.9884C32.8978 41.4704 32.6468 41.9008 32.319 42.266C31.9933 42.6301 31.5877 42.9187 31.1158 43.1225C30.6428 43.3263 30.1035 43.4287 29.5154 43.4287Z" fill="#3C3935"/>
<path fill-rule="evenodd" clip-rule="evenodd" d="M39.0794 43.2654L36.394 38.4199H36.311V43.2654H34.4772V35.5688H36.5247L39.209 40.3595H39.293V35.5688H41.1269V43.2654H39.0794Z" fill="#3C3935"/>
<path fill-rule="evenodd" clip-rule="evenodd" d="M44.7467 40.4459H46.622L45.7352 37.6466H45.6564L44.7467 40.4459ZM41.8103 43.2659L44.7052 35.5435L46.733 35.5683L49.5916 43.2659H47.5296L47.0857 41.8973L44.3308 41.8714L43.8028 43.2917L41.8103 43.2659Z" fill="#3C3935"/>
<path fill-rule="evenodd" clip-rule="evenodd" d="M50.2753 43.2654V35.5688H52.2284V41.5999H55.8649V43.2654H50.2753Z" fill="#3C3935"/>
<path fill-rule="evenodd" clip-rule="evenodd" d="M61.6524 41.5999H62.6512C63.4302 41.5855 63.9965 41.4065 64.3326 41.0661C64.6707 40.7258 64.8408 40.1568 64.8408 39.3727C64.8408 38.6693 64.651 38.1303 64.2776 37.7724C63.9042 37.4155 63.3576 37.2334 62.6512 37.2334H61.6524V41.5999ZM59.6993 43.2655V35.5679H63.0122C64.1895 35.5679 65.124 35.9093 65.7899 36.5796C66.4569 37.253 66.794 38.1944 66.794 39.3841C66.794 40.6306 66.4589 41.5999 65.7951 42.2651C65.1323 42.9292 64.1967 43.2655 63.0122 43.2655H59.6993Z" fill="#3C3935"/>
<path fill-rule="evenodd" clip-rule="evenodd" d="M67.9852 43.2654V35.5688H74.1194V37.1133H69.9383V38.5523H73.7595V40.042H69.9383V41.5999H74.2283V43.2654H67.9852Z" fill="#3C3935"/>
<path fill-rule="evenodd" clip-rule="evenodd" d="M77.0631 43.2656L74.6588 35.569H76.7239L78.2227 41.3497H78.2746L79.8408 35.54L81.8686 35.569L79.3709 43.2656H77.0631Z" fill="#3C3935"/>
<path fill-rule="evenodd" clip-rule="evenodd" d="M82.538 43.2654V35.5688H88.6732V37.1133H84.4911V38.5523H88.3122V40.042H84.4911V41.5999H88.7821V43.2654H82.538Z" fill="#3C3935"/>
<path fill-rule="evenodd" clip-rule="evenodd" d="M90.0163 43.2654V35.5688H91.9694V41.5999H95.6059V43.2654H90.0163Z" fill="#3C3935"/>
<path fill-rule="evenodd" clip-rule="evenodd" d="M100.196 37.0698C99.8778 37.0698 99.5978 37.136 99.3592 37.2642C99.1217 37.3946 98.9256 37.5735 98.7773 37.7949C98.63 38.0153 98.5201 38.2687 98.4506 38.548C98.3811 38.8242 98.3448 39.117 98.3448 39.417C98.3448 39.716 98.3811 40.0087 98.4506 40.287C98.5211 40.5663 98.63 40.8198 98.7773 41.0391C98.9256 41.2615 99.1217 41.4384 99.3592 41.5687C99.5957 41.698 99.8768 41.7642 100.196 41.7642C100.517 41.7642 100.798 41.698 101.035 41.5677C101.272 41.4384 101.468 41.2615 101.615 41.0391C101.762 40.8187 101.872 40.5653 101.943 40.287C102.012 40.0077 102.048 39.7149 102.048 39.417C102.048 39.118 102.012 38.8253 101.943 38.548C101.872 38.2687 101.763 38.0163 101.616 37.7949C101.468 37.5725 101.272 37.3946 101.034 37.2642C100.797 37.136 100.515 37.0698 100.196 37.0698ZM100.196 43.4287C99.6081 43.4287 99.0698 43.3263 98.5968 43.1225C98.1249 42.9187 97.7183 42.6301 97.3936 42.266C97.0659 41.9008 96.8138 41.4704 96.6468 40.9884C96.4778 40.5042 96.3927 39.9756 96.3927 39.417C96.3927 38.8573 96.4778 38.3287 96.6468 37.8456C96.8149 37.3615 97.0669 36.9311 97.3936 36.568C97.7162 36.2039 98.1228 35.9163 98.5968 35.7125C99.0698 35.5087 99.6081 35.4053 100.196 35.4053C100.784 35.4053 101.325 35.5087 101.798 35.7125C102.27 35.9163 102.676 36.2039 103.001 36.568C103.327 36.9322 103.579 37.3615 103.747 37.8456C103.916 38.3287 104.001 38.8584 104.001 39.417C104.001 39.9756 103.916 40.5042 103.747 40.9884C103.579 41.4704 103.328 41.9008 103.001 42.266C102.675 42.6301 102.269 42.9187 101.798 43.1225C101.325 43.3263 100.784 43.4287 100.196 43.4287Z" fill="#3C3935"/>
<path fill-rule="evenodd" clip-rule="evenodd" d="M107.134 39.1839H108.537C108.88 39.1839 109.155 39.1032 109.358 38.947C109.564 38.7866 109.668 38.528 109.668 38.1753C109.668 37.8173 109.563 37.5473 109.355 37.3735C109.146 37.2008 108.872 37.1139 108.537 37.1139H107.134V39.1839ZM105.181 43.2659V35.5684H108.843C109.219 35.5684 109.575 35.6139 109.908 35.7028C110.24 35.7928 110.537 35.9366 110.789 36.1322C111.043 36.3277 111.246 36.5863 111.395 36.9018C111.545 37.2194 111.621 37.6001 111.621 38.0346C111.621 38.947 111.378 39.6235 110.898 40.0415C110.417 40.4615 109.725 40.6746 108.843 40.6746H107.134V43.2659H105.181Z" fill="#3C3935"/>
<path fill-rule="evenodd" clip-rule="evenodd" d="M116.201 43.2656L114.594 37.3638H114.504V43.2656H112.67V35.569H115.622L116.935 40.7518H116.988L118.367 35.54L121.283 35.569V43.2656H119.45V37.3638H119.382L119.352 37.3918L117.715 43.2935L116.201 43.2656Z" fill="#3C3935"/>
<path fill-rule="evenodd" clip-rule="evenodd" d="M122.769 43.2654V35.5688H128.903V37.1133H124.722V38.5523H128.544V40.042H124.722V41.5999H129.012V43.2654H122.769Z" fill="#3C3935"/>
<path fill-rule="evenodd" clip-rule="evenodd" d="M134.827 43.2654L132.142 38.4199H132.059V43.2654H130.226V35.5688H132.272L134.957 40.3595H135.04V35.5688H136.875V43.2654H134.827Z" fill="#3C3935"/>
<path fill-rule="evenodd" clip-rule="evenodd" d="M140.16 43.2654V37.2333H137.835V35.5688H144.44V37.2333H142.113V43.2654H140.16Z" fill="#3C3935"/>
<path fill-rule="evenodd" clip-rule="evenodd" d="M114.494 57.8406V50.144H120.16V51.6896H116.447V53.3561H119.657V54.8468H116.447V57.8406H114.494Z" fill="#3C3935"/>
<path fill-rule="evenodd" clip-rule="evenodd" d="M124.467 58.0045C123.319 58.0045 122.462 57.7283 121.924 57.1832C121.383 56.638 121.11 55.7907 121.11 54.6683V50.1445H123.062V54.7863C123.062 55.3097 123.173 55.7028 123.389 55.9563C123.607 56.2097 123.97 56.339 124.467 56.339C124.964 56.339 125.327 56.2097 125.544 55.9563C125.76 55.7028 125.87 55.3097 125.87 54.7863V50.1445H127.823V54.6683C127.823 55.7907 127.55 56.6369 127.01 57.1832C126.47 57.7283 125.614 58.0045 124.467 58.0045Z" fill="#3C3935"/>
<path fill-rule="evenodd" clip-rule="evenodd" d="M133.833 57.8406L131.149 52.9961H131.065V57.8406H129.232V50.144H131.279L133.964 54.9347H134.046V50.144H135.881V57.8406H133.833Z" fill="#3C3935"/>
<path fill-rule="evenodd" clip-rule="evenodd" d="M139.297 56.1761H140.297C141.075 56.1616 141.641 55.9827 141.978 55.6413C142.315 55.302 142.486 54.732 142.486 53.9489C142.486 53.2454 142.297 52.7065 141.923 52.3475C141.549 51.9896 141.003 51.8096 140.297 51.8096H139.297V56.1761ZM137.344 57.8406V50.144H140.657C141.834 50.144 142.769 50.4844 143.435 51.1558C144.102 51.8282 144.439 52.7706 144.439 53.9602C144.439 55.2068 144.104 56.1761 143.44 56.8413C142.778 57.5044 141.841 57.8406 140.657 57.8406H137.344Z" fill="#3C3935"/>
<path fill-rule="evenodd" clip-rule="evenodd" d="M142.483 26.9217H144.44V18.4741H142.483V26.9217Z" fill="#3C3935"/>
<path fill-rule="evenodd" clip-rule="evenodd" d="M75.1961 18.1162L74.0977 19.2117L75.1961 20.3052L76.0716 19.4331L76.9449 20.3052L78.0423 19.2117L76.9449 18.1162L76.0716 18.9883L75.1961 18.1162Z" fill="#3C3935"/>
<path fill-rule="evenodd" clip-rule="evenodd" d="M91.1032 29.98L92.2016 28.8845L91.1032 27.791L90.2288 28.6631L89.3554 27.791L88.2581 28.8845L89.3554 29.98L90.2288 29.1079L91.1032 29.98Z" fill="#3C3935"/>
<path fill-rule="evenodd" clip-rule="evenodd" d="M130.6 19.2256L131.475 20.0977L132.572 19.0022L131.475 17.9077L130.6 18.7798L129.726 17.9077L128.628 19.0022L129.726 20.0977L130.6 19.2256Z" fill="#3C3935"/>
<path fill-rule="evenodd" clip-rule="evenodd" d="M119.011 20.0972L120.11 19.0017L119.011 17.9072L117.913 19.0017L119.011 20.0972Z" fill="#3C3935"/>
<path fill-rule="evenodd" clip-rule="evenodd" d="M104.513 25.0834H106.033V22.8252H104.513V25.0834ZM138.456 18.4741V20.359H139.183V25.0834H138.456H137.648H133.602H133.245H133.107H132.799H131.635V21.0841H129.711V25.0834H128.434H128.094H127.987H127.632H121.137H120.635H119.942V20.9869H117.984V25.0834H117.127H116.68H116.624H116.324H109.041H108.572H107.797V20.9869H102.817V25.0834H101.975H95.1931H95.1537H94.8363H92.7525H92.2505H91.3294V20.9869H89.34V25.0834H88.2416H87.7063H81.3637H79.9281H79.8534H79.5724H79.1263H78.5289H76.8299H76.276H75.3104V22.8252H76.8299V24.6014H78.5289V20.9869H73.5481V26.9217H79.1263H79.5724H79.8534H79.9281H87.7063H88.2416H92.2505H92.7525H94.8363H95.1537H95.1931H101.975H108.572H109.041H116.324H116.624H116.68H117.127H120.635H121.137H127.632H127.987H128.094H128.434H132.799H133.107H133.245H133.602H137.648H138.456H141.157V18.4741H139.183H138.456Z" fill="#3C3935"/>
<path fill-rule="evenodd" clip-rule="evenodd" d="M39.7185 18.4741H37.7955V24.6003H39.7185V23.7603H47.8494V25.0824H41.5886H39.7185H37.7955H37.2115H36.5H31.9154H31.5586H29.4737H28.9717H28.2768V20.9869H26.3205V25.0824H25.4638H24.9607H22.8769H22.5201H16.9688H16.0789H15.3829V20.9869H10.3388V25.0824H2.59071V22.8707H3.31781V20.9869H2.59071H0.699829V26.9217H12.2474V22.9545H13.492V26.9217H16.0789H16.9688H22.5201H22.8769H24.9607H25.4638H28.9717H29.4737H31.5586H31.9154H36.5H37.2115H49.7091V21.8248H39.7185V18.4741Z" fill="#3C3935"/>
<path fill-rule="evenodd" clip-rule="evenodd" d="M66.8061 26.9217H68.7634V18.4741H66.8061V26.9217Z" fill="#3C3935"/>
<path fill-rule="evenodd" clip-rule="evenodd" d="M7.23918 28.4297L6.36479 27.5576L5.26843 28.6521L6.36479 29.7466L7.23918 28.8755L8.11357 29.7466L9.20992 28.6521L8.11357 27.5576L7.23918 28.4297Z" fill="#3C3935"/>
<path fill-rule="evenodd" clip-rule="evenodd" d="M28.4458 19.0027L27.3473 17.9072L26.251 19.0027L27.3473 20.0972L28.4458 19.0027Z" fill="#3C3935"/>
<path fill-rule="evenodd" clip-rule="evenodd" d="M52.8947 25.0829V22.9219H54.4153L54.4298 25.0829H52.8947ZM62.7795 18.4746V20.3584H63.5066V25.0829H62.7795H61.9715H61.6904H59.0662H57.6805H56.7926H56.4047V20.9874H51.0349V26.9212H54.4153V28.3084H51.0349V30.1467H56.4047V26.9212H56.7926H57.6805H59.0662H61.6904H61.9715H62.7795H65.4795V18.4746H63.5066H62.7795Z" fill="#3C3935"/>
<path fill-rule="evenodd" clip-rule="evenodd" d="M101.158 6.34668H96.1787V9.96013H97.8113V8.18496H99.3308V10.4432H98.2542H97.8113H96.1787L87.4389 10.4587V8.23151H88.1277V6.34668H87.4389H87.3995H85.4495V12.297L101.158 12.2815V6.34668Z" fill="#3C3935"/>
<path fill-rule="evenodd" clip-rule="evenodd" d="M104.312 10.4427V8.28165H105.832L105.847 10.4427H104.312ZM107.821 6.34717H102.452V12.281H105.832V13.6682H102.452V15.5065H107.821V6.34717Z" fill="#3C3935"/>
<path fill-rule="evenodd" clip-rule="evenodd" d="M134.555 7.1851V6.34717H132.695V9.96062H134.555V9.12062H142.579V10.4427H137.098H134.555H132.695H132.011H131.708H131.337H129.122H128.766H125.61H125.11H124.414V6.34717H122.457V10.4427H121.988H116.816H116.365V6.42786H108.952V8.26613H114.521V10.4427H108.952V12.281H116.816H121.988H125.11H125.61H128.766H129.122H131.337H131.708H144.438V7.1851H134.555Z" fill="#3C3935"/>
<path fill-rule="evenodd" clip-rule="evenodd" d="M124.582 4.36206L123.484 3.26758L122.386 4.36206L123.484 5.45758L124.582 4.36206Z" fill="#3C3935"/>
<path fill-rule="evenodd" clip-rule="evenodd" d="M98.8014 4.58447L99.6758 5.45654L100.772 4.36206L99.6758 3.26758L98.8014 4.13861L97.927 3.26758L96.8307 4.36206L97.927 5.45654L98.8014 4.58447Z" fill="#3C3935"/>
<path fill-rule="evenodd" clip-rule="evenodd" d="M188.351 14.101L182.801 19.6366L180.537 21.8948L179.924 22.5052L174.212 28.2021L169.768 23.7683L172.032 21.511L174.212 23.6855L177.439 20.4662L178.273 19.6366L180.537 17.3772L183.823 14.101L181.943 12.2266L174.212 4.51655L164.602 14.101L166.011 15.5038L163.746 17.7631L160.075 14.101L174.212 0L188.351 14.101Z" fill="#3C3935"/>
<path fill-rule="evenodd" clip-rule="evenodd" d="M167.89 17.3786L168.558 16.7124L168.556 16.7114L174.213 11.0693L178.659 15.5042L176.393 17.7614L174.213 15.5869L171.209 18.5828L170.153 19.6359L167.889 21.8942L164.603 25.1714L166.485 27.0449L174.213 34.7549L183.822 25.1714L182.416 23.7686L184.681 21.5104L188.351 25.1714L174.213 39.2714L160.075 25.1714L163.495 21.7597L163.496 21.7607L165.626 19.6369L167.89 17.3786Z" fill="#3C3935"/>
<path fill-rule="evenodd" clip-rule="evenodd" d="M183.212 54.7656L178.359 49.9253L176.095 52.1846L180.898 56.9743L183.25 59.3205L187.193 55.3874L184.929 53.1291L183.212 54.7656Z" fill="#3C3935"/>
<path fill-rule="evenodd" clip-rule="evenodd" d="M172.329 43.9188L158.943 30.5688H154.413L170.063 46.1771L172.329 43.9188Z" fill="#3C3935"/>
<path fill-rule="evenodd" clip-rule="evenodd" d="M176.47 48.0411L194.012 30.5449H189.482L175.634 44.3563L171.941 48.0504L165.207 54.7673L163.482 53.1215L161.218 55.3808L165.169 59.3211L167.52 56.976H167.521L174.209 50.3035L176.474 48.0453L176.47 48.0411Z" fill="#3C3935"/>
</svg>
