<svg width="165" height="51" viewBox="0 0 165 51" fill="none" xmlns="http://www.w3.org/2000/svg">
<g clip-path="url(#clip0_405_1119)">
<path fill-rule="evenodd" clip-rule="evenodd" d="M5.17907 37.0198L2.91927 32.9314H2.84945V37.0198H1.30713V30.5259H3.03012L5.28905 34.568H5.35887V30.5259H6.90206V37.0198H5.17907Z" fill="white"/>
<path fill-rule="evenodd" clip-rule="evenodd" d="M9.94919 34.6408H11.5273L10.7801 32.2789H10.7147L9.94919 34.6408ZM7.47729 37.0202L9.91428 30.5044L11.6198 30.5253L14.0262 37.0202H12.291L11.9166 35.8654L9.59918 35.8436L9.1549 37.042L7.47729 37.0202Z" fill="white"/>
<path fill-rule="evenodd" clip-rule="evenodd" d="M15.2902 37.0198V31.9303H13.3333V30.5259H18.8915V31.9303H16.9337V37.0198H15.2902Z" fill="white"/>
<path fill-rule="evenodd" clip-rule="evenodd" d="M19.71 37.0186H21.3535V30.5247H19.71V37.0186Z" fill="white"/>
<path fill-rule="evenodd" clip-rule="evenodd" d="M25.5563 31.7921C25.2884 31.7921 25.0518 31.848 24.8511 31.9562C24.6512 32.0662 24.4862 32.2172 24.3623 32.404C24.2383 32.5899 24.1467 32.8037 24.0865 33.0394C24.0289 33.2724 23.9992 33.5195 23.9992 33.7726C23.9992 34.0248 24.0289 34.2719 24.0865 34.5066C24.1467 34.7423 24.2383 34.9562 24.3623 35.1412C24.4862 35.3289 24.6512 35.4781 24.8511 35.5881C25.051 35.6972 25.2875 35.7531 25.5563 35.7531C25.8252 35.7531 26.0617 35.6972 26.2616 35.5872C26.4606 35.4781 26.6256 35.3289 26.7495 35.1412C26.8735 34.9553 26.9668 34.7414 27.0253 34.5066C27.0847 34.271 27.1135 34.024 27.1135 33.7726C27.1135 33.5203 27.0847 33.2733 27.0253 33.0394C26.9668 32.8037 26.8743 32.5908 26.7504 32.404C26.6256 32.2163 26.4606 32.0662 26.2616 31.9562C26.0608 31.848 25.8234 31.7921 25.5563 31.7921ZM25.5563 37.1575C25.0606 37.1575 24.6075 37.0711 24.2095 36.8991C23.8124 36.7272 23.4711 36.4836 23.197 36.1764C22.9212 35.8683 22.71 35.5052 22.5695 35.0984C22.4272 34.6899 22.3547 34.2439 22.3547 33.7726C22.3547 33.3004 22.4272 32.8544 22.5695 32.4467C22.7109 32.0382 22.9221 31.6751 23.197 31.3688C23.4702 31.0615 23.8106 30.8189 24.2095 30.6469C24.6075 30.475 25.0606 30.3877 25.5563 30.3877C26.0512 30.3877 26.5051 30.475 26.9031 30.6469C27.3011 30.8189 27.6424 31.0615 27.9156 31.3688C28.1906 31.676 28.4018 32.0382 28.5441 32.4467C28.6855 32.8544 28.757 33.3013 28.757 33.7726C28.757 34.2439 28.6855 34.6899 28.5441 35.0984C28.4027 35.5052 28.1914 35.8683 27.9156 36.1764C27.6416 36.4836 27.3003 36.7272 26.9031 36.8991C26.5051 37.0711 26.0512 37.1575 25.5563 37.1575Z" fill="white"/>
<path fill-rule="evenodd" clip-rule="evenodd" d="M33.6045 37.0198L31.3447 32.9314H31.2749V37.0198H29.7317V30.5259H31.4547L33.7136 34.568H33.7843V30.5259H35.3275V37.0198H33.6045Z" fill="white"/>
<path fill-rule="evenodd" clip-rule="evenodd" d="M38.3736 34.6408H39.9517L39.2054 32.2789H39.1391L38.3736 34.6408ZM35.9026 37.0202L38.3387 30.5044L40.0451 30.5253L42.4507 37.0202H40.7155L40.3419 35.8654L38.0236 35.8436L37.5793 37.042L35.9026 37.0202Z" fill="white"/>
<path fill-rule="evenodd" clip-rule="evenodd" d="M43.0259 37.0198V30.5259H44.6694V35.6146H47.7296V37.0198H43.0259Z" fill="white"/>
<path fill-rule="evenodd" clip-rule="evenodd" d="M52.5999 35.6145H53.4404C54.0959 35.6022 54.5725 35.4512 54.8553 35.1641C55.1398 34.8769 55.283 34.3968 55.283 33.7352C55.283 33.1417 55.1233 32.6869 54.809 32.3849C54.4948 32.0838 54.0348 31.9302 53.4404 31.9302H52.5999V35.6145ZM50.9563 37.0197V30.5249H53.7442C54.7348 30.5249 55.5213 30.8129 56.0816 31.3785C56.6429 31.9468 56.9266 32.7411 56.9266 33.7448C56.9266 34.7966 56.6446 35.6145 56.086 36.1757C55.5283 36.7361 54.741 37.0197 53.7442 37.0197H50.9563Z" fill="white"/>
<path fill-rule="evenodd" clip-rule="evenodd" d="M57.9292 37.0198V30.5259H63.0912V31.829H59.5728V33.0432H62.7883V34.3001H59.5728V35.6146H63.1829V37.0198H57.9292Z" fill="white"/>
<path fill-rule="evenodd" clip-rule="evenodd" d="M65.5682 37.0196L63.5449 30.5257H65.2828L66.544 35.4031H66.5877L67.9057 30.5012L69.6121 30.5257L67.5103 37.0196H65.5682Z" fill="white"/>
<path fill-rule="evenodd" clip-rule="evenodd" d="M70.1753 37.0198V30.5259H75.3382V31.829H71.8189V33.0432H75.0344V34.3001H71.8189V35.6146H75.4298V37.0198H70.1753Z" fill="white"/>
<path fill-rule="evenodd" clip-rule="evenodd" d="M76.4685 37.0198V30.5259H78.1121V35.6146H81.1723V37.0198H76.4685Z" fill="white"/>
<path fill-rule="evenodd" clip-rule="evenodd" d="M85.035 31.7921C84.767 31.7921 84.5313 31.848 84.3306 31.9562C84.1307 32.0662 83.9657 32.2172 83.8409 32.404C83.717 32.5899 83.6244 32.8037 83.566 33.0394C83.5075 33.2724 83.4769 33.5195 83.4769 33.7726C83.4769 34.0248 83.5075 34.2719 83.566 34.5066C83.6253 34.7423 83.717 34.9562 83.8409 35.1412C83.9657 35.3289 84.1307 35.4781 84.3306 35.5881C84.5296 35.6972 84.7661 35.7531 85.035 35.7531C85.3047 35.7531 85.5412 35.6972 85.7411 35.5872C85.9401 35.4781 86.1051 35.3289 86.229 35.1412C86.3529 34.9553 86.4455 34.7414 86.5048 34.5066C86.5633 34.271 86.593 34.024 86.593 33.7726C86.593 33.5203 86.5633 33.2733 86.5048 33.0394C86.4455 32.8037 86.3538 32.5908 86.2299 32.404C86.1051 32.2163 85.9401 32.0662 85.7402 31.9562C85.5403 31.848 85.3029 31.7921 85.035 31.7921ZM85.035 37.1575C84.54 37.1575 84.087 37.0711 83.689 36.8991C83.2919 36.7272 82.9497 36.4836 82.6765 36.1764C82.4007 35.8683 82.1886 35.5052 82.0481 35.0984C81.9058 34.6899 81.8342 34.2439 81.8342 33.7726C81.8342 33.3004 81.9058 32.8544 82.0481 32.4467C82.1895 32.0382 82.4016 31.6751 82.6765 31.3688C82.948 31.0615 83.2901 30.8189 83.689 30.6469C84.087 30.475 84.54 30.3877 85.035 30.3877C85.5299 30.3877 85.9846 30.475 86.3826 30.6469C86.7798 30.8189 87.1219 31.0615 87.3951 31.3688C87.6692 31.676 87.8813 32.0382 88.0227 32.4467C88.165 32.8544 88.2365 33.3013 88.2365 33.7726C88.2365 34.2439 88.165 34.6899 88.0227 35.0984C87.8813 35.5052 87.6701 35.8683 87.3951 36.1764C87.1211 36.4836 86.7789 36.7272 86.3826 36.8991C85.9846 37.0711 85.5299 37.1575 85.035 37.1575Z" fill="white"/>
<path fill-rule="evenodd" clip-rule="evenodd" d="M90.8731 33.5757H92.054C92.3429 33.5757 92.5742 33.5077 92.7444 33.3759C92.9181 33.2406 93.0054 33.0224 93.0054 32.7247C93.0054 32.4227 92.9173 32.1949 92.7418 32.0483C92.5664 31.9025 92.336 31.8292 92.054 31.8292H90.8731V33.5757ZM89.2295 37.02V30.5251H92.3115C92.6275 30.5251 92.9277 30.5636 93.2079 30.6386C93.4872 30.7146 93.7369 30.8359 93.949 31.0008C94.1628 31.1658 94.3339 31.384 94.4587 31.6502C94.5853 31.9182 94.649 32.2394 94.649 32.606C94.649 33.3759 94.4447 33.9467 94.0406 34.2993C93.6356 34.6537 93.0534 34.8335 92.3115 34.8335H90.8731V37.02H89.2295Z" fill="white"/>
<path fill-rule="evenodd" clip-rule="evenodd" d="M98.5035 37.0196L97.1506 32.04H97.0747V37.0196H95.5315V30.5257H98.0156L99.1206 34.8986H99.1651L100.326 30.5012L102.78 30.5257V37.0196H101.237V32.04H101.18L101.154 32.0636L99.777 37.0432L98.5035 37.0196Z" fill="white"/>
<path fill-rule="evenodd" clip-rule="evenodd" d="M104.031 37.0198V30.5259H109.193V31.829H105.674V33.0432H108.89V34.3001H105.674V35.6146H109.284V37.0198H104.031Z" fill="white"/>
<path fill-rule="evenodd" clip-rule="evenodd" d="M114.177 37.0198L111.918 32.9314H111.848V37.0198H110.305V30.5259H112.028L114.286 34.568H114.356V30.5259H115.9V37.0198H114.177Z" fill="white"/>
<path fill-rule="evenodd" clip-rule="evenodd" d="M118.665 37.0198V31.9303H116.708V30.5259H122.267V31.9303H120.309V37.0198H118.665Z" fill="white"/>
<path fill-rule="evenodd" clip-rule="evenodd" d="M97.0664 49.3175V42.8235H101.835V44.1275H98.71V45.5337H101.411V46.7914H98.71V49.3175H97.0664Z" fill="white"/>
<path fill-rule="evenodd" clip-rule="evenodd" d="M105.459 49.4556C104.493 49.4556 103.772 49.2226 103.319 48.7626C102.864 48.3026 102.635 47.5877 102.635 46.6407V42.8237H104.277V46.7402C104.277 47.1818 104.371 47.5135 104.552 47.7274C104.735 47.9412 105.041 48.0503 105.459 48.0503C105.877 48.0503 106.183 47.9412 106.365 47.7274C106.547 47.5135 106.64 47.1818 106.64 46.7402V42.8237H108.284V46.6407C108.284 47.5877 108.053 48.3017 107.599 48.7626C107.145 49.2226 106.424 49.4556 105.459 49.4556Z" fill="white"/>
<path fill-rule="evenodd" clip-rule="evenodd" d="M113.341 49.3175L111.082 45.2299H111.012V49.3175H109.469V42.8235H111.191L113.451 46.8656H113.52V42.8235H115.064V49.3175H113.341Z" fill="white"/>
<path fill-rule="evenodd" clip-rule="evenodd" d="M117.939 47.9128H118.78C119.435 47.9006 119.912 47.7496 120.195 47.4615C120.479 47.1752 120.622 46.6943 120.622 46.0336C120.622 45.44 120.463 44.9853 120.149 44.6824C119.834 44.3804 119.375 44.2285 118.78 44.2285H117.939V47.9128ZM116.295 49.3172V42.8232H119.083C120.074 42.8232 120.86 43.1104 121.421 43.6769C121.982 44.2442 122.266 45.0394 122.266 46.0432C122.266 47.0949 121.984 47.9128 121.425 48.474C120.868 49.0335 120.08 49.3172 119.083 49.3172H116.295Z" fill="white"/>
<path fill-rule="evenodd" clip-rule="evenodd" d="M120.62 23.2295H122.267V16.1018H120.62V23.2295Z" fill="white"/>
<path fill-rule="evenodd" clip-rule="evenodd" d="M63.9971 15.8L63.0728 16.7244L63.9971 17.647L64.7338 16.9112L65.4687 17.647L66.3922 16.7244L65.4687 15.8L64.7338 16.5359L63.9971 15.8Z" fill="white"/>
<path fill-rule="evenodd" clip-rule="evenodd" d="M77.3832 25.8101L78.3076 24.8857L77.3832 23.9631L76.6474 24.6989L75.9125 23.9631L74.989 24.8857L75.9125 25.8101L76.6474 25.0743L77.3832 25.8101Z" fill="white"/>
<path fill-rule="evenodd" clip-rule="evenodd" d="M110.62 16.7358L111.356 17.4716L112.279 16.5472L111.356 15.6238L110.62 16.3596L109.884 15.6238L108.961 16.5472L109.884 17.4716L110.62 16.7358Z" fill="white"/>
<path fill-rule="evenodd" clip-rule="evenodd" d="M100.868 17.4716L101.793 16.5473L100.868 15.6238L99.9438 16.5473L100.868 17.4716Z" fill="white"/>
<path fill-rule="evenodd" clip-rule="evenodd" d="M88.6674 21.6784H89.947V19.773H88.6674V21.6784ZM117.231 16.1018V17.6921H117.843V21.6784H117.231H116.551H113.146H112.846H112.73H112.471H111.491V18.304H109.872V21.6784H108.798H108.512H108.422H108.122H102.657H102.235H101.651V18.2219H100.004V21.6784H99.2829H98.9067H98.8596H98.6065H92.4782H92.0837H91.4308V18.2219H87.2403V21.6784H86.5315H80.8249H80.7917H80.5246H78.7711H78.3486H77.5735V18.2219H75.8994V21.6784H74.9751H74.5247H69.1872H67.9792H67.9164H67.6798H67.3045H66.8017H65.372H64.9059H64.0933V19.773H65.372V21.2717H66.8017V18.2219H62.6104V23.2295H67.3045H67.6798H67.9164H67.9792H74.5247H74.9751H78.3486H78.7711H80.5246H80.7917H80.8249H86.5315H92.0837H92.4782H98.6065H98.8596H98.9067H99.2829H102.235H102.657H108.122H108.422H108.512H108.798H112.471H112.73H112.846H113.146H116.551H117.231H119.504V16.1018H117.843H117.231Z" fill="white"/>
<path fill-rule="evenodd" clip-rule="evenodd" d="M34.1423 16.1021H32.524V21.271H34.1423V20.5623H40.9845V21.6778H35.716H34.1423H32.524H32.0326H31.4339H27.5759H27.2756H25.5212H25.0987H24.5139V18.2222H22.8678V21.6778H22.1468H21.7235H19.9699H19.6697H14.9982H14.2493H13.6636V18.2222H9.41896V21.6778H2.89881V19.8116H3.51068V18.2222H2.89881H1.30762V23.2297H11.025V19.8823H12.0724V23.2297H14.2493H14.9982H19.6697H19.9699H21.7235H22.1468H25.0987H25.5212H27.2756H27.5759H31.4339H32.0326H42.5495V18.9292H34.1423V16.1021Z" fill="white"/>
<path fill-rule="evenodd" clip-rule="evenodd" d="M56.9368 23.2295H58.5838V16.1018H56.9368V23.2295Z" fill="white"/>
<path fill-rule="evenodd" clip-rule="evenodd" d="M6.8105 24.5019L6.0747 23.7661L5.1521 24.6896L6.0747 25.6131L6.8105 24.8781L7.54631 25.6131L8.46891 24.6896L7.54631 23.7661L6.8105 24.5019Z" fill="white"/>
<path fill-rule="evenodd" clip-rule="evenodd" d="M24.6563 16.5479L23.7319 15.6235L22.8093 16.5479L23.7319 17.4713L24.6563 16.5479Z" fill="white"/>
<path fill-rule="evenodd" clip-rule="evenodd" d="M45.2303 21.678V19.8547H46.5099L46.5221 21.678H45.2303ZM53.5485 16.1023V17.6917H54.1604V21.678H53.5485H52.8686H52.632H50.4237H49.2576H48.5104H48.184V18.2224H43.6653V23.2291H46.5099V24.3996H43.6653V25.9506H48.184V23.2291H48.5104H49.2576H50.4237H52.632H52.8686H53.5485H55.8205V16.1023H54.1604H53.5485Z" fill="white"/>
<path fill-rule="evenodd" clip-rule="evenodd" d="M85.8447 5.86914H81.6542V8.91799H83.0281V7.42019H84.3068V9.32561H83.4008H83.0281H81.6542L74.2996 9.3387V7.45946H74.8792V5.86914H74.2996H74.2664H72.6255V10.8897L85.8447 10.8767V5.86914Z" fill="white"/>
<path fill-rule="evenodd" clip-rule="evenodd" d="M88.4984 9.32522V7.50185H89.778L89.7902 9.32522H88.4984ZM91.4512 5.86963H86.9333V10.8763H89.778V12.0468H86.9333V13.5978H91.4512V5.86963Z" fill="white"/>
<path fill-rule="evenodd" clip-rule="evenodd" d="M113.948 6.57663V5.86963H112.383V8.91848H113.948V8.20973H120.7V9.32522H116.088H113.948H112.383H111.808H111.553H111.24H109.376H109.077H106.42H106H105.414V5.86963H103.768V9.32522H103.373H99.0205H98.6408V5.93771H92.4026V7.48876H97.0898V9.32522H92.4026V10.8763H99.0205H103.373H106H106.42H109.077H109.376H111.24H111.553H122.265V6.57663H113.948Z" fill="white"/>
<path fill-rule="evenodd" clip-rule="evenodd" d="M105.556 4.19471L104.632 3.27124L103.708 4.19471L104.632 5.11905L105.556 4.19471Z" fill="white"/>
<path fill-rule="evenodd" clip-rule="evenodd" d="M83.8613 4.38262L84.5971 5.11842L85.5197 4.19495L84.5971 3.27148L83.8613 4.00642L83.1255 3.27148L82.2029 4.19495L83.1255 5.11842L83.8613 4.38262Z" fill="white"/>
<path fill-rule="evenodd" clip-rule="evenodd" d="M159.218 12.4122L154.548 17.0827L152.643 18.9882L152.127 19.5031L147.32 24.3099L143.58 20.5689L145.486 18.6643L147.32 20.4991L150.036 17.7828L150.738 17.0827L152.643 15.1765L155.408 12.4122L153.826 10.8306L147.32 4.32524L139.234 12.4122L140.419 13.5957L138.513 15.502L135.424 12.4122L147.32 0.514404L159.218 12.4122Z" fill="white"/>
<path fill-rule="evenodd" clip-rule="evenodd" d="M142 15.1777L142.562 14.6156L142.56 14.6147L147.321 9.85425L151.062 13.5961L149.156 15.5007L147.321 13.666L144.793 16.1937L143.905 17.0823L141.999 18.9877L139.234 21.7529L140.817 23.3336L147.321 29.8389L155.407 21.7529L154.224 20.5693L156.13 18.6639L159.219 21.7529L147.321 33.6497L135.424 21.7529L138.302 18.8742L138.303 18.8751L140.095 17.0831L142 15.1777Z" fill="white"/>
<path fill-rule="evenodd" clip-rule="evenodd" d="M154.894 46.723L150.81 42.6389L148.905 44.5452L152.947 48.5865L154.926 50.5661L158.244 47.2475L156.339 45.3421L154.894 46.723Z" fill="white"/>
<path fill-rule="evenodd" clip-rule="evenodd" d="M145.735 37.5707L134.471 26.3066H130.659L143.829 39.4761L145.735 37.5707Z" fill="white"/>
<path fill-rule="evenodd" clip-rule="evenodd" d="M149.221 41.049L163.982 26.2866H160.171L148.517 37.94L145.409 41.0569L139.742 46.7243L138.291 45.3356L136.385 47.2419L139.71 50.5665L141.689 48.5878H141.69L147.318 42.958L149.224 41.0525L149.221 41.049Z" fill="white"/>
</g>
<defs>
<clipPath id="clip0_405_1119">
<rect width="164.095" height="50.625" fill="white" transform="translate(0.71875 0.25)"/>
</clipPath>
</defs>
</svg>
