<svg width="50" height="50" viewBox="0 0 50 50" fill="none" xmlns="http://www.w3.org/2000/svg">
<path fill-rule="evenodd" clip-rule="evenodd" d="M50 25L40.1856 34.814L36.1836 38.8178L35.0996 39.8999L24.9991 50L17.1399 42.1392L21.1438 38.1373L24.9991 41.9925L30.705 36.2849L32.1797 34.814L36.1836 30.8085L41.9941 25L38.6688 21.6767L24.9991 8.00748L8.00595 25L10.4967 27.487L6.49096 31.4926L0 25L24.9991 0L50 25Z" fill="#C6AA76"/>
<path d="M20.5002 28.34C20.4868 28.22 20.5402 28.14 20.6602 28.1L21.8802 27.8C22.0002 27.76 22.0802 27.8067 22.1202 27.94C22.1868 28.1533 22.2802 28.3667 22.4002 28.58C22.5335 28.78 22.6935 28.96 22.8802 29.12C23.0802 29.28 23.3135 29.4133 23.5802 29.52C23.8602 29.6133 24.1802 29.66 24.5402 29.66C25.2735 29.66 25.8468 29.4333 26.2602 28.98C26.6735 28.5267 26.8802 27.9533 26.8802 27.26C26.8802 26.5 26.6535 25.8933 26.2002 25.44C25.7468 24.9733 25.1402 24.74 24.3802 24.74H23.7802C23.6468 24.74 23.5802 24.6733 23.5802 24.54V23.38C23.5802 23.2467 23.6468 23.18 23.7802 23.18H24.3602C25.0402 23.18 25.5868 22.9733 26.0002 22.56C26.4135 22.1467 26.6202 21.5933 26.6202 20.9C26.6202 20.26 26.4268 19.74 26.0402 19.34C25.6535 18.94 25.1202 18.74 24.4402 18.74C23.8002 18.74 23.3068 18.9 22.9602 19.22C22.6268 19.54 22.4002 19.9333 22.2802 20.4C22.2402 20.52 22.1602 20.5733 22.0402 20.56L20.8402 20.26C20.7068 20.2333 20.6535 20.1533 20.6802 20.02C20.7468 19.6467 20.8802 19.2867 21.0802 18.94C21.2935 18.5933 21.5602 18.2933 21.8802 18.04C22.2002 17.7733 22.5802 17.5667 23.0202 17.42C23.4602 17.26 23.9535 17.18 24.5002 17.18C25.1002 17.18 25.6335 17.2733 26.1002 17.46C26.5802 17.6333 26.9868 17.8867 27.3202 18.22C27.6535 18.54 27.9068 18.9267 28.0802 19.38C28.2535 19.8333 28.3402 20.3267 28.3402 20.86C28.3402 21.54 28.1735 22.1267 27.8402 22.62C27.5202 23.1 27.1268 23.4867 26.6602 23.78V23.82C26.8735 23.9133 27.0935 24.0533 27.3202 24.24C27.5468 24.4267 27.7535 24.6667 27.9402 24.96C28.1268 25.24 28.2802 25.5667 28.4002 25.94C28.5335 26.3133 28.6002 26.7333 28.6002 27.2C28.6002 27.8 28.5002 28.3467 28.3002 28.84C28.1002 29.3333 27.8202 29.76 27.4602 30.12C27.1002 30.4667 26.6668 30.74 26.1602 30.94C25.6668 31.1267 25.1268 31.22 24.5402 31.22C23.4335 31.22 22.5268 30.9533 21.8202 30.42C21.1268 29.8733 20.6868 29.18 20.5002 28.34Z" fill="#C6AA76"/>
</svg>
