<svg width="42" height="43" viewBox="0 0 42 43" fill="none" xmlns="http://www.w3.org/2000/svg">
<g clip-path="url(#clip0_406_2385)">
<path fill-rule="evenodd" clip-rule="evenodd" d="M41.4562 21.7263C41.4562 32.866 32.4246 41.8976 21.286 41.8976C10.1451 41.8976 1.11353 32.866 1.11353 21.7263C1.11353 10.5853 10.1451 1.55493 21.286 1.55493C32.4246 1.55493 41.4562 10.5853 41.4562 21.7263Z" fill="#C6AA76"/>
<path fill-rule="evenodd" clip-rule="evenodd" d="M32.4304 14.8144C31.7315 15.1302 30.9584 15.3218 30.2059 15.4484C30.5639 15.3891 31.0895 14.7414 31.2993 14.4792C31.6209 14.079 31.8877 13.624 32.0382 13.1326C32.0564 13.0938 32.0713 13.046 32.0336 13.0163C31.9846 12.9969 31.9527 13.0072 31.915 13.0266C31.0736 13.4769 30.2036 13.8042 29.2778 14.0356C29.2002 14.055 29.1432 14.0356 29.0942 13.9878C29.0189 13.9011 28.9471 13.819 28.8639 13.7517C28.4762 13.4199 28.0577 13.1611 27.5868 12.9684C26.9677 12.7164 26.2927 12.6104 25.6268 12.6537C24.9792 12.6959 24.343 12.8783 23.7683 13.1782C23.1914 13.4792 22.6783 13.8977 22.2678 14.4039C21.8448 14.9261 21.5324 15.543 21.3716 16.1975C21.2177 16.8291 21.2302 17.454 21.3248 18.0914C21.3397 18.1974 21.3294 18.2122 21.2336 18.1974C17.6101 17.6581 14.6068 16.3628 12.1702 13.5841C12.0641 13.4633 12.006 13.4633 11.9193 13.5933C10.8521 15.193 11.3709 17.7618 12.7038 19.024C12.8816 19.1928 13.0641 19.3604 13.2602 19.5143C13.1884 19.5291 12.3013 19.4322 11.5123 19.024C11.4051 18.9568 11.3526 18.9955 11.3424 19.1153C11.3332 19.2886 11.3481 19.4471 11.372 19.6352C11.5761 21.2554 12.6992 22.7548 14.2362 23.3397C14.4186 23.4172 14.6205 23.4845 14.8177 23.5176C14.4665 23.594 14.1062 23.6498 13.1017 23.57C12.9774 23.5461 12.9295 23.6088 12.9774 23.7285C13.7322 25.7866 15.3616 26.3989 16.5816 26.7466C16.7435 26.7763 16.9077 26.7763 17.0719 26.8139C17.0616 26.8287 17.0525 26.8287 17.0422 26.8424C16.6386 27.4604 15.235 27.9199 14.5817 28.1479C13.3925 28.563 12.0983 28.75 10.843 28.6257C10.6423 28.5972 10.6001 28.5983 10.5454 28.6257C10.4895 28.6599 10.5385 28.7089 10.6035 28.7602C10.8578 28.929 11.1166 29.0772 11.3811 29.222C12.1793 29.645 13.0105 29.9814 13.8805 30.222C18.3706 31.4625 23.4297 30.5503 26.8024 27.2004C29.4499 24.5688 30.3769 20.9407 30.3769 17.308C30.3769 17.1666 30.5457 17.088 30.646 17.0127C31.3347 16.4951 31.8911 15.8759 32.4042 15.1838C32.5194 15.0288 32.5205 14.8908 32.5205 14.8338C32.5205 14.8235 32.5205 14.8144 32.5205 14.8144C32.5205 14.7563 32.5194 14.7745 32.4304 14.8144Z" fill="#FFFFFE"/>
</g>
<defs>
<clipPath id="clip0_406_2385">
<rect width="41.0473" height="42.1875" fill="white" transform="translate(0.5 0.4375)"/>
</clipPath>
</defs>
</svg>
